<svg xmlns="http://www.w3.org/2000/svg" width="210" height="152" viewBox="0 0 210 152" version="1.1"><path d="" stroke="none" fill="#807c7c" fill-rule="evenodd"/><path d="M 188 11.841 C 185.908 12.126, 184.520 14.145, 179.500 24.202 C 173.824 35.574, 158.824 58, 156.894 58 C 154.316 58, 157.683 44.162, 164.152 28.169 C 165.378 25.140, 165.322 24.709, 163.540 23.406 C 162.463 22.618, 161.158 22.114, 160.641 22.286 C 160.124 22.459, 157.758 27.152, 155.383 32.716 C 150.020 45.285, 146.338 52.132, 140.806 59.828 C 135.080 67.794, 133.916 68.456, 129.785 66.099 C 119.226 60.075, 94.850 56.398, 72 57.382 C 60.661 57.870, 47.744 60.750, 42.638 63.929 C 34.012 69.299, 22.008 86.507, 21.011 94.931 C 20.481 99.410, 21.120 106.879, 22.486 112.165 C 23.114 114.597, 22.774 115.006, 18.583 116.860 C 12.864 119.390, 11.363 122.539, 13.471 127.584 C 14.459 129.950, 16.055 131.543, 18.432 132.536 C 22.443 134.212, 28 134.482, 28 133 C 28 132.450, 28.706 132, 29.570 132 C 30.625 132, 31.034 131.263, 30.820 129.750 C 30.538 127.766, 29.995 127.532, 26.224 127.771 C 21.965 128.041, 18 126.727, 18 125.046 C 18 123.508, 24.705 119.950, 26.387 120.595 C 27.274 120.935, 28 121.616, 28 122.107 C 28 122.598, 28.666 123, 29.481 123 C 32.339 123, 32.358 118.283, 29.521 112.859 C 24.507 103.270, 26.532 90.717, 34.820 80 C 47.169 64.033, 60.076 61.088, 101.500 64.787 C 111.582 65.688, 125.647 69.746, 129.213 72.783 C 131.399 74.646, 134 73.675, 134 70.996 C 134 69.265, 134.313 69.097, 135.928 69.961 C 138.793 71.495, 140.376 70.463, 145.094 63.983 C 149.151 58.413, 149.427 58.223, 150.457 60.289 C 152.094 63.573, 156.082 64.605, 159.859 62.720 C 161.587 61.858, 163 61.277, 163 61.427 C 163 61.578, 162.512 63.101, 161.916 64.812 C 161.082 67.205, 161.139 68.334, 162.166 69.711 C 164.446 72.768, 166.673 72.384, 167.388 68.809 C 169.043 60.533, 178.199 39.628, 183.746 31.459 C 189.592 22.849, 192.002 18.244, 191.985 15.720 C 191.963 12.533, 190.852 11.452, 188 11.841 M 144.413 74.492 C 141.266 79.295, 145.367 82.172, 149.056 77.750 C 151.372 74.974, 151.483 73.399, 149.418 72.607 C 146.828 71.613, 146.127 71.877, 144.413 74.492 M 106.384 75.618 C 105.694 75.902, 105.513 77.275, 105.910 79.216 C 106.518 82.186, 106.820 82.367, 111.526 82.582 C 114.262 82.706, 117.748 83.016, 119.274 83.269 C 122.402 83.789, 123.401 82.838, 122.548 80.151 C 122.138 78.858, 119.942 77.831, 115.090 76.660 C 111.308 75.747, 108.053 75.036, 107.857 75.079 C 107.661 75.122, 106.998 75.365, 106.384 75.618 M 154.273 76.873 C 152.501 78.045, 152.137 81.994, 153.660 83.518 C 157.547 87.404, 163.294 82.941, 160.235 78.412 C 159.299 77.028, 155.516 76.050, 154.273 76.873 M 172.210 78.248 C 168.785 79.883, 169.910 82.345, 174.511 83.282 C 176.705 83.728, 179.674 84.340, 181.109 84.640 C 183.191 85.075, 183.833 84.746, 184.287 83.012 C 184.743 81.266, 184.230 80.582, 181.678 79.539 C 176.318 77.348, 174.590 77.112, 172.210 78.248 M 67 84.023 C 64.525 84.440, 60.805 85.053, 58.733 85.387 C 54.299 86.102, 47.389 90.404, 46.750 92.847 C 46.081 95.408, 48.837 97.627, 50.881 96.173 C 58.688 90.619, 73.854 87.906, 85.681 89.948 C 94.261 91.430, 96.634 92.979, 99.088 98.705 C 101.350 103.983, 102.904 118, 101.226 118 C 100.639 118, 99.864 119.345, 99.503 120.989 C 99.142 122.632, 98.431 124.234, 97.923 124.548 C 96.255 125.579, 96.900 128.786, 98.746 128.639 C 102.870 128.311, 108 119.155, 108 112.125 C 108 106.297, 104.025 93.635, 101.303 90.795 C 95.777 85.026, 79.798 81.872, 67 84.023 M 110.381 87.448 C 110.076 88.245, 110.637 90.270, 111.628 91.948 C 113.062 94.376, 114.110 95, 116.751 95 C 118.577 95, 121.194 94.264, 122.567 93.364 C 124.926 91.819, 124.971 91.625, 123.382 89.870 C 120.373 86.545, 111.372 84.868, 110.381 87.448 M 144.423 87.817 C 142.773 88.969, 143.481 94.147, 145.489 95.616 C 148.196 97.595, 148.760 97.371, 149.495 94.025 C 150.426 89.783, 147.223 85.862, 144.423 87.817 M 167.539 89.604 C 166.066 91.077, 166.102 91.353, 167.967 92.972 C 169.085 93.941, 170 95.469, 170 96.367 C 170 97.601, 170.962 98, 173.941 98 C 176.109 98, 178.160 98.450, 178.500 99 C 178.840 99.550, 179.550 100, 180.078 100 C 181.216 100, 180.086 94.656, 178.845 94.167 C 178.380 93.983, 178 92.987, 178 91.952 C 178 88.248, 170.564 86.579, 167.539 89.604 M 156.010 110.250 C 154.977 112.588, 153.823 116.835, 153.445 119.689 L 152.759 124.877 147.897 124.301 C 140.453 123.420, 138.146 126.514, 141.464 132.929 L 142.927 135.760 137.903 134.287 C 132.101 132.586, 127.706 133.236, 128.186 135.725 C 128.675 138.264, 141.421 143.061, 148.500 143.369 C 151.011 143.479, 151.548 143.085, 151.796 140.958 C 151.970 139.468, 151.018 136.833, 149.497 134.591 C 148.069 132.487, 147.075 130.591, 147.288 130.378 C 148.316 129.350, 154.245 132.514, 154.997 134.492 C 155.991 137.107, 160.474 138.339, 162.056 136.432 C 162.832 135.498, 162.656 134.236, 161.419 131.844 C 158.959 127.086, 159.264 116.486, 161.967 112.831 C 164.497 109.408, 164.516 108.346, 162.066 107.035 C 158.873 105.326, 157.975 105.803, 156.010 110.250 M 49.323 128.666 C 46.108 129.336, 44.523 131.574, 46.081 133.242 C 47.005 134.231, 49.718 134.474, 56.521 134.176 C 62.109 133.932, 69.705 134.406, 75.896 135.387 C 81.497 136.274, 88.345 137, 91.113 137 C 95.368 137, 96.095 136.729, 95.812 135.250 C 95.410 133.142, 90.794 131.654, 78.500 129.671 C 69.838 128.273, 53.843 127.722, 49.323 128.666" stroke="none" fill="#7c7c7c" fill-rule="evenodd"/></svg>