<svg xmlns="http://www.w3.org/2000/svg" width="324" height="129" viewBox="0 0 324 129" version="1.1"><path d="" stroke="none" fill="#707cbc" fill-rule="evenodd"/><path d="M 136 17.014 C 134.625 17.486, 128.651 18.605, 122.724 19.501 C 105.610 22.090, 75.552 32.220, 71.890 36.632 C 70.785 37.964, 70.860 38.425, 72.360 39.521 C 73.871 40.626, 75.013 40.445, 79.822 38.333 C 82.945 36.962, 85.927 35.426, 86.450 34.920 C 86.972 34.414, 88.326 34, 89.458 34 C 90.590 34, 95.337 32.713, 100.008 31.141 C 104.679 29.568, 110.525 27.997, 113 27.648 C 117.326 27.039, 117.403 27.072, 115 28.503 C 110.375 31.257, 95.736 38, 94.381 38 C 92.621 38, 91.430 42.830, 92.841 44.241 C 93.634 45.034, 95.092 44.989, 98.129 44.079 C 100.436 43.388, 103.038 42.672, 103.911 42.486 C 104.785 42.301, 108.200 41.472, 111.500 40.644 C 114.800 39.816, 119.525 38.857, 122 38.513 L 126.500 37.888 124 39.926 C 122.625 41.047, 120.975 41.776, 120.333 41.545 C 119.237 41.152, 118 43.027, 118 45.082 C 118 46.259, 123.490 46.276, 125.764 45.107 C 126.719 44.616, 131.550 42.957, 136.500 41.422 C 141.450 39.886, 147.065 37.815, 148.977 36.819 C 150.889 35.824, 153.192 35.244, 154.095 35.530 C 156.159 36.185, 159.231 31.766, 158.335 29.431 C 157.802 28.041, 156.831 27.870, 152.597 28.420 C 149.793 28.784, 143.243 29.511, 138.039 30.035 C 132.836 30.559, 126.986 31.255, 125.039 31.580 L 121.500 32.173 125 29.943 C 126.925 28.716, 131.425 26.463, 134.999 24.935 C 141.906 21.983, 143.704 20.277, 142.691 17.636 C 142.010 15.863, 139.925 15.670, 136 17.014 M 44.574 35.667 C 44.222 36.584, 44.287 37.672, 44.717 38.084 C 46.518 39.808, 55.310 43.927, 56.120 43.426 C 57.911 42.319, 56.899 40.063, 53.272 37.073 C 49.158 33.682, 45.559 33.100, 44.574 35.667 M 37.622 41.839 C 36.602 43.582, 39.202 46.912, 42.411 47.971 C 48.209 49.884, 50.087 47.068, 45.328 43.597 C 42.654 41.647, 38.313 40.656, 37.622 41.839 M 69.097 42.940 C 68.471 43.327, 68.159 44.736, 68.405 46.072 C 68.650 47.407, 68.885 48.863, 68.926 49.307 C 69.019 50.320, 75 46.852, 75 45.784 C 75 45.353, 74.991 44.663, 74.981 44.250 C 74.953 43.137, 70.414 42.126, 69.097 42.940 M 211 47.022 C 194.292 47.791, 175.440 49.569, 162.500 51.595 C 151.372 53.338, 136.603 52.880, 132.310 50.660 C 129.719 49.320, 129.015 49.277, 128.083 50.400 C 126.153 52.725, 127.988 54.851, 133.843 57.073 C 138.821 58.962, 140.820 59.151, 150.500 58.653 C 156.550 58.342, 162.625 57.821, 164 57.497 C 165.375 57.172, 168.525 56.741, 171 56.538 C 173.475 56.335, 180.225 55.650, 186 55.014 C 204.908 52.934, 227.175 52.206, 233 53.477 C 239.276 54.847, 241.998 56.977, 246.552 64.082 C 249.018 67.929, 251.726 71.341, 252.569 71.665 C 253.412 71.988, 255.091 71.348, 256.301 70.241 C 258.292 68.420, 262.744 66.468, 264 66.864 C 264.275 66.951, 264.500 67.805, 264.500 68.761 C 264.500 69.738, 265.376 70.625, 266.500 70.786 C 268.913 71.131, 279.568 65.913, 279.335 64.500 C 279.244 63.950, 279.587 62.997, 280.097 62.383 C 281.964 60.134, 278.314 58.771, 271.772 59.274 C 264.516 59.833, 262.669 60.432, 258.336 63.633 L 255.173 65.970 252.664 61.735 C 248.582 54.845, 243.679 50.378, 238.364 48.707 C 231.416 46.522, 227.337 46.271, 211 47.022 M 37.750 50.392 C 35.632 52, 35.530 53.365, 37.413 54.927 C 38.503 55.833, 39.651 55.755, 42.445 54.588 C 45.740 53.211, 45.950 52.893, 44.791 51.038 C 43.342 48.717, 40.321 48.440, 37.750 50.392 M 63.258 57.741 C 62.426 58.022, 62.311 58.713, 62.909 59.831 C 63.819 61.530, 64 62.223, 64 64 C 64 65.599, 68.627 65.154, 70.070 63.416 C 72.408 60.599, 67.324 56.363, 63.258 57.741 M 80.893 59.072 C 80.379 59.386, 80.159 60.736, 80.405 62.072 C 80.650 63.407, 80.885 64.838, 80.926 65.250 C 81.099 66.997, 84.899 65.803, 86.385 63.535 C 88.925 59.659, 88.473 58.048, 84.914 58.290 C 83.216 58.406, 81.407 58.757, 80.893 59.072 M 99.250 70.031 C 96.531 71.124, 96.426 72.064, 98.793 74.091 C 102.007 76.843, 102.889 77.086, 104.959 75.793 C 107.445 74.241, 107.488 73.593, 105.278 71.011 C 103.391 68.808, 102.609 68.681, 99.250 70.031 M 89.779 77.250 C 86.917 81.690, 86.920 84.019, 89.790 85.110 C 93.247 86.425, 97.118 85.470, 96.358 83.490 C 95.963 82.461, 96.437 82, 97.893 82 C 99.451 82, 100 81.374, 100 79.598 C 100 77.803, 99.204 76.918, 96.851 76.098 C 92.396 74.545, 91.421 74.703, 89.779 77.250 M 35.995 77.444 C 33.293 78.915, 28.649 84.349, 23.293 92.307 C 20.547 96.388, 20.091 97.775, 20.795 99.900 C 21.924 103.307, 25.229 103.794, 26.868 100.794 C 27.934 98.841, 37.660 92, 39.369 92 C 39.682 92, 38.152 94.550, 35.969 97.666 C 33.786 100.782, 32 103.622, 32 103.977 C 32 105.319, 36.288 109.159, 36.880 108.348 C 37.221 107.882, 38.227 107.050, 39.115 106.500 C 40.003 105.950, 43.290 103.803, 46.419 101.728 C 49.548 99.653, 54.446 97.462, 57.304 96.858 C 63.685 95.511, 66 94.357, 66 92.524 C 66 88.893, 59.762 88.889, 51.563 92.514 C 48.503 93.868, 46 94.568, 46 94.071 C 46 93.573, 46.354 93.017, 46.787 92.833 C 47.220 92.650, 49.063 90.628, 50.883 88.339 C 55.361 82.707, 54.657 79.965, 48.999 81 C 46.824 81.398, 42.836 82.816, 40.136 84.152 L 35.228 86.581 36.729 84.291 C 37.555 83.031, 38.906 82, 39.732 82 C 40.801 82, 41.060 81.352, 40.630 79.750 C 40.299 78.513, 40.021 77.162, 40.014 76.750 C 39.994 75.684, 38.872 75.877, 35.995 77.444 M 257.630 83.523 C 256.837 85.589, 260.152 88.699, 266.073 91.442 C 270.896 93.677, 270.943 93.742, 268.987 95.512 C 267.894 96.501, 267 98.427, 267 99.793 L 267 102.276 259.412 101.588 C 252.147 100.930, 249 101.671, 249 104.040 C 249 105.834, 258.428 108.080, 273.671 109.918 C 282.946 111.036, 291.177 112.557, 292.971 113.485 C 296.688 115.407, 299.571 114.770, 299.571 112.026 C 299.571 109.984, 295.983 107.832, 287 104.484 C 284.525 103.562, 280.700 101.978, 278.500 100.966 L 274.500 99.124 277.500 98.915 C 282.708 98.553, 293.353 99.125, 297.276 99.978 C 301.696 100.939, 304.645 100.367, 305.399 98.401 C 306.543 95.423, 304.844 94.178, 298.677 93.478 C 286.649 92.111, 265.130 86.067, 262.953 83.444 C 261.383 81.551, 258.369 81.596, 257.630 83.523 M 104.510 93.016 C 104.786 93.463, 104.479 94.007, 103.826 94.225 C 102.198 94.767, 103.537 97.898, 105.727 98.670 C 106.702 99.014, 109.300 100.079, 111.500 101.037 C 113.700 101.995, 117.961 103.110, 120.968 103.514 C 128.928 104.582, 149.881 104.894, 153.030 103.991 C 154.516 103.565, 156.214 103.514, 156.804 103.879 C 158.377 104.851, 188.139 102.650, 190.140 101.414 C 190.570 101.148, 193.752 100.743, 197.211 100.514 C 200.670 100.286, 205.005 99.347, 206.844 98.429 C 209.860 96.924, 210.036 96.608, 208.643 95.215 C 207.250 93.822, 205.547 93.842, 191.299 95.426 C 170.949 97.687, 150.245 98.811, 137 98.374 C 122.450 97.894, 118.898 97.381, 110.942 94.615 C 107.128 93.288, 104.234 92.569, 104.510 93.016" stroke="none" fill="#6c7cbc" fill-rule="evenodd"/></svg>