<?xml version="1.0" standalone="no"?>
<!DOCTYPE svg PUBLIC "-//W3C//DTD SVG 20010904//EN"
 "http://www.w3.org/TR/2001/REC-SVG-20010904/DTD/svg10.dtd">
<svg version="1.0" xmlns="http://www.w3.org/2000/svg"
 width="2558.000000pt" height="1356.000000pt" viewBox="0 0 2558.000000 1356.000000"
 preserveAspectRatio="xMidYMid meet">

<g transform="translate(0.000000,1356.000000) scale(0.100000,-0.100000)"
fill="#000000" stroke="none">
<path d="M490 7270 c-11 -11 -20 -30 -20 -42 0 -26 16 -13 22 17 2 13 12 21
31 23 31 4 37 22 7 22 -11 0 -29 -9 -40 -20z"/>
<path d="M718 7283 c7 -3 16 -2 19 1 4 3 -2 6 -13 5 -11 0 -14 -3 -6 -6z"/>
<path d="M768 7240 c2 -22 8 -40 13 -40 5 0 6 15 2 33 -9 48 -19 53 -15 7z"/>
<path d="M540 7207 c0 -7 7 -22 16 -33 15 -18 15 -18 5 3 -14 28 -14 33 2 33
7 0 21 -16 30 -35 18 -38 31 -44 41 -19 5 13 4 14 -7 6 -11 -9 -17 -4 -30 23
-17 35 -57 50 -57 22z"/>
<path d="M654 7198 l-19 -23 23 20 c20 16 25 17 32 5 8 -13 10 -12 10 3 0 24
-23 21 -46 -5z"/>
<path d="M666 7158 c-9 -12 -13 -31 -10 -44 5 -19 1 -24 -19 -29 -46 -12 -62
-3 -61 35 2 33 1 33 -9 12 -14 -31 1 -56 36 -60 40 -5 70 15 63 42 -3 12 1 32
10 44 8 12 13 22 10 22 -3 0 -12 -10 -20 -22z"/>
<path d="M477 7048 c9 -34 20 -45 45 -42 35 4 36 6 3 13 -21 4 -31 13 -33 29
-2 12 -7 22 -12 22 -4 0 -6 -10 -3 -22z"/>
<path d="M768 7048 c-2 -15 -11 -24 -25 -26 -13 -2 -23 -8 -23 -13 0 -12 4
-11 34 2 22 10 43 59 25 59 -4 0 -9 -10 -11 -22z"/>
</g>
</svg>
