<?xml version="1.0" encoding="UTF-8" standalone="no"?>
<!-- Created with Inkscape (http://www.inkscape.org/) -->

<svg
   width="210mm"
   height="210mm"
   viewBox="0 0 210 210"
   version="1.1"
   id="svg2151"
   sodipodi:docname="rabbit-lyricall.svg"
   inkscape:version="1.1.2 (0a00cf5339, 2022-02-04)"
   xmlns:inkscape="http://www.inkscape.org/namespaces/inkscape"
   xmlns:sodipodi="http://sodipodi.sourceforge.net/DTD/sodipodi-0.dtd"
   xmlns="http://www.w3.org/2000/svg"
   xmlns:svg="http://www.w3.org/2000/svg">
  <sodipodi:namedview
     id="namedview2153"
     pagecolor="#ffffff"
     bordercolor="#666666"
     borderopacity="1.0"
     inkscape:pageshadow="2"
     inkscape:pageopacity="0.0"
     inkscape:pagecheckerboard="0"
     inkscape:document-units="mm"
     showgrid="false"
     inkscape:zoom="0.54660447"
     inkscape:cx="461.02806"
     inkscape:cy="404.31429"
     inkscape:window-width="1280"
     inkscape:window-height="652"
     inkscape:window-x="0"
     inkscape:window-y="0"
     inkscape:window-maximized="1"
     inkscape:current-layer="layer1" />
  <defs
     id="defs2148">
    <inkscape:path-effect
       effect="bspline"
       id="path-effect2607"
       is_visible="true"
       lpeversion="1"
       weight="33.333333"
       steps="2"
       helper_size="0"
       apply_no_weight="true"
       apply_with_weight="true"
       only_selected="false" />
    <clipPath
       clipPathUnits="userSpaceOnUse"
       id="clipPath2867">
      <path
         id="path2869"
         style="fill:#ff0000;fill-opacity:1;fill-rule:nonzero;stroke:none"
         d="M 57.861328,45.230469 V 715.9043 H 757.49805 V 45.230469 Z m 123.005862,0.722656 c 4.21416,0.0052 8.42871,0.124033 12.64062,0.347656 0.002,0.03322 0.006,0.06639 0.008,0.09961 0.26126,-0.06215 0.47421,-0.0764 0.46876,0.128906 -0.0292,1.091655 -0.1024,2.18035 -0.19727,3.267578 0.0675,0.741326 0.13429,1.483307 0.20312,2.224609 0.81175,0.1695 1.62424,0.343864 2.4336,0.523438 6.00284,2.185954 5.87732,1.29656 3.01562,8.580078 0.21098,0.04807 0.37911,0.148947 0.46094,0.361328 0.0795,0.206225 0.15573,0.415792 0.23438,0.623047 0.0865,-0.0045 0.15568,-0.0044 0.004,0.0078 1.74263,4.593636 3.25702,9.432007 3.26172,14.330078 0.001,1.107242 -4.77472,0.682426 -5.5957,0.640625 -0.54397,-0.07235 -1.08727,-0.149609 -1.63086,-0.22461 1.35322,0.6943 2.70366,1.394723 4.04687,2.109375 6.86793,4.181526 7.05378,2.700084 -0.57226,16.134766 -0.58906,1.037752 -2.39341,-0.07882 -3.56836,-0.28711 -1.06547,-0.188887 -2.52152,-0.524254 -4.1211,-0.923828 0.45014,1.826058 0.60164,3.647087 0.0606,5.398438 -1.08872,3.523891 -5.5808,2.844111 -9.02539,1.757811 -0.0579,-0.006 -0.1509,-0.0355 -0.28906,-0.0918 -1.26432,-0.41359 -2.36902,-0.86827 -3.07031,-1.167974 -1.73637,-0.78975 -3.46501,-1.597368 -5.19141,-2.41211 -0.60938,-0.245566 -1.1573,-0.471434 -1.84961,-0.742187 -1.09367,-0.432013 -2.18428,-0.872588 -3.27734,-1.306641 0.79948,0.562632 1.5996,1.123819 2.39843,1.6875 2.97525,2.099418 11.67004,7.746382 12.76758,10.574222 1.28549,3.31209 -0.40784,7.09364 -0.61133,10.64063 -2.93206,0.82996 -5.74786,2.45508 -8.79492,2.49023 -1.41925,0.0164 -3.91054,-1.24356 -6.47461,-2.82617 -0.0517,1.37206 -0.10361,2.74164 -0.12695,4.09961 -0.008,0.47541 -0.95214,0.002 -1.42773,0.004 -0.62073,-2.75212 0.44915,0.79062 -5.03907,1.24024 -2.21909,0.18179 -4.49012,-0.34525 -6.58984,-1.08594 -0.94912,-0.33481 -1.75615,-0.97994 -2.51367,-1.66992 0.93479,1.18861 1.84826,2.3932 2.71679,3.63281 0.77881,1.05305 2.78373,2.13444 2.15821,3.28516 -7.27452,13.38225 -6.23615,14.01596 -10.3125,10.57226 3.31209,-1.10793 -2.57842,-0.033 -3.84375,-0.48047 -3.80685,-1.34611 -5.33938,-2.74161 -7.29102,-5.46484 0.1921,1.7906 0.18906,3.53171 -0.11719,5.12891 -0.42635,2.22361 -2.80263,3.55889 -4.20312,5.33789 -2.82292,0.37738 -5.62701,1.3219 -8.46875,1.13281 -1.45415,-0.0968 -2.68832,-1.16266 -3.91016,-1.95703 -1.97668,-1.28514 -3.9087,-2.66438 -5.64648,-4.25781 -0.83272,-0.76355 -1.35231,-1.8117 -1.99024,-2.74414 -0.36293,-0.53051 -0.56796,-0.84345 -0.87304,-1.29297 -0.0875,-0.0547 -0.17646,-0.10713 -0.26172,-0.16407 -6.03056,-4.02721 -9.30962,-11.09332 -13.613283,-16.60351 -4.51225,-7.47704 -9.143402,-14.88905 -13.609375,-22.392583 -0.675075,-1.134235 -2.405955,-2.256779 -2.232422,-3.4375 -0.172711,-0.150448 -0.346198,-0.299356 -0.517578,-0.451172 -1.715141,-4.641909 -3.002844,-7.666004 8.699219,-10.435547 0.433297,-0.233619 0.892652,-0.472863 1.408203,-0.740234 0.130266,0.122383 0.266104,0.241837 0.398437,0.363281 1.006717,-0.02546 1.679559,0.802205 2.228516,1.935547 1.15197,0.94689 2.357697,1.8623 3.583984,2.757813 -0.376014,-1.887483 -0.617748,-3.78483 -0.554687,-5.705079 0.05507,-1.677009 1.632344,-2.381747 3.539066,-2.623047 1.26981,-1.271153 3.13693,-2.093397 4.52539,-3.27539 0.9319,-0.161756 1.88734,-0.752596 2.79492,-0.486328 1.30869,0.383967 2.5063,0.822594 3.61914,1.30664 0.0127,-0.08864 0.0297,-0.176905 0.041,-0.265625 0.37693,-0.93973 0.29803,-2.34962 0.85937,-3.099609 -0.86914,-0.434807 -1.51616,-0.970685 -1.5957,-1.765625 -2.79023,-2.745801 -3.54801,-5.744842 2.08203,-9.496094 1.57347,-3.645894 3.66198,-4.144496 6.00195,-3.197265 0.0395,-0.01766 0.0735,-0.03505 0.11328,-0.05273 1.90665,-0.847226 3.42467,1.706644 5.03711,3.519531 0.88363,0.726791 1.77442,1.480667 2.66211,2.191407 1.52052,1.100947 2.65857,1.914431 3.33985,2.392578 0.61613,-0.735106 1.22432,-1.476071 1.79492,-2.238281 1.38831,0.388837 2.7606,0.837978 4.16406,1.167968 0.88745,0.291939 1.79052,0.502207 2.70117,0.675782 0.12062,-0.764749 0.24853,-1.528371 0.38867,-2.292969 -3.45169,1.192572 -2.22327,-0.173187 0.34766,-1.890625 0.23517,-1.294496 0.45576,-2.589598 0.60352,-3.884766 4.05271,-0.8499 8.14996,-1.359725 12.26953,-1.677734 0.18056,-2.055185 0.48135,-4.09918 0.89062,-6.107422 0.16014,-0.785764 1.57308,-0.332886 2.37305,-0.388672 3.16434,-0.220636 6.38126,-0.219347 9.58594,-0.1875 0.16683,-0.101197 0.33225,-0.197425 0.49023,-0.271484 0.89311,-0.418696 1.96508,-0.182465 2.94727,-0.273438 4.21076,-0.230147 8.4245,-0.337252 12.63867,-0.332031 z m -41.79883,13.123047 c -0.11448,0.63012 -0.23217,1.260513 -0.34766,1.890625 0.16146,-0.05578 0.3138,-0.106594 0.4961,-0.173828 2.08834,-0.770225 3.76106,-2.310382 5.45508,-3.8125 -0.0104,-0.328168 -0.0196,-0.656309 -0.0352,-0.984375 -1.83954,0.80138 -3.95755,2.004019 -5.56836,3.080078 z M 146.69922,55.25 c -0.55961,0.142713 -1.21144,0.378404 -1.91211,0.677734 0.30477,0.05475 0.60897,0.111642 0.91406,0.164063 0.31464,-0.266275 0.63455,-0.523392 0.95899,-0.771485 0.0105,-0.02841 0.0238,-0.05098 0.0391,-0.07031 z m -2.44141,0.382812 c -0.32604,-0.01541 -0.72127,0.07025 -0.53515,0.105469 0.303,0.05733 0.60681,0.107201 0.91015,0.16211 -0.002,-0.0332 -0.002,-0.06641 -0.004,-0.09961 -0.006,-0.113499 -0.17547,-0.15872 -0.3711,-0.167969 z m -12.59961,6.550782 c -0.057,10e-4 -0.074,0.01498 -0.0215,0.04297 0.21591,0.115151 0.43405,0.225529 0.65039,0.339844 0.007,-0.03384 0.0144,-0.06771 0.0215,-0.101562 0.0364,-0.174699 -0.47938,-0.284374 -0.65039,-0.28125 z" />
    </clipPath>
    <clipPath
       clipPathUnits="userSpaceOnUse"
       id="clipPath3113">
      <path
         id="path3115"
         style="fill:#ff0000;fill-opacity:1;fill-rule:nonzero;stroke:none;stroke-width:0.264583"
         d="m 194.97104,157.33561 -3.81889,0.001 c -0.068,0.56068 -0.4832,1.45569 -0.57154,1.649 -0.11463,0.25082 -0.23332,0.49987 -0.34985,0.74982 -0.16199,0.28384 -0.16506,-0.0229 -0.13746,0.52297 -0.024,0.71691 -0.21251,1.38167 -0.52968,2.00763 -0.003,0.2093 -0.0186,0.41905 -0.0289,0.51521 -0.029,0.27073 -0.0723,0.53989 -0.10852,0.80977 -0.10267,0.51911 -0.15753,1.04761 -0.26872,1.56477 4e-5,0.001 5.3e-4,0.004 5.3e-4,0.005 0.002,0.26641 0.0146,0.53576 -0.0269,0.79892 -0.0409,0.25946 -0.14537,0.50464 -0.21807,0.75706 -0.008,0.016 -0.0165,0.0311 -0.0243,0.047 -0.0799,0.82318 -0.22577,1.6253 -0.57775,2.39055 -0.36735,0.97123 -0.77374,1.91133 -1.58646,2.60449 -0.59852,0.56092 -1.18289,1.16561 -1.89188,1.58543 -0.34493,0.18888 -0.74256,0.42106 -1.03146,0.55759 -0.031,0.0184 -0.0387,0.0212 -0.063,0.0351 -0.0454,0.0396 -0.089,0.0778 -0.17002,0.14418 -0.50362,0.43194 -1.02369,0.83076 -1.59008,1.17512 0.10241,-0.0864 -0.0884,0.0801 -0.10852,0.0966 -0.18707,0.28201 -0.38656,0.55708 -0.60513,0.82114 -0.5939,0.60463 -1.26326,1.11737 -1.93632,1.62832 -0.18705,0.1673 -0.38375,0.32208 -0.58653,0.46819 -0.0317,0.0397 -0.0705,0.072 -0.1173,0.0951 -0.0281,0.0229 -0.056,0.0472 -0.0842,0.0698 -0.0122,0.0174 -0.0245,0.0348 -0.0367,0.0522 -0.53558,0.76624 -0.47233,0.73219 -0.5426,0.38395 -0.4236,0.29541 -0.86921,0.55628 -1.36167,0.7705 -0.1822,0.0793 -0.65726,0.35683 -0.56896,0.1788 0.0409,-0.0825 0.0949,-0.15549 0.15503,-0.22376 -0.004,0.008 -1.41233,0.41811 -1.89497,0.54054 -0.48755,0.0754 -0.96809,0.17884 -1.44953,0.2868 -0.71151,0.1011 -1.38151,0.35207 -2.06396,0.56483 -0.72106,0.20161 -1.46059,0.31549 -2.18281,0.51056 -0.81446,0.23936 -1.64221,0.42422 -2.47892,0.56586 -0.92845,0.10604 -1.86236,0.10796 -2.79363,0.18396 -1.1449,0.0699 -2.29463,0.23158 -3.4432,0.14728 -0.786,0.008 -1.57161,-0.0341 -2.35644,-0.0718 -0.6871,-0.0179 -1.37402,-0.0358 -2.06086,-0.062 -0.87817,-0.005 -1.75226,0.0747 -2.62671,0.14263 -1.01517,0.0308 -2.03,0.0371 -3.04426,0.0935 -0.9049,0.0651 -1.80776,0.15571 -2.7156,0.16071 -0.58865,0.0421 -1.17928,0.0318 -1.76888,0.0248 -0.63631,-0.0121 -1.27117,0.027 -1.90634,0.0584 -1.1041,0.0463 -2.2086,0.0572 -3.3135,0.0532 -1.72226,-0.001 -3.43332,0.18996 -5.14852,0.30127 -0.83495,-0.041 -1.66666,-0.025 -2.49959,0.0139 -0.35061,0.0353 -0.70072,0.069 -1.05213,0.10387 -0.43235,0.006 -0.42501,0.007 -0.48266,0.008 -0.296,0.0416 -0.5912,0.0896 -0.88883,0.1173 -1.08581,-0.0671 -1.45158,-0.0507 -1.46245,-1.02009 -0.45697,-0.001 -0.91406,-0.002 -1.37097,-0.005 -0.51808,-0.004 -1.03633,-0.007 -1.55443,-0.007 -0.3294,-0.003 -0.65864,-0.0102 -0.98805,-0.002 -0.61997,0.005 -1.24051,0.0155 -1.85829,-0.0496 -0.19602,-0.0162 -0.39263,-0.005 -0.58911,-0.004 -0.53427,0.0379 -1.06908,0.0678 -1.60507,0.0734 -0.61846,0.0104 -1.2325,0.12038 -1.8495,0.15658 -0.89115,0.0643 -1.78449,0.11417 -2.67839,0.10128 -0.46409,-0.0156 -0.91921,-0.0626 -1.38131,0.009 -0.50996,0.0259 -1.0203,0.042 -1.53065,0.0512 -0.80428,0.10527 -1.61092,0.1943 -2.42053,0.23565 -0.58032,0.44593 -1.55453,0.60049 -2.80913,0.14624 -0.14246,-0.0516 -0.28418,-0.10561 -0.42581,-0.15968 -0.0394,-0.001 -0.0789,-0.002 -0.11834,-0.003 -0.60149,-0.0155 -1.20301,-0.0305 -1.80454,-0.0434 -0.36662,-0.008 -0.62449,-0.006 -0.80512,-0.0227 -10e-4,-7e-5 -0.003,9e-5 -0.004,0 -0.002,-1.6e-4 -0.001,-2.6e-4 -0.003,-5.3e-4 0.002,2.2e-4 0.005,2.7e-4 0.007,5.3e-4 0.0356,0.002 0.0929,-5e-5 0.15348,-0.005 -0.0983,-7.9e-4 -0.18436,-0.002 -0.18087,0.002 -0.35909,-0.0397 -0.38879,-0.17426 -0.36587,-0.65577 -0.0517,-0.0724 -0.0957,-0.17196 -0.13332,-0.28732 -0.12834,-0.14808 -0.22702,-0.30778 -0.29249,-0.47439 -0.65146,-0.22235 -1.0724,-0.62199 -1.26039,-1.08417 v 6.60114 h 92.28842 z m -92.28842,0.001 v 21.79919 c 0.29984,-0.74107 1.17546,-1.36934 2.65668,-1.38545 1.28614,-0.014 2.57817,-0.10521 3.86282,0.007 0.38995,0.034 0.87534,0.28896 1.21026,0.0837 1.23544,-0.004 2.47091,0.0745 3.70572,0.0775 1.08855,-0.006 2.17829,-0.0254 3.2675,-0.0248 0.36006,-0.0193 0.71158,0.0723 1.06867,0.0987 0.60816,0.0754 1.21945,0.0529 1.82986,0.0599 0.48153,0.0301 0.95701,0.0988 1.44022,0.0873 0.42099,-0.0284 0.84273,-0.0184 1.26401,-0.005 0.0263,0.003 0.0527,0.002 0.0791,0.004 0.55213,-0.0689 1.10253,-0.14823 1.65571,-0.20981 1.42899,-0.16977 2.82098,-0.59818 4.223,-0.91932 -0.0188,-0.30178 2.09018,-0.0631 1.69344,-0.2248 1.12669,-0.10454 2.25538,-0.19067 3.38274,-0.28887 0.63731,-0.0558 1.27511,-0.10382 1.91306,-0.15193 1.21941,-0.12643 2.43326,-0.30544 3.65249,-0.43873 1.18474,-0.0875 2.36473,-0.20493 3.5388,-0.38757 0.62066,-0.15662 1.25745,-0.10561 1.88929,-0.11731 0.98008,-0.0146 1.94309,-0.22658 2.8975,-0.4315 0.74225,-0.17181 1.48259,-0.35037 2.22467,-0.52296 0.81853,-0.19207 1.64591,-0.3437 2.46342,-0.54002 1.01501,-0.25703 2.06256,-0.33515 3.09852,-0.4656 0.98667,-0.14736 1.97662,-0.2626 2.97139,-0.3359 0.73415,-0.009 1.45553,-0.0818 2.18229,-0.17363 1.19483,-0.17834 2.40052,-0.23128 3.60702,-0.22428 0.49373,0.0319 0.98784,0.0185 1.48208,0.0155 0.54266,-0.019 1.08353,0.0201 1.62471,0.0507 0.77378,0.0376 1.54997,-0.0158 2.32079,-0.0832 0.26353,-0.0425 0.52899,-0.0529 0.79478,-0.0548 0.49473,-0.0899 0.99829,-0.15374 1.50482,-0.21135 0.46384,-0.51759 1.27692,-0.94102 2.43757,-1.08314 0.27491,-0.0337 0.58038,-0.0356 0.90176,-0.0243 -0.0235,-0.0214 -0.0466,-0.0409 -0.0703,-0.0631 -0.13855,-0.1287 0.0969,-0.36631 0.16123,-0.54415 0.27061,-0.74876 0.73046,-1.38118 1.20147,-2.01693 1.97225,-2.16288 4.08846,-4.19421 6.27714,-6.13606 0.6128,-0.43998 1.78437,-1.32366 2.78898,-1.67948 0.17692,-0.64884 0.38755,-1.38219 0.38189,-2.05156 -0.002,-0.29905 -0.21802,-0.6385 -0.0636,-0.89452 0.0972,-0.16105 0.26803,-0.37204 0.45527,-0.59376 z m 86.74871,0 c 0.11392,0.23654 0.22478,0.47428 0.32969,0.71469 0.13615,-0.15524 0.13674,-0.0888 0.0811,0.18862 0.0951,0.22496 0.18546,0.4521 0.27027,0.68109 0.13632,-0.0835 0.28261,-0.24718 0.50901,-0.48886 -0.26923,-0.3652 -0.53846,-0.73037 -0.80771,-1.09554 z m 0.4408,1.59112 c -0.002,0.001 -0.008,0.0184 -0.0191,0.0548 0.003,2.6e-4 0.006,0.001 0.009,0.002 0.008,-0.0343 0.0115,-0.0548 0.0103,-0.0568 z m -0.0703,0.23461 c -0.0311,0.1118 -0.0978,0.36485 -0.15503,0.58085 0.0486,-0.1231 0.11832,-0.37263 0.16846,-0.56896 -0.002,-0.002 -0.004,-0.003 -0.006,-0.005 l -0.007,-0.007 z m -4.36097,3.1409 c -5.3e-4,5.3e-4 -0.002,0.005 -0.004,0.0129 -0.0215,0.0875 -0.0374,0.14684 -0.0548,0.21394 0.003,-0.006 0.006,-0.012 0.009,-0.0181 0.0249,-0.0531 0.054,-0.21322 0.0501,-0.20877 z m -9.40873,16.4977 c -0.0362,0.0209 -0.0772,0.0374 -0.11111,0.0605 -0.18903,0.0938 -0.38156,0.1904 -0.57154,0.28835 0.18015,0.10182 0.36316,0.20123 0.51986,0.32195 0.10535,0.0417 0.35184,0.0183 0.31627,0.12505 0.1222,-0.13854 0.27496,-0.25454 0.42839,-0.37 -0.19395,-0.14194 -0.38793,-0.28386 -0.58187,-0.42581 z m -46.92686,4.16873 c -0.0237,-0.001 1.53602,0.472 1.89601,0.11886 -0.33712,-0.0326 -0.92224,-0.0718 -1.89601,-0.11886 z" />
    </clipPath>
  </defs>
  <g
     inkscape:label="Layer 1"
     inkscape:groupmode="layer"
     id="layer1">
    <path
       style="fill:#000000;fill-opacity:1;fill-rule:nonzero;stroke:none;stroke-width:0.264583"
       id="path90"
       d="m 66.101123,106.33106 c -1.658263,0.23156 -3.317539,0.45205 -4.971608,0.71254 -1.763556,0.33416 -3.542062,0.57242 -5.325655,0.76732 -1.829744,0.1364 -3.660653,0.24806 -5.483738,0.45874 -1.705652,0.21678 -3.393456,0.56364 -5.047115,1.03244 -1.990407,0.80268 -3.885795,1.83745 -5.770644,2.86139 -4.150299,2.4908 -9.619147,4.33991 -12.488757,8.6128 -1.054086,1.82709 -1.646238,3.84841 -2.137785,5.8847 -0.500617,2.76014 -0.579477,5.57714 -0.734624,8.3727 -0.126246,2.78314 -0.247248,5.56616 -0.384634,8.34881 -0.112269,2.69803 -0.174986,5.40204 -0.05883,8.10067 0.132218,2.43275 0.279199,4.86424 0.367507,7.29915 0.08331,3.18616 0.06039,6.37452 0.06834,9.56171 -0.0068,2.51554 0.09492,5.02388 0.377558,7.52299 0.162914,1.47329 0.456074,2.92544 0.748667,4.37688 0.258478,1.21225 0.538086,2.42202 1.139312,3.51178 1.179202,1.79811 2.971267,3.00998 4.774945,4.11104 1.603505,0.82679 3.303895,1.66483 5.089687,2.02603 0.501168,0.10136 1.013317,0.13774 1.519975,0.20661 1.871615,-0.83315 3.74323,-1.6663 5.614842,-2.49944 0,0 0.201226,-0.14231 0.201226,-0.14231 v 0 c 0.744231,-0.97798 1.488464,-1.95596 2.232695,-2.93394 -2.03327,-0.71667 -4.173636,-1.1652 -6.077445,-2.21675 -1.663099,-0.95081 -3.347347,-1.99239 -4.291502,-3.72453 -0.483322,-1.03767 -0.765315,-2.14578 -1.020601,-3.25918 -0.30643,-1.40604 -0.585997,-2.81926 -0.834393,-4.2365 -0.337926,-2.41245 -0.573693,-4.84287 -0.561281,-7.28161 0.0241,-3.21519 0.05508,-6.43014 0.0368,-9.64545 -0.02958,-2.4429 -0.136025,-4.88043 -0.406731,-7.3101 -0.160208,-2.66345 -0.07389,-5.31922 0.03688,-7.98407 0.09531,-2.77982 0.292545,-5.55394 0.364133,-8.33458 0.09654,-2.75465 0.194278,-5.53745 0.897472,-8.21803 0.55051,-1.96263 1.192207,-3.93426 2.42697,-5.58711 0.454398,-0.55019 0.554892,-0.70884 1.078613,-1.19553 2.668043,-2.47941 9.142744,-5.16401 -5.891778,3.02933 1.820801,-1.07041 3.721785,-1.99252 5.593585,-2.9693 1.580721,-0.61733 3.262918,-0.92227 4.932537,-1.19806 1.85003,-0.26147 3.704265,-0.50263 5.572821,-0.58285 1.901931,-0.10408 3.761343,-0.45248 5.619049,-0.8668 1.670486,-0.33744 3.347405,-0.64283 5.044022,-0.81734 0,0 7.749489,-5.79415 7.749489,-5.79415 z" />
    <path
       style="fill:#000000;fill-opacity:1;fill-rule:nonzero;stroke:none;stroke-width:0.264583"
       id="path92"
       d="m 49.774051,114.11425 c 1.579033,0.11216 3.141062,-0.039 4.707787,-0.22848 1.338876,-0.14597 2.673482,-0.32757 4.016002,-0.43791 1.0795,-0.0597 2.154536,-0.18487 3.236322,-0.19124 1.240179,-0.0328 2.474674,-0.15966 3.706543,-0.29907 2.348902,-0.24849 4.69469,-0.52478 7.042277,-0.7851 2.544818,-0.25449 5.097576,-0.43126 7.653776,-0.51168 4.064593,-0.1113 8.126918,5.3e-4 12.189174,0.13485 4.801259,0.25037 9.598148,0.55607 14.402108,0.75675 3.60025,0.16301 7.20513,0.11082 10.80785,0.12799 3.31141,0.002 6.61006,0.31203 9.91227,0.51424 2.34296,0.20453 4.68745,0.2292 7.03581,0.15142 3.01832,-0.16556 6.04267,-0.0744 9.06009,0.06 3.01576,0.15776 6.03107,0.32337 9.04414,0.52642 3.13948,0.15526 6.20837,0.74829 9.21724,1.63063 3.05771,0.90108 6.02913,2.066 8.85566,3.53812 1.84311,0.96532 3.28453,2.37066 4.48306,4.04436 1.38201,2.12967 2.31811,4.49678 3.18831,6.86925 0.90114,2.61871 1.60059,5.30182 2.19482,8.00507 0.50898,2.30432 0.72505,4.65659 0.8824,7.00664 0.13493,2.35703 0.0155,4.71621 -0.15635,7.06742 -0.22168,2.8537 -0.59382,5.69119 -1.02117,8.52034 -0.32101,2.33048 -0.85193,4.61989 -1.4806,6.88405 -0.55399,1.95721 -1.43607,3.79332 -2.27396,5.63924 -0.60406,1.40572 -1.3314,2.74778 -2.09793,4.06954 -0.85109,1.43919 -1.84677,2.7847 -2.87922,4.09722 -1.02821,1.34195 -2.14756,2.56912 -3.51817,3.56137 -3.27111,1.93194 -8.17923,4.90925 6.97317,-4.04326 0.30748,-0.18167 -0.63548,0.32627 -0.95702,0.4817 -0.75772,0.36628 -1.04243,0.47852 -1.80474,0.80538 -1.82206,0.79964 -3.74993,1.25816 -5.70005,1.60756 -1.89003,0.29643 -3.79255,0.50439 -5.69818,0.66845 -1.54511,0.0972 -3.08266,0.27105 -4.61828,0.46333 -2.39229,0.34988 -4.80891,0.45541 -7.21918,0.60381 -2.65681,0.17207 -5.31686,0.2808 -7.97862,0.33081 -2.54367,0.0546 -5.08672,0.0196 -7.62959,-0.0493 -2.94469,-0.0985 -5.88907,-0.20516 -8.83347,-0.31258 -4.19862,-0.0481 -8.39066,-0.19748 -12.58055,-0.47336 -3.26949,-0.23109 -6.5271,-0.59964 -9.7975,-0.81621 -3.405161,-0.22722 -6.818968,-0.28603 -10.230246,-0.21731 -3.414462,0.15186 -6.818617,0.46489 -10.220378,0.78638 -2.600362,0.24694 -5.196348,0.53616 -7.795649,0.79353 -3.090987,0.28883 -6.191533,0.46647 -9.293339,0.58521 -2.576822,0.0751 -5.154612,0.0608 -7.731982,0.10605 -2.438037,0.0337 -4.876551,0.058 -7.314705,0.0259 -1.72556,-0.0219 -3.449196,-0.0868 -5.16478,-0.27759 -0.525127,-0.0832 -1.058786,-0.1269 -1.580674,-0.2288 -0.52024,-0.12725 -1.027181,-0.30423 -1.516864,-0.52022 -0.132112,-0.0558 -0.318344,-0.17122 -0.227605,0.0507 -0.404331,-0.37414 -0.870866,-0.70414 -1.346746,-0.9926 -0.314449,-0.1592 -0.944856,-0.52189 -1.305462,-0.50592 -1.702358,0.0754 -4.060078,1.17368 -5.386731,1.66165 0,0 -0.209836,0.12927 -0.209836,0.12927 v 0 c -0.704212,0.72145 -2.753783,2.25517 -2.990897,3.7335 -0.02315,0.1443 0.543869,0.69865 0.626194,0.78484 0.27659,0.33425 0.590323,0.64972 0.746959,1.06051 0.125653,0.23034 0.275857,0.39926 0.539279,0.47069 0.526036,0.19831 1.04263,0.42008 1.568153,0.6199 0.587029,0.23105 1.18662,0.31783 1.819723,0.33988 1.78608,0.12984 3.575608,0.22708 5.366694,0.24148 2.47273,0.0286 4.94442,-0.0105 7.416631,-0.0669 2.596935,-0.0148 5.195228,0.0319 7.790174,-0.10899 3.088471,-0.13253 6.174542,-0.31364 9.26084,-0.48802 2.629808,-0.23455 5.25295,-0.53453 7.87518,-0.84148 3.399914,-0.373 6.804001,-0.7469 10.222767,-0.89199 3.389389,-0.10656 6.780519,-0.10504 10.165427,0.13347 3.319772,0.25166 6.632373,0.60178 9.961583,0.71707 4.15037,0.20147 8.3006,0.40807 12.45142,0.59649 2.93462,0.0952 5.86725,0.23144 8.80128,0.34114 2.54813,0.0865 5.0983,0.18643 7.64803,0.10638 2.68586,-0.0639 5.37011,-0.15974 8.05125,-0.33737 2.37021,-0.11743 4.74396,-0.19234 7.10595,-0.43551 1.53012,-0.16814 3.05639,-0.37329 4.5921,-0.4864 1.94977,-0.17015 3.89153,-0.41066 5.83101,-0.67239 1.98788,-0.26572 3.95963,-0.63427 5.83303,-1.37756 5.24436,-2.10708 10.21663,-4.93817 14.79855,-8.24072 1.2846,-1.13239 2.37513,-2.44139 3.41092,-3.80286 1.03282,-1.36208 2.00257,-2.77184 2.85616,-4.2543 0.75127,-1.32925 1.37876,-2.71657 1.95855,-4.12874 0.82559,-1.88485 1.67798,-3.76642 2.15911,-5.77688 0.59291,-2.28511 1.00643,-4.60759 1.30679,-6.94927 0.3694,-2.85752 0.75894,-5.71432 0.99666,-8.58659 0.18398,-2.40355 0.3337,-4.81609 0.0994,-7.22293 -0.20457,-2.385 -0.54432,-4.75794 -1.07877,-7.09297 -0.68438,-2.71916 -1.37857,-5.44368 -2.33102,-8.08368 -0.9267,-2.44777 -1.88814,-4.90495 -3.27199,-7.13752 -1.27994,-1.85023 -2.87595,-3.35148 -4.89334,-4.39064 -2.9023,-1.50158 -6.00132,-2.5549 -9.0842,-3.62124 -3.03368,-0.93411 -6.09576,-1.69319 -9.28092,-1.87148 -3.06788,-0.21618 -6.14089,-0.33497 -9.2145,-0.43641 -2.97939,-0.12758 -5.96155,-0.33963 -8.94502,-0.24815 -2.39747,0.1004 -4.79733,0.17466 -7.19662,0.0789 -3.38492,-0.13914 -6.76847,-0.31719 -10.15554,-0.39688 -3.66179,-0.0144 -7.32345,0.0474 -10.9853,0.0265 -4.93062,-0.0494 -9.85912,-0.21368 -14.783676,-0.46368 -4.01401,-0.19482 -8.035809,-0.42239 -12.055496,-0.32177 -2.591575,0.10803 -5.181902,0.25595 -7.763717,0.51097 -2.300292,0.2355 -4.594232,0.53786 -6.902447,0.69124 -1.243795,0.10274 -2.482474,0.25836 -3.726995,0.35463 -1.149858,0.12952 -2.306111,0.19114 -3.456469,0.31738 -1.424717,0.153 -2.84535,0.33807 -4.258765,0.57565 -1.71745,0.25017 -3.437715,0.50088 -5.165082,0.66679 0,0 -6.758302,4.95178 -6.758302,4.95178 z" />
    <path
       style="fill:#000000;fill-opacity:1;fill-rule:nonzero;stroke:none;stroke-width:0.264583"
       id="path94"
       d="m 55.779714,105.19847 c -0.651735,-2.77931 -0.908661,-5.643621 -1.279556,-8.472139 -0.420344,-3.345412 -0.867289,-6.687886 -1.208956,-10.042477 -0.208155,-2.136931 -0.333126,-4.280717 -0.361312,-6.427369 0.02437,-0.327404 -0.03963,-0.66249 0.0074,-0.988132 -9.857716,5.759583 -12.063338,5.585415 -5.298321,5.752442 3.983186,0.09512 7.966803,0.172415 11.951028,0.20248 3.486214,0.02003 6.971096,0.138403 10.457421,0.129987 0.855181,-0.02143 2.744647,-0.06035 3.550245,-0.117798 0.560449,-0.03996 5.947521,-0.561345 6.176484,-0.582409 4.175535,-0.384095 3.947546,-0.348842 8.359536,-0.687718 9.451682,-0.639847 18.929807,-0.524161 28.395467,-0.411189 8.26424,0.129241 16.5285,0.0254 24.79223,0.228457 2.03507,0.03088 4.06573,0.216758 6.10117,0.217549 1.59634,0.0032 3.19049,0.107759 4.78444,0.185372 1.08483,0.05185 2.16986,0.10986 3.25284,0.192823 0.47784,0.178213 -0.005,-0.425889 -0.0201,-0.327488 -0.0616,0.408599 0.0137,0.826331 0.0251,1.239388 0.0309,2.705822 -0.20709,5.405472 -0.4766,8.095043 -0.31763,3.2888 -0.67058,6.573361 -1.04457,9.856288 -0.33888,2.86414 -0.74696,5.71635 -0.82298,8.60048 0.76851,2.06328 0.0253,0.74629 4.45506,-0.85669 0,0 0.22053,-0.11004 0.22053,-0.11004 v 0 c 4.59602,-2.93244 3.72193,-1.15086 4.66144,-3.70318 0.34599,-2.84548 0.53651,-5.70262 0.82509,-8.555588 0.38046,-3.29742 0.85512,-6.585288 1.06607,-9.900308 0.19535,-2.744616 0.43896,-5.485945 0.56971,-8.23476 0.0248,-0.640394 0.25951,-2.288074 -0.72068,-2.42602 -1.15288,0.03617 -2.30753,0.03088 -3.46019,-0.0084 -1.56607,-0.06706 -3.12746,-0.19172 -4.6912,-0.296881 -2.29851,-0.05298 -4.59095,0.322617 -6.88915,0.32947 -8.44343,0.323217 -16.89084,0.378529 -25.33889,0.192624 -9.45732,-0.126407 -18.92024,-0.124669 -28.370678,0.310563 -5.752997,0.257736 -11.497607,0.699 -17.255088,0.840457 -3.562466,0.06053 -7.125785,0.107333 -10.688749,0.06556 -3.905268,-0.07012 -7.815021,-0.06571 -11.714077,-0.322271 -6.304584,-0.554379 -2.49391,-0.830543 -12.492442,5.084437 0.082,0.303491 0.08435,0.623287 0.150394,0.930378 0.307009,2.081642 0.51195,4.175308 0.739418,6.26681 0.390528,3.341523 0.871625,6.67023 1.318622,10.004549 0.357434,2.92934 0.570614,5.89519 1.187469,8.78226 0,0 9.086392,-5.03652 9.086392,-5.03652 z" />
    <path
       style="fill:#000000;fill-opacity:1;fill-rule:nonzero;stroke:none;stroke-width:0.264583"
       id="path96"
       d="m 45.702328,89.274101 c -2.268593,0.245293 -4.512252,0.663408 -6.760506,1.043459 -2.817995,1.61163 -5.90083,2.82993 -8.453983,4.834884 -0.373959,0.293664 0.563629,0.819452 0.992693,1.024364 0.188217,0.08989 2.770137,0.05216 2.927578,0.05055 1.904407,-0.01939 1.786524,-0.02561 3.690466,-0.08432 5.518883,-0.100359 5.319297,-0.228132 11.386124,-5.970032 0.362553,-0.343135 -0.974992,-0.233968 -1.472782,-0.271319 -0.734155,-0.05509 -1.472435,-0.0033 -2.208654,-0.0049 -2.044129,0.813226 -4.08826,1.626452 -6.132388,2.439681 0,0 -0.200486,0.143343 -0.200486,0.143343 v 0 c -0.4015,0.938332 -0.802999,1.876661 -1.204497,2.814992 5.405671,0.813911 3.424053,-0.01437 11.018078,-5.216527 0.224362,-0.153697 -0.490722,0.244252 -0.754507,0.310419 -0.733848,0.184082 -2.47033,0.347909 -3.141136,0.422826 -1.684509,0.05437 -3.346386,0.06157 -5.029596,-0.03444 -0.324663,-0.01852 -0.725374,-0.27891 -0.973175,-0.06833 -0.207968,0.176734 0.06459,0.542004 0.09689,0.813004 -2.706077,1.51833 -5.412155,3.03666 -8.118232,4.554987 2.147594,-0.580239 4.445064,-0.506346 6.61375,-1.022924 0,0 7.724365,-5.779704 7.724365,-5.779704 z" />
    <path
       style="fill:#000000;fill-opacity:1;fill-rule:nonzero;stroke:none;stroke-width:0.264583"
       id="path98"
       d="m 159.35976,93.159325 c 2.97733,-0.538104 6.00136,-0.708787 9.02114,-0.607288 3.80779,0.304933 0.4183,1.614046 7.82262,-5.151887 0.25802,-0.235767 -0.69897,-0.0094 -1.04842,-0.01569 -2.92886,-0.05289 -5.3e-4,-0.01027 -3.06329,-0.05101 -4.88821,-0.216088 -2.26597,-1.402191 -9.19012,5.185291 -0.29022,0.276108 0.80119,0.003 1.20169,0.01058 0.52944,0.01 1.05869,0.02811 1.58803,0.04218 2.95738,-0.047 5.9831,0.735623 8.90207,0.05877 2.76,-1.752397 5.68372,-3.270279 8.28001,-5.257189 0.33157,-0.253751 0.17266,-0.819483 0.20437,-1.235811 0.0684,-0.898011 -0.0486,-2.11188 -0.1079,-2.994411 -0.14886,-2.216867 -0.0482,-1.120431 -0.28649,-3.219027 -0.31406,-0.879514 0.0112,-1.894242 -0.25571,-2.778696 -0.94478,-3.130359 -8.36244,3.535704 -9.46,4.15939 12.42231,-7.036559 8.82075,-4.232132 4.30718,-3.676462 -2.22249,0.273614 -4.48162,0.299149 -6.7147,0.444016 -0.28507,0.0062 -2.17401,0.0775 -2.71525,0.0057 -0.0503,-0.0067 -0.0601,-0.146436 -0.0998,-0.11489 -2.34105,1.859209 -4.88215,3.515667 -6.92759,5.695874 -0.38702,0.412509 1.12865,-0.07692 1.6929,-0.116319 0.68742,-0.048 1.37474,-0.09726 2.06212,-0.145886 1.02704,-0.06985 2.87133,-0.216747 3.9432,-0.212924 0.30944,0.0011 0.61635,0.05626 0.92498,0.07846 0.0758,0.0054 0.16259,0.04318 0.22802,0.0045 1.29495,-0.765844 2.54828,-1.59997 3.82242,-2.399953 0,0 0.21745,-0.116002 0.21745,-0.116002 v 0 c 1.23658,-0.997283 2.54536,-1.911138 3.70973,-2.991847 0.10333,-0.09591 -0.2778,-0.07601 -0.4182,-0.06319 -0.44884,0.041 -0.88609,0.169487 -1.3336,0.223202 -1.63926,0.196768 -2.27794,0.180684 -3.93367,0.233961 -0.61311,5.29e-4 -1.22629,0.01114 -1.83933,0.0019 -0.47104,-0.0071 -1.0029,-0.28412 -1.41238,-0.05116 -2.95695,1.682266 -5.65679,3.780896 -8.47997,5.679115 -0.0972,0.06537 0.18679,-0.157448 0.30169,-0.180298 0.66048,-0.131336 2.43832,-0.164526 2.95526,-0.184327 2.21053,-0.01228 4.40065,-0.135528 6.60672,-0.273799 0.0406,-0.0026 2.94394,-0.161083 3.14926,-0.264821 3.05209,-1.542 5.96185,-3.350879 8.94277,-5.026319 -2.6084,1.47923 -5.14373,3.095464 -7.8252,4.43769 -0.0682,0.03416 0.0323,-0.816473 0.14104,-0.737238 0.40992,0.298701 0.41022,2.167144 0.47873,2.492984 0.0775,1.579525 0.26527,3.178836 0.18337,4.761476 -0.0223,0.431551 -0.0498,0.866936 -0.14673,1.288049 -0.0713,0.309817 -0.64544,1.012008 -0.35366,0.885767 2.47717,-1.071761 4.75921,-2.547596 7.13881,-3.821393 -0.3046,0.161449 -0.58633,0.376595 -0.9138,0.484349 -2.21864,0.730038 -5.58362,-0.01627 -7.88762,-0.138628 -0.46975,-0.05925 -0.93967,-0.117084 -1.40923,-0.177734 -0.34472,-0.04452 -0.73217,-0.310848 -1.03361,-0.137785 -11.5163,6.611906 -10.3307,5.119532 -5.3889,5.301031 1.64609,0.09457 1.31878,0.08277 2.94144,0.148767 0.34549,0.01405 0.739,0.21418 1.03663,0.03817 10.89582,-6.443636 10.51358,-5.271736 6.48599,-5.22324 -2.98365,0.05928 -5.96771,0.154056 -8.94301,0.395591 0,0 -7.10148,5.308524 -7.10148,5.308524 z" />
    <path
       style="fill:#000000;fill-opacity:1;fill-rule:nonzero;stroke:none;stroke-width:0.264583"
       id="path100"
       d="m 33.136951,90.633557 c -0.419405,-2.435577 -1.090896,-4.870347 -0.94284,-7.355142 0.114477,-0.288594 0.171468,-0.607284 0.343431,-0.86578 0.17071,-0.256611 0.441312,-0.430358 0.661969,-0.645535 -2.236951,1.361606 -4.536948,2.624666 -6.710854,4.08482 -0.421193,0.282903 0.935741,-0.400855 1.425181,-0.534583 1.227706,-0.335447 2.267405,-0.371261 3.530264,-0.485791 0.596019,-0.02103 1.19167,-0.06146 1.788059,-0.06311 0.865238,-0.0024 1.7326,0.01847 2.59366,0.103409 0.13951,0.01376 0.293997,0.180941 0.40849,0.100045 8.420357,-5.949511 10.531906,-5.907104 6.376501,-5.593694 -0.545015,0.05417 -1.089353,0.115617 -1.63504,0.162515 -0.5152,0.04428 -1.031042,0.08191 -1.547321,0.11099 -0.328665,0.01852 -0.658675,0.05492 -0.987044,0.03178 -0.06179,-0.0044 -0.09963,-0.149987 -0.148407,-0.11181 -7.807203,6.11096 -10.030942,6.095439 -5.606992,5.595575 0.08326,-0.450527 3.534807,0.04116 3.813564,-0.09792 1.189625,-0.593551 2.248731,-1.418887 3.373096,-2.12833 0,0 0.200737,-0.142996 0.200737,-0.142996 v 0 c 0.883166,-0.732047 1.922375,-1.308915 2.6495,-2.196137 0.167273,-0.2041 -0.52497,-0.05501 -0.78809,-0.07511 -1.69794,-0.129725 -0.76962,0.05487 -2.274972,-0.369091 -3.920953,-1.446419 -0.49063,-0.419695 -9.082315,5.362403 -0.09565,0.06437 0.146068,-0.201975 0.257733,-0.230661 1.256361,-0.322744 2.633559,-0.04705 3.906022,-0.1275 4.368792,-0.152085 1.452708,0.158435 9.219798,-5.782104 0.180917,-0.138372 -0.451265,0.06601 -0.678603,0.08001 -1.566429,0.09643 -3.141911,0.08952 -4.710152,0.121295 -0.971116,0.03887 -4.165293,0.08885 -4.994479,0.538396 -3.01893,1.636723 -5.979091,3.391315 -8.8384,5.293201 -0.296864,0.197461 -0.39462,0.600487 -0.522544,0.933286 -0.132136,0.343757 -0.166589,0.717473 -0.249884,1.076208 -0.01412,0.40249 -0.05564,0.80495 -0.04237,1.207466 0.07066,2.141675 0.774153,4.257132 0.488287,6.414436 0,0 8.72401,-4.410532 8.72401,-4.410532 z" />
    <path
       style="fill:#000000;fill-opacity:1;fill-rule:nonzero;stroke:none;stroke-width:0.264583"
       id="path102"
       d="m 24.354765,89.204847 c 0.443823,1.649674 1.014534,3.270625 1.306347,4.958243 0.01958,0.280263 0.08658,0.542756 0.160267,0.805117 0.01379,0.04912 -0.06408,0.140674 -0.0695,0.161248 -0.02529,0.09592 -0.02991,0.196125 -0.04487,0.294187 -0.04963,0.77157 -0.286918,1.521431 -0.314498,2.294088 0.0012,7.94e-4 0.0024,0.0019 0.0035,0.0027 1.470637,-0.770707 2.94127,-1.541417 4.411906,-2.312125 0,0 -0.222197,0.106635 -0.222197,0.106635 v 0 c 4.343403,-1.82213 3.79611,-0.328755 4.345154,-1.971521 0.217512,-0.78277 0.249629,-1.60342 0.414528,-2.397591 0.04736,-0.552815 -0.08811,-0.994547 -0.308181,-1.497301 -0.514207,-1.706634 -0.664866,-3.583355 -1.618932,-5.119121 0,0 -8.063567,4.675428 -8.063567,4.675428 z" />
    <path
       style="fill:#000000;fill-opacity:1;fill-rule:nonzero;stroke:none;stroke-width:0.264583"
       id="path104"
       d="m 36.001875,85.952644 c 1.124963,0.282368 2.298975,0.0428 3.440591,0.132524 0.417063,0.03278 0.82083,0.167616 1.236475,0.215093 0.865052,0.09881 1.35427,0.06255 2.193417,0.04307 0.172598,-0.003 0.370321,0.08066 0.517792,-0.0091 2.925731,-1.780145 6.067623,-3.299383 8.638479,-5.562018 0.515411,-0.453614 -1.39981,-0.473167 -2.045719,-0.240326 -1.851723,0.66752 -3.45028,1.895629 -5.175419,2.843443 0,0 -0.197088,0.147984 -0.197088,0.147984 v 0 c -0.609563,0.770893 -1.162836,1.589847 -1.828689,2.31268 -0.08576,0.09309 -0.06052,-0.307948 0.04557,-0.376975 2.827615,-1.839762 5.778314,-3.483642 8.638103,-5.272982 0.184764,-0.115604 -0.403601,0.164674 -0.605401,0.24701 -3.497559,0.50845 1.995866,-0.278075 -2.586096,0.324953 -0.635127,0.08359 -1.263287,0.222242 -1.901245,0.280363 -0.570402,0.05197 -2.279698,0.02471 -2.92055,0.06746 -0.321535,0.02146 -0.639244,0.08214 -0.958866,0.123219 0,0 -6.491359,4.723569 -6.491359,4.723569 z" />
    <path
       style="fill:#000000;fill-opacity:1;fill-rule:nonzero;stroke:none;stroke-width:0.264583"
       id="path106"
       d="m 54.739841,75.392557 c -0.683096,-2.984561 -0.417759,-6.153327 -0.302578,-9.190662 0.308327,-3.617711 0.717894,-7.290437 1.874597,-10.753849 0.806704,-2.415445 1.204894,-2.958492 2.384475,-5.222338 4.030226,-6.612496 10.362909,-11.293784 16.524404,-15.784544 3.336041,-2.280198 3.880816,-2.021978 0.726271,-1.656392 0,0 -0.22954,0.08975 -0.22954,0.08975 v 0 c -7.203728,3.492537 -4.391011,1.679353 -8.785346,4.85888 -4.45234,3.379079 -8.998185,6.805628 -12.776213,10.956089 -1.944024,2.135666 -2.317851,2.944257 -3.816562,5.315114 -0.430577,0.888399 -0.908444,1.755399 -1.291738,2.665201 -1.824381,4.330432 -2.370407,9.008181 -2.808605,13.643673 -0.285221,3.219712 -0.380836,6.455902 -0.01598,9.675569 0,0 8.516829,-4.596487 8.516829,-4.596487 z" />
    <path
       style="fill:#000000;fill-opacity:1;fill-rule:nonzero;stroke:none;stroke-width:0.264583"
       id="path108"
       d="m 73.423491,35.652315 c 3.195616,0.376338 6.477346,-0.0653 9.664869,-0.308078 5.772653,-0.439679 5.236387,-0.393152 11.487242,-0.838554 11.794128,-0.703729 23.611128,-0.785122 35.407158,-0.145317 6.84639,0.475879 13.67814,1.145696 20.50615,1.832588 3.64812,0.385967 7.30093,0.745628 10.93921,1.218142 2.70042,0.486971 5.45011,0.433499 8.18016,0.58796 1.69125,-0.925097 3.3825,-1.850194 5.07375,-2.775294 0,0 0.20071,-0.143029 0.20071,-0.143029 v 0 c 0.98227,-0.990372 1.96453,-1.980745 2.9468,-2.97112 -2.61562,-0.20329 -5.21518,-0.539988 -7.8273,-0.781383 -3.80717,-0.37121 -7.61799,-0.668412 -11.43671,-0.896215 -7.06453,-0.529037 -14.11916,-1.281147 -21.20818,-1.391775 -12.02721,-0.171368 -24.05335,-0.09297 -36.06868,0.535366 -6.653452,0.200287 -13.309606,0.605936 -19.967616,0.481664 0,0 -7.897563,5.595045 -7.897563,5.595045 z" />
    <path
       style="fill:#000000;fill-opacity:1;fill-rule:nonzero;stroke:none;stroke-width:0.264583"
       id="path110"
       d="m 171.14695,36.05241 c -2.3065,2.891973 -4.44032,5.919057 -6.60087,8.920575 -3.91703,5.310796 -6.10748,11.517011 -7.90826,17.793764 -1.25757,4.581086 -1.84421,9.296693 -2.1829,14.023168 -0.11131,2.098661 -0.12372,4.207303 -0.006,6.306404 0.0231,0.413689 0.0159,0.832398 0.0928,1.239531 0.0657,0.347765 0.22123,0.672372 0.33185,1.00856 2.98782,-0.324824 1.52514,-0.07305 4.38999,-0.743969 0,0 0.21648,-0.117811 0.21648,-0.117811 v 0 c 2.50948,-2.204043 1.24398,-1.03183 3.78365,-3.530476 0.2108,-2.827829 -0.38849,-5.669544 -0.14886,-8.50864 0.2264,-4.585025 0.75425,-9.163483 1.83655,-13.63183 0.69634,-2.577132 0.86754,-3.438581 1.82149,-5.994231 1.53867,-4.122155 3.6196,-8.010488 6.2797,-11.520352 3.06736,-4.097867 0.43879,-0.609505 3.37346,-4.443132 1.00905,-1.318146 1.97035,-2.69815 3.0497,-3.961628 0.15128,-0.177085 0.32513,-0.333573 0.4877,-0.500361 0,0 -8.81621,3.660428 -8.81621,3.660428 z" />
    <path
       style="fill:#000000;fill-opacity:1;fill-rule:nonzero;stroke:none;stroke-width:0.264583"
       id="path112"
       d="m 72.323181,42.198475 c -0.793972,1.207799 -0.46468,0.591277 -1.061206,2.006658 -0.244338,0.579736 -1.111491,2.043713 -0.16355,2.579566 0.278508,0.157435 0.632846,0.09442 0.949269,0.141636 1.817079,-0.622223 2.659309,-0.654822 4.398664,0.105133 2.460921,0.632989 4.818419,-0.511953 7.232705,-0.721286 0.363025,-0.03148 0.727856,0.03656 1.091782,0.05484 0.941869,0.01736 1.780985,0.250228 2.581765,0.740418 0.437356,0.267727 1.024485,0.803762 1.542854,0.91616 0.469847,0.101878 0.960554,0.04335 1.440831,0.06503 0.524377,-0.06318 1.051255,-0.108242 1.573133,-0.189527 0.546412,-0.08511 1.0825,-0.230862 1.629902,-0.309361 1.533517,-0.219906 3.030574,-0.1821 4.537824,0.140853 1.314722,0.470464 2.578966,0.806908 3.992616,0.758225 1.02059,-0.03515 2.74726,-0.356262 3.75777,-0.460296 0.58563,-0.06029 1.17481,-0.07881 1.76222,-0.118218 0.55326,0.0013 1.10654,5.8e-5 1.6598,0.0037 0.94888,0.0062 2.95957,0.04734 3.88204,-0.0019 2.31711,-0.123682 4.60685,-0.552725 6.91042,-0.812006 1.37986,-0.0552 2.79946,-0.137121 4.08524,0.466092 0.49008,0.22992 1.20024,0.811827 1.69459,1.035455 0.3154,0.142682 0.65943,0.210934 0.98915,0.316399 2.30593,0.218591 4.30782,-1.120044 6.4676,-1.704453 0.26638,-0.0388 0.53097,-0.09303 0.79914,-0.116396 1.28106,-0.111614 0.41531,0.06204 1.80511,-0.02809 1.66736,-0.108135 3.28698,-0.519673 4.91007,-0.887378 0.15131,-0.02831 3.08886,-0.567013 3.24835,-0.639548 1.57126,-0.714608 3.03475,-1.645738 4.55212,-2.468605 0,0 0.19942,-0.14482 0.19942,-0.14482 v 0 c 0.68358,-0.824854 1.75894,-1.443776 2.05074,-2.47456 0.29088,-1.027497 -3.96528,1.515718 -3.16517,0.494876 -1.48594,0.312402 -3.01073,0.724982 -4.53031,0.844471 -0.71996,0.05661 -1.09352,-0.04824 -1.80331,-0.06436 -0.29668,-0.0067 -0.5934,0.01156 -0.8901,0.01733 -0.32403,0.06389 -0.6544,0.101336 -0.97207,0.191662 -1.74341,0.495736 -3.29797,1.584867 -5.11697,1.834152 -1.27612,-0.388178 -1.33155,-0.785421 -2.40335,-1.432639 -1.80161,-1.087914 -3.14389,-0.693148 -5.13971,-0.330269 -2.28906,0.453176 -4.57885,0.898845 -6.91917,0.985414 -1.67485,0.06196 -2.00778,-0.08276 -3.64789,-0.158811 -0.57858,-0.02683 -1.15817,-0.02326 -1.73726,-0.03487 -0.63903,0.04761 -1.28133,0.06261 -1.91709,0.14283 -2.65656,0.335219 -4.65651,1.061444 -7.22075,-0.215329 -0.36666,-0.129019 -0.72009,-0.304768 -1.09998,-0.387059 -2.48876,-0.539107 -4.854611,1.004763 -7.32933,1.023414 -0.252497,-0.03845 -0.515943,-0.03236 -0.757492,-0.115351 -0.557802,-0.191656 -0.866497,-0.574122 -1.296678,-0.950989 -1.163235,-1.019069 -1.759574,-1.267073 -3.374734,-1.003554 -1.77991,0.495761 -3.555656,1.012357 -5.371637,1.36339 -0.775012,0.149813 -1.502219,0.330145 -2.288825,0.177776 -0.242208,-0.04692 -0.46001,-0.178477 -0.690015,-0.267716 -0.638268,-0.295084 -1.552538,-0.961035 -2.215854,-0.991851 -0.948383,-0.04406 -1.846447,0.431734 -2.719355,0.715523 -0.399169,0.346231 -0.544508,0.497626 -0.573366,0.400347 -0.30281,-1.020816 1.120688,-2.695652 1.653045,-3.457811 0,0 -6.992998,2.96576 -6.992998,2.96576 z" />
    <path
       style="fill:#000000;fill-opacity:1;fill-rule:nonzero;stroke:none;stroke-width:0.264583"
       id="path114"
       d="m 65.915711,56.694008 c 0.818629,-0.391183 1.579671,0.120219 2.303979,0.496885 1.775428,0.923288 0.320225,0.208894 2.225066,1.117227 1.746186,0.898583 3.596259,0.775108 5.483439,0.802982 1.053677,0.01556 1.158169,0.0675 2.169822,0.227515 1.39592,0.396557 2.452772,1.517422 3.882752,1.830707 1.172779,0.256935 1.463074,0.06289 2.661706,-0.169939 1.657358,-0.459835 3.177333,-1.427033 4.908804,-1.627002 0.917763,-0.105992 1.521761,-0.0019 2.44847,0.07906 2.454592,0.414446 4.869706,-0.05755 7.291596,-0.411668 1.487575,-0.217508 1.935885,-0.240336 3.399965,-0.375711 3.45691,0.07939 6.83579,-0.442052 10.18329,-1.251582 1.63969,-0.496612 3.29919,-0.989687 5.02659,-1.021413 1.48457,-0.02727 2.99253,0.311578 4.46028,0.488778 3.72649,0.250409 7.42319,-0.393298 11.14658,-0.348181 1.99845,0.117864 3.92806,0.751408 5.94195,0.722762 0.65891,-0.0094 1.35336,0.07537 1.97086,-0.154712 1.80975,-0.674307 3.47713,-1.681983 5.2157,-2.522975 0,0 0.19977,-0.14434 0.19977,-0.14434 v 0 c 0.61626,-0.870506 1.70038,-1.555327 1.84879,-2.611517 0.0681,-0.484701 -0.97239,-0.115824 -1.46055,-0.151506 -0.51803,-0.03786 -1.03919,-0.02482 -1.55672,-0.06904 -1.51694,-0.129598 -2.97762,-0.577072 -4.50507,-0.617945 -3.68989,-0.03284 -7.34576,0.542793 -11.03457,0.396658 -0.54531,-0.06654 -1.09306,-0.115408 -1.63591,-0.199612 -0.9494,-0.147265 -2.02308,-0.46563 -3.00025,-0.4352 -1.85271,0.05769 -3.59305,0.808588 -5.39291,1.150041 -3.28808,0.812045 -6.60887,1.430223 -10.01509,1.284874 -0.59017,0.06346 -1.18378,0.10055 -1.77052,0.190371 -2.91349,0.446016 -5.81451,1.339884 -8.785663,0.752276 -0.54673,-0.08706 -1.961788,-0.337148 -2.539569,-0.334864 -1.792975,0.0071 -3.377454,0.992068 -5.008136,1.594905 -0.834644,0.277368 -1.29916,0.537766 -2.181395,0.461868 -1.524436,-0.131152 -2.5679,-1.401347 -3.934544,-1.929212 -0.406961,-0.0873 -0.805408,-0.237022 -1.22088,-0.261903 -0.483974,-0.02898 -0.968264,0.0562 -1.450941,0.101909 -1.821889,0.172538 -3.573222,0.457338 -5.302898,-0.368398 -1.087083,-0.509029 -1.11148,-0.479203 -2.104202,-1.099375 -0.873766,-0.54586 -1.662899,-1.297205 -2.766452,-1.211834 0,0 -7.103139,5.619101 -7.103139,5.619101 z" />
    <path
       style="fill:#000000;fill-opacity:1;fill-rule:nonzero;stroke:none;stroke-width:0.264583"
       id="path116"
       d="m 66.377766,70.288559 c -0.389993,0.664573 -0.661667,1.389523 -1.028075,2.066068 -1.594856,2.944791 -9.781538,5.113792 8.413469,-3.691636 0.05656,-0.157551 0.325845,-0.938633 0.420026,-1.07455 0.09717,-0.140237 0.254625,-0.227158 0.381939,-0.340735 -2.619446,1.569489 -5.248484,3.123078 -7.858339,4.708466 -0.05484,0.03331 0.130911,-0.08028 0.186399,-0.04806 0.209114,0.121423 0.365657,0.316513 0.548484,0.474771 2.235846,1.743599 3.891259,0.878959 6.440226,0.383477 2.246682,-0.436724 1.739714,-0.337447 3.911052,-0.515485 2.289453,-0.175028 4.386559,0.979373 6.648635,1.042775 1.871353,0.05245 2.692818,-0.259294 4.543113,-0.670628 2.286735,-0.737847 4.584697,-1.3203 6.991207,-1.44647 2.133097,-0.111834 2.4223,0.09757 4.577048,-0.09777 0.83372,-0.07558 1.65725,-0.238186 2.48588,-0.35728 3.76472,-0.621162 7.21787,-2.706968 11.07148,-2.877643 0.45118,-0.01998 0.90224,0.04274 1.35337,0.06412 1.94681,0.38255 3.82016,0.990451 5.83358,0.812987 0.47248,-0.04165 3.13368,-0.523499 3.65692,-0.616291 1.28845,-0.234352 2.45322,-0.149997 3.6602,0.334725 0.87138,0.349943 1.29583,0.664397 2.2131,0.93554 0.42946,0.126944 0.87661,0.183689 1.31492,0.275537 2.53968,0.170421 5.04849,-0.353597 7.59291,-0.301255 2.8802,-0.214476 0.77951,0.101386 5.74469,-2.759091 0,0 0.1998,-0.144309 0.1998,-0.144309 v 0 c 3.07073,-2.906008 4.16523,-2.410618 2.12129,-2.913766 -0.98829,-0.04746 -1.21271,-0.09266 -2.24291,0.01371 -1.88893,0.19504 -3.74594,0.726434 -5.66033,0.666678 -1.13432,-0.142748 -1.27362,-0.0857 -2.33901,-0.514334 -0.78956,-0.317656 -1.45201,-0.809863 -2.28967,-1.021882 -1.24459,-0.315015 -1.79531,-0.146529 -3.0777,-0.02891 -1.56939,0.285687 -3.17319,0.669147 -4.78175,0.590791 -1.44229,-0.07026 -2.79514,-0.579088 -4.19033,-0.892318 -0.52506,-0.03883 -1.04899,-0.134032 -1.5752,-0.116506 -3.85431,0.128367 -7.51441,2.332773 -11.28417,2.998141 -0.78989,0.133173 -1.57345,0.311762 -2.36966,0.399516 -2.22258,0.244957 -2.43982,0.02923 -4.67269,0.118271 -2.35062,0.09373 -2.62101,0.164529 -4.896037,0.765342 -0.771713,0.203801 -1.53189,0.449022 -2.297832,0.673531 -1.576014,0.380069 -2.463027,0.698424 -4.068236,0.71033 -2.358792,0.01749 -4.472678,-1.250392 -6.843254,-1.131303 -2.481938,0.220051 -1.716781,0.07735 -4.254207,0.623353 -0.708239,0.152397 -1.409885,0.334314 -2.117661,0.48885 -1.480934,0.323347 -2.159066,0.59405 -3.397353,-0.354196 -0.03306,-0.0434 -1.013738,-1.355759 -1.073508,-1.328412 -7.651837,3.501038 -7.287016,2.357277 -9.238961,6.435043 2.853232,-1.207323 5.706467,-2.414649 8.559699,-3.621971 -0.205732,-0.05377 -0.121015,-0.0082 0.105802,-0.436841 0.402394,-0.760476 0.933593,-1.444035 1.356683,-2.192184 0,0 -8.775039,3.911807 -8.775039,3.911807 z" />
    <path
       style="fill:#000000;fill-opacity:1;fill-rule:nonzero;stroke:none;stroke-width:0.264583"
       id="path118"
       d="m 40.117855,129.50487 c -0.131792,0.24473 -0.308875,0.47003 -0.395372,0.73419 -0.653817,1.99676 -0.238774,4.88345 0.795872,6.68384 0.306657,0.53362 0.762214,0.96652 1.143322,1.44978 0.5484,0.28554 1.046517,0.70218 1.645203,0.85662 1.184939,0.30569 2.711252,0.0607 3.758303,-0.56011 2.043957,-1.21197 9.222447,-3.57687 10.146723,-7.8428 0.142584,-0.65809 -0.01069,-1.34668 -0.01606,-2.02002 -0.620217,-1.01592 -1.353507,-2.99114 -3.128467,-2.64673 -1.954697,0.37929 -3.665906,1.55563 -5.498857,2.33344 0,0 -0.199318,0.14497 -0.199318,0.14497 v 0 c -0.539253,0.77138 -1.487554,1.38202 -1.617761,2.31415 -0.134284,0.96134 2.78769,0.57941 1.971982,2.14269 -0.03769,0.54029 0.0459,1.10313 -0.113083,1.62088 -0.171714,0.55921 -1.414827,1.70283 -0.855194,1.53249 2.298187,-0.69955 4.277021,-2.18991 6.441136,-3.23281 0.585128,-0.28197 -1.089745,0.73181 -1.701906,0.94895 -0.553543,0.19634 -1.154004,0.2962 -1.740847,0.2722 -0.532435,-0.0218 -1.030706,-0.2711 -1.546059,-0.40664 -0.366212,-0.39212 -0.798031,-0.73193 -1.098637,-1.17634 -1.358276,-2.00806 -1.229627,-4.6302 0.05249,-6.62065 0,0 -8.043476,3.4719 -8.043476,3.4719 z" />
    <path
       style="fill:#000000;fill-opacity:1;fill-rule:nonzero;stroke:none;stroke-width:0.264583"
       id="path120"
       d="m 58.013179,127.21645 c -0.147029,0.20397 -0.358439,0.37445 -0.441082,0.61192 -0.670325,1.92618 -0.08468,4.5375 1.346798,5.96805 0.45104,0.45075 1.040818,0.73698 1.561227,1.10547 0.666721,0.12676 1.321832,0.40146 2.000165,0.38027 0.730618,-0.0228 1.489218,-0.16305 2.132944,-0.50937 3.261405,-1.75465 6.465157,-3.63732 9.505429,-5.75209 1.110805,-0.77267 1.867746,-2.51951 1.854393,-3.84703 -0.0062,-0.615 -0.326157,-1.18604 -0.489233,-1.77907 -2.520633,-2.63916 -0.661496,-1.46778 -6.55301,0.71751 0,0 -0.203155,0.13954 -0.203155,0.13954 v 0 c -2.794555,3.06236 -3.287786,1.78308 -1.718752,3.73689 0.293889,1.21722 0.606005,1.61234 -0.0465,2.86417 -0.295191,0.56632 -1.806438,1.69627 -1.20114,1.49263 2.1267,-0.71546 4.018465,-2.00172 5.975736,-3.09891 1.066658,-0.59793 -4.170894,2.20653 -3.595213,0.72941 -0.466104,-0.26267 -1.000054,-0.43074 -1.39831,-0.788 -1.379458,-1.23748 -1.510848,-3.59451 -0.391012,-5.02462 0.141481,-0.18069 0.360746,-0.28375 0.541118,-0.42562 0,0 -8.880403,3.47885 -8.880403,3.47885 z" />
    <path
       style="fill:#000000;fill-opacity:1;fill-rule:nonzero;stroke:none;stroke-width:0.264583"
       id="path122"
       d="m 86.811055,124.70025 c -3.744785,1.68324 -10.781688,3.1818 -9.854845,8.22965 0.0861,0.46892 0.221588,0.94649 0.479396,1.34753 0.264644,0.41167 0.698616,0.68555 1.047927,1.02833 0.461542,0.14949 0.902319,0.39605 1.384628,0.44846 0.461547,0.0502 0.975858,0.072 1.384959,-0.14751 3.218452,-1.72675 6.420543,-3.51879 9.396177,-5.63674 0.449741,-0.32011 0.5745,-0.97401 0.658259,-1.51966 0.244491,-1.59267 -0.334769,-2.12248 -1.054663,-3.43835 -2.872394,-2.39846 -0.889527,-1.46976 -6.556888,0.39438 0,0 -0.204984,0.13684 -0.204984,0.13684 v 0 c -2.684084,3.18886 -2.950988,1.73428 -1.566711,4.15077 0.312401,1.02123 0.712179,1.7326 0.385246,2.82038 -0.121944,0.40574 -1.054957,1.24753 -0.664316,1.08356 2.504258,-1.05118 4.809384,-2.52532 7.19437,-3.8246 0.404993,-0.22063 -0.803775,0.48144 -1.252569,0.58766 -0.368728,0.0873 -0.757687,-0.0148 -1.136531,-0.0222 -0.27192,-0.18938 -0.627642,-0.29534 -0.815763,-0.56813 -0.391359,-0.56749 -0.360426,-1.53203 -0.114731,-2.13288 0.132434,-0.32387 0.926891,-1.00618 0.612587,-0.85241 -1.963177,0.96044 -10.358049,5.90674 -6.932824,3.89048 0,0 7.611276,-5.97553 7.611276,-5.97553 z" />
    <path
       style="fill:#000000;fill-opacity:1;fill-rule:nonzero;stroke:none;stroke-width:0.264583"
       id="path124"
       d="m 105.40572,122.45671 c -4.42152,-1.50308 -12.155177,3.26752 -11.868864,8.14959 0.03234,0.55141 0.265629,1.0723 0.398444,1.60845 0.362712,0.44077 0.619281,0.99672 1.088136,1.32232 0.509175,0.3536 1.127138,0.58742 1.744393,0.64474 0.669184,0.0621 1.397349,0.0115 1.994109,-0.29756 3.309512,-1.71424 6.563472,-3.56842 9.611292,-5.71372 0.53838,-0.37896 0.83711,-1.07965 0.95914,-1.72662 0.11277,-0.59787 -0.1958,-1.20096 -0.2937,-1.80144 -3.42249,-1.01564 -1.47976,-0.79646 -5.86476,-0.0696 0,0 -0.20869,0.13112 -0.20869,0.13112 v 0 c -1.77474,2.88983 -1.12951,1.47514 -2.08594,4.17228 -0.0209,0.4383 0.10063,0.90762 -0.0627,1.3149 -0.21204,0.52881 -1.550494,1.57133 -1.015774,1.37465 2.242674,-0.8249 4.273564,-2.14497 6.345684,-3.3351 0.50949,-0.29263 -1.06297,0.54988 -1.64434,0.63487 -1.40252,0.20504 -1.42759,-0.24135 -2.19476,-1.13016 -0.18396,-1.25092 -0.3943,-1.41264 0.2272,-2.63768 0.20474,-0.40358 1.23772,-1.25956 0.82215,-1.0804 -2.61296,1.1265 -5.03401,2.65422 -7.551012,3.98133 0.258209,-0.0549 0.510661,-0.16156 0.774633,-0.1648 0.217636,-0.003 0.424059,0.0983 0.63609,0.14746 0,0 8.189259,-5.52459 8.189259,-5.52459 z" />
    <path
       style="fill:#000000;fill-opacity:1;fill-rule:nonzero;stroke:none;stroke-width:0.264583"
       id="path126"
       d="m 125.32673,124.25028 c -0.26242,-0.0311 -0.52363,-0.11131 -0.78725,-0.0932 -0.35114,0.0242 -0.72725,0.0442 -1.03306,0.21846 -3.23267,1.8418 -6.48837,3.66669 -9.53478,5.80253 -0.4751,0.33309 -0.39388,1.97893 -0.15463,2.34251 0.29114,0.44244 0.83611,0.65034 1.25417,0.97551 0.54091,0.0371 1.08606,0.18847 1.62271,0.11132 0.52233,-0.0751 1.03629,-0.27456 1.48165,-0.55761 1.04379,-0.66339 11.58001,-3.56895 8.70416,-7.80787 -0.31394,-0.46274 -0.74031,-1.04091 -1.29912,-1.06133 -1.25049,-0.0457 -2.43282,0.58703 -3.64923,0.88054 -0.85555,0.27256 -1.7111,0.54512 -2.56665,0.81767 0,0 -0.20133,0.14216 -0.20133,0.14216 v 0 c -0.1271,0.37161 -0.25421,0.74321 -0.38131,1.11481 -0.45196,0.67042 -1.14898,1.22964 -1.35589,2.01126 -0.0929,0.35102 0.43467,0.58949 0.57926,0.92258 1.44263,3.32326 -7.62832,4.25926 7.90082,-3.23316 0.81308,-0.39229 -2.73064,2.01316 -2.43258,1.19059 -0.71117,-0.12874 -1.01467,0.0574 -0.61634,-0.92653 0.1187,-0.29322 0.83491,-0.91167 0.55062,-0.77293 -2.72556,1.33013 -5.29821,2.95347 -7.96779,4.39266 -0.25501,0.13747 0.45358,-0.37363 0.72072,-0.48573 0.19601,-0.0822 0.4216,-0.0547 0.6324,-0.0821 0,0 8.53345,-5.90218 8.53345,-5.90218 z" />
    <path
       style="fill:#000000;fill-opacity:1;fill-rule:nonzero;stroke:none;stroke-width:0.264583"
       id="path128"
       d="m 140.42552,123.67767 c -3.89289,1.44363 -2.39021,0.83873 -9.85509,5.57417 -0.56637,0.35928 -1.12668,1.56006 -1.02843,2.21543 0.17561,1.17145 1.01,1.6824 1.79339,2.39531 0.43801,0.17809 0.84962,0.44538 1.31402,0.53426 0.43755,0.0838 0.943,0.18235 1.33622,-0.0271 3.29157,-1.7528 6.55348,-3.60017 9.57634,-5.78401 0.46427,-0.33541 0.33597,-2.16019 -0.0264,-2.53171 -0.31407,-0.32201 -0.84895,-0.29765 -1.27343,-0.44647 -1.17014,0.4301 -2.34027,0.86021 -3.51041,1.29032 0,0 -0.21055,0.12811 -0.21055,0.12811 v 0 c -0.90615,0.71129 -1.8123,1.42258 -2.71845,2.13388 -1.78292,2.95397 0.13906,-0.46122 -1.03999,2.30406 -0.14489,0.33983 -0.89903,1.10382 -0.56039,0.95617 2.69232,-1.17384 5.19599,-2.74 7.79399,-4.11 -0.39749,0.14519 -0.77325,0.37784 -1.19247,0.43555 -0.43247,0.0595 -0.87096,-0.061 -1.30644,-0.0915 -0.41784,-0.2031 -1.44523,-0.44458 -1.39305,-1.20446 0.0677,-0.98631 1.84589,-1.92674 1.34309,-1.66278 -2.23856,1.17521 -10.34202,5.74903 -6.58642,3.7616 0,0 7.54447,-5.87083 7.54447,-5.87083 z" />
    <path
       style="fill:#000000;fill-opacity:1;fill-rule:nonzero;stroke:none;stroke-width:0.264583"
       id="path130"
       d="m 158.00552,121.09988 c -3.30348,1.85859 -11.45939,3.86077 -8.67875,8.90998 0.65757,1.19405 1.50034,1.95746 2.80513,2.39635 0.55853,0.18787 1.16903,0.14955 1.75355,0.22432 4.68577,-1.14395 3.64676,-0.72292 10.77461,-6.27053 0.3004,-0.2338 0.0974,-1.1126 -0.28317,-1.10632 -1.51011,0.0249 -2.91583,0.7888 -4.37375,1.18319 0,0 -0.21441,0.12155 -0.21441,0.12155 v 0 c -1.21309,0.90794 -2.48857,1.73799 -3.63927,2.72381 -0.27785,0.23805 -0.94114,1.06412 -0.60733,0.91432 1.29017,-0.57893 11.38329,-6.12054 6.33884,-3.35441 -0.54826,0.0556 -1.096,0.21693 -1.64478,0.16668 -1.44629,-0.13241 -2.97173,-1.19288 -2.81685,-2.8341 0.2975,-3.15223 10.58639,-6.48255 -7.36321,2.99133 0,0 7.94939,-6.06617 7.94939,-6.06617 z" />
    <path
       style="fill:#000000;fill-opacity:1;fill-rule:nonzero;stroke:none;stroke-width:0.264583"
       id="path132"
       d="m 174.07273,127.74773 c -0.43236,0.0635 -11.04549,2.81882 -9.07292,7.03251 0.43922,0.93825 1.00899,1.29959 1.93403,1.60342 22.86451,2.39554 10.27398,-6.47891 7.21738,-5.90908 -1.42665,0.26596 -2.72758,0.99226 -4.09137,1.48839 0,0 -0.20471,0.13723 -0.20471,0.13723 v 0 c -0.69436,0.76163 -1.31538,1.59723 -2.08307,2.28488 -2.16761,1.94163 -16.75671,1.612 7.61034,-4.27775 -0.17016,0.11978 -0.30836,0.30984 -0.51048,0.35933 -0.3248,0.0796 -0.82874,-0.0678 -0.97972,-0.40961 -0.20881,-0.47273 0.42161,-0.80897 0.36104,-0.77676 -2.82924,1.50459 -5.6103,3.09808 -8.41545,4.64711 0,0 8.23493,-6.17967 8.23493,-6.17967 z" />
    <path
       style="fill:#000000;fill-opacity:1;fill-rule:nonzero;stroke:none;stroke-width:0.264583"
       id="path134"
       d="m 40.696012,146.35465 c -0.372314,1.44493 -1.054492,4.58023 0.04831,5.81554 0.24474,0.27415 0.637069,0.36655 0.955604,0.54982 4.400441,-0.95481 2.636499,-0.43098 10.051325,-6.01799 0.381966,-0.2878 0.648909,-0.87455 0.523168,-1.33598 -0.309766,-1.13674 -2.337395,-0.1948 -3.962214,0.22855 0,0 -0.218665,0.11371 -0.218665,0.11371 v 0 c -1.912702,1.35708 -2.913034,1.82433 -4.306708,3.49681 -0.291293,0.34957 -1.146765,1.32896 -0.725855,1.1561 5.786588,-2.37642 9.335881,-5.85755 6.365695,-3.05418 -0.224885,0.0887 -0.443751,0.33786 -0.674656,0.26623 -0.240784,-0.0747 -0.363974,-0.37358 -0.443034,-0.61297 -0.493588,-1.49453 0.326771,-3.14469 0.854895,-4.49651 0,0 -8.46787,3.89087 -8.46787,3.89087 z" />
    <path
       style="fill:#000000;fill-opacity:1;fill-rule:nonzero;stroke:none;stroke-width:0.264583"
       id="path136"
       d="m 66.456975,139.89339 c -3.155569,0.83506 -10.252618,3.09211 -9.491351,7.43453 0.07187,0.40997 0.202925,0.82346 0.429977,1.17229 0.220512,0.33879 0.585142,0.55786 0.877711,0.83679 0.407984,0.0979 0.804648,0.3083 1.223954,0.29364 0.469966,-0.0164 0.951063,-0.14742 1.357522,-0.38392 3.04406,-1.77117 6.092454,-3.55622 8.950682,-5.61385 0.394107,-0.28372 0.53404,-0.83098 0.655002,-1.30128 0.09277,-0.36067 0.339193,-1.10718 -0.03309,-1.11673 -1.315559,-0.0338 -2.542985,0.67864 -3.814477,1.01796 0,0 -0.216924,0.11699 -0.216924,0.11699 v 0 c -1.159018,0.81173 -2.407391,1.50889 -3.477053,2.4352 -0.337447,0.29223 -0.419354,0.79039 -0.67237,1.15816 -2.025637,2.94433 -3.745227,2.35134 5.770274,-2.39439 0.417766,-0.20835 -0.72993,0.59981 -1.155944,0.79074 -0.309615,0.13876 -0.668287,0.11773 -1.002432,0.17659 -0.249885,-0.1096 -0.55472,-0.13787 -0.74966,-0.32879 -0.460718,-0.45124 -0.428143,-1.13528 -0.177514,-1.66936 0.139015,-0.29623 0.910495,-0.90776 0.616585,-0.76389 -2.090084,1.0231 -9.553122,5.23414 -6.083077,3.42533 0,0 6.992186,-5.28601 6.992185,-5.28601 z" />
    <path
       style="fill:#000000;fill-opacity:1;fill-rule:nonzero;stroke:none;stroke-width:0.264583"
       id="path138"
       d="m 86.223966,139.23073 c -2.937843,1.71133 -5.944682,3.30936 -8.813525,5.13399 -0.265321,0.16875 -0.377666,0.50867 -0.508129,0.79476 -0.442513,0.97039 -0.43738,2.22124 0.653671,2.80409 0.350383,0.18717 0.778476,0.15871 1.167715,0.23807 0.420045,-0.12583 0.88088,-0.15739 1.260136,-0.37747 3.034036,-1.76065 6.098606,-3.49372 8.944682,-5.54436 1.394748,-1.00494 -0.315016,-3.35944 -1.890491,-2.80076 -1.705538,0.60481 -3.163723,1.75769 -4.745585,2.63654 0,0 -0.196106,0.14928 -0.196106,0.14928 v 0 c -3.44337,3.37294 -2.693387,1.37835 -1.509623,2.28201 0.121701,0.0929 0.296961,0.22779 0.262448,0.37696 -0.07802,0.33721 -0.868897,1.02033 -0.553016,0.87885 4.227608,-1.89356 9.579404,-5.49376 5.974916,-3.09785 -0.411742,0.14499 -1.525558,0.61299 -1.170032,-0.46905 0.863764,-2.62887 11.908255,-6.75843 -6.440371,2.92842 0,0 7.56331,-5.93348 7.56331,-5.93348 z" />
    <path
       style="fill:#000000;fill-opacity:1;fill-rule:nonzero;stroke:none;stroke-width:0.264583"
       id="path140"
       d="m 95.386606,143.25039 c -0.941123,1.54926 -1.683332,3.32591 -0.57902,5.03199 0.836933,1.293 1.522781,1.37913 2.842535,1.98433 0.576028,0.0542 1.150594,0.19803 1.728079,0.16259 0.523026,-0.0321 1.07875,-0.0955 1.52967,-0.36248 3.02993,-1.79367 6.15844,-3.49932 8.84282,-5.77787 0.90205,-0.76567 -1.45607,-2.38569 -1.59631,-2.40598 -0.88147,-0.12749 -1.75945,0.27809 -2.63917,0.41714 -1.163,0.55161 -2.326,1.10322 -3.489,1.65483 0,0 -0.1989,0.14554 -0.1989,0.14554 v 0 c -0.41833,0.52642 -0.83665,1.05285 -1.25498,1.57927 -0.53786,2.1213 -0.41477,0.29081 0.33893,1.71427 0.10628,0.20073 0.0393,0.45257 0.0589,0.67886 2.45196,-1.265 4.90393,-2.53 7.35589,-3.795 0.46406,-0.24247 -0.90681,0.54976 -1.41151,0.68911 -0.49575,0.13688 -1.0252,0.0835 -1.5378,0.12521 -1.03167,-0.34589 -1.69218,-0.35516 -2.31395,-1.35516 -0.93004,-1.49577 0.38057,-3.20125 1.51775,-4.07784 0,0 -9.193954,3.59119 -9.193954,3.59119 z" />
    <path
       style="fill:#000000;fill-opacity:1;fill-rule:nonzero;stroke:none;stroke-width:0.264583"
       id="path142"
       d="m 113.24449,144.53245 c -0.45524,1.4229 -0.69278,3.32439 0.76738,4.30717 1.11052,0.74747 1.76074,0.44233 2.99321,0.30842 4.21541,-1.90696 5.37482,-2.33768 10.74758,-6.75699 0.62734,-0.51602 -0.49996,-2.53485 -1.17563,-2.41777 -1.71626,0.29737 -3.22008,1.32929 -4.83012,1.99394 0,0 -0.20442,0.13767 -0.20442,0.13767 v 0 c -0.99503,0.89355 -2.14239,1.6422 -2.98508,2.68065 -0.14997,0.18482 0.24366,0.42298 0.27509,0.6589 0.0333,0.25003 -0.31937,0.85022 -0.0872,0.75168 4.90768,-2.08255 10.10754,-5.76168 5.87815,-2.83773 -0.70682,0.24913 -1.53409,0.71473 -2.34001,0.44804 -1.40254,-0.46413 -0.32841,-2.56823 0.17334,-3.27252 0,0 -9.21232,3.99854 -9.21232,3.99854 z" />
    <path
       style="fill:#000000;fill-opacity:1;fill-rule:nonzero;stroke:none;stroke-width:0.264583"
       id="path144"
       d="m 147.05966,137.27878 c -0.96029,-0.16652 -1.98764,-0.20717 -2.86213,0.33026 -1.3431,0.82542 -9.58546,2.94859 -9.38269,7.18683 0.0207,0.43262 0.20872,0.8407 0.31309,1.26105 0.31936,0.33184 0.57499,0.73988 0.95808,0.99552 3.45552,2.30592 9.7492,-3.92686 10.65824,-4.84731 0.89243,-0.90363 -2.40762,0.80951 -3.61143,1.21427 0,0 -0.21331,0.12346 -0.21331,0.12346 v 0 c -8.63381,5.20359 2.58431,-1.56314 3.92663,-2.32934 0.21108,-0.12049 -0.31903,0.38409 -0.53519,0.49525 -0.86533,0.44498 -1.83935,0.42319 -2.56019,-0.23549 -0.0207,-0.29333 -0.12467,-0.59268 -0.062,-0.87999 0.0731,-0.33522 0.76803,-1.06388 0.45512,-0.92318 -2.66622,1.19888 -5.10812,2.84671 -7.70754,4.18426 -0.3013,0.15504 0.49574,-0.47691 0.79847,-0.62913 0.24012,-0.12073 0.52107,-0.1414 0.78844,-0.16875 0.18802,-0.0192 0.37746,0.0201 0.5662,0.0302 0,0 8.47025,-5.80793 8.47025,-5.80793 z" />
    <path
       style="fill:#000000;fill-opacity:1;fill-rule:nonzero;stroke:none;stroke-width:0.264583"
       id="path146"
       d="m 155.43166,145.27666 c 1.05807,0.89867 2.25429,1.70834 3.71415,1.59734 0.33595,-0.0255 0.6914,-0.0636 0.98416,-0.2303 3.14309,-1.79009 6.18932,-3.74516 9.28398,-5.61774 -3.51588,0.62886 -1.92517,0.38817 -4.76492,0.76812 0,0 -0.21204,0.12563 -0.21204,0.12563 v 0 c -1.97063,2.05019 -0.6684,0.94297 -4.2519,2.86656 2.6825,-1.50554 5.3591,-3.02163 8.04748,-4.51663 0.2748,-0.15282 -0.51554,0.36976 -0.80617,0.48977 -1.03882,0.42897 -2.30672,0.22323 -3.12993,-0.5332 0,0 -8.86481,5.05045 -8.86481,5.05045 z" />
    <path
       style="fill:#000000;fill-opacity:1;fill-rule:nonzero;stroke:none;stroke-width:0.264583"
       id="path148"
       d="m 66.550087,167.16181 c -0.11648,3.16449 -0.384763,6.32184 -0.64075,9.47756 0.08303,0.82379 -0.574873,3.11401 -0.204679,3.88468 0.08312,0.17304 0.228696,0.30838 0.343046,0.46257 0.930502,0.64028 2.062586,0.27201 3.094328,0.10268 2.536817,-0.41637 0.861672,-0.15654 3.820311,-0.59229 4.877663,-0.64308 9.786943,-0.98254 14.701787,-1.14906 4.65374,-0.097 9.309452,-0.0763 13.96384,-0.0399 4.62448,0.0866 9.24644,-0.0292 13.86452,-0.26623 5.00054,-0.27104 10.00952,-0.30948 15.01495,-0.1924 1.75279,0.0536 3.50569,0.14016 5.24712,0.35191 0.28573,0.13695 0.98999,-0.0368 1.17535,0.25839 2.50045,3.04841 0.36203,0.56908 9.37769,-6.03163 0.0205,-0.015 -0.24479,-0.57773 -0.33691,-0.98214 -0.15272,-0.67037 -0.14384,-1.15511 -0.1839,-1.86112 -0.0315,-2.97773 -0.32738,-5.93993 -0.43176,-8.91496 -0.0916,-1.85249 0.0291,-3.74763 -0.25801,-5.58642 -0.4412,-1.36145 -1.84204,-1.22796 -3.02197,-1.2212 -2.86568,0.14303 -5.71828,-0.12472 -8.55831,-0.47348 -4.09885,-0.63812 -8.21931,-1.09357 -12.34935,-1.47043 -3.75803,-0.32771 -7.52715,-0.49335 -11.29156,-0.72727 -3.09835,-0.25234 -6.20223,-0.36534 -9.30916,-0.42712 -2.650775,-0.0865 -5.298762,0.0385 -7.941698,0.23024 -2.781689,0.28707 -5.566957,0.53376 -8.353652,0.76653 -1.79438,0.15018 -3.589658,0.28996 -5.377159,0.50948 -1.003168,0.14083 -2.004973,0.29398 -3.000568,0.48147 -4.329909,0.86371 -4.021492,1.91413 -10.692323,5.83302 -0.299193,0.39722 -0.350753,0.89608 -0.443812,1.37079 -0.366236,2.9155 1.811486,1.36468 4.42074,0.91504 0,0 0.22075,-0.10959 0.22075,-0.10959 v 0 c 3.470598,-2.77639 4.189701,-2.37482 5.207619,-5.44946 0.181129,-0.38787 0.401122,-0.63358 0.809572,-0.78715 -3.082464,1.79653 -6.15501,3.61019 -9.247396,5.3896 -0.04732,0.0272 0.06338,-0.0897 0.10269,-0.1276 0.219006,-0.21109 0.547963,-0.28428 0.8279,-0.36931 1.001072,-0.2234 2.012465,-0.40104 3.021557,-0.58349 1.82961,-0.28992 3.674324,-0.46696 5.514509,-0.67532 2.751514,-0.28108 5.50899,-0.48646 8.264591,-0.72155 2.665701,-0.21859 5.335408,-0.45258 8.013034,-0.41035 3.105046,0.0554 6.207228,0.19647 9.307266,0.37996 3.86075,0.19159 7.72734,0.22625 11.58509,0.47826 4.07787,0.33089 8.13148,0.84799 12.16535,1.53495 2.81752,0.43685 5.65286,0.74548 8.5096,0.68887 0.54457,0.002 1.2281,0.0904 1.77826,2.6e-4 0.0891,-0.0146 0.18828,-0.13894 0.2583,-0.0819 0.0454,0.037 0.0592,0.10114 0.0888,0.15171 0.50326,1.67084 0.5017,3.4508 0.64173,5.1755 0.12118,2.97865 0.35373,5.95499 0.34809,8.93722 -0.0128,0.93998 -0.0216,1.87947 -0.01,2.81952 0.002,0.15399 -0.12311,0.53708 0.0113,0.46188 9.53329,-5.33462 7.90642,-9.04015 9.39626,-5.47168 -0.5251,0.007 -1.05067,-0.008 -1.57982,-0.0677 -1.86234,-0.12712 -3.72453,-0.3056 -5.59399,-0.22639 -5.19582,0.1408 -10.38719,0.42125 -15.583,0.56648 -4.54398,0.0869 -9.08691,0.11548 -13.63151,0.13452 -4.74866,0.072 -9.49766,0.11768 -14.246012,0.21011 -4.945192,0.1639 -9.883949,0.50752 -14.7965,1.11038 -1.923243,0.19936 -1.8504,0.18337 -3.578389,0.3896 -0.619894,0.074 -1.52279,0.0722 -2.13402,0.29512 -0.07177,0.0262 -0.120629,0.0938 -0.180943,0.14065 -0.159957,0.40495 -0.147675,-0.91462 -0.154477,-2.12332 -0.0024,-0.40481 0.0021,-0.80964 0.003,-1.21446 0.109056,-3.19371 0.326287,-6.39053 0.859004,-9.54483 0,0 -8.826486,4.39075 -8.826486,4.39075 z" />
    <path
       style="fill:#000000;fill-opacity:1;fill-rule:nonzero;stroke:none;stroke-width:0.264583"
       id="path150"
       d="m 65.559164,161.2214 c -1.055748,2.42089 -1.414806,5.07507 -1.697466,7.67938 -0.135414,1.67054 -0.237294,3.34445 -0.358656,5.01418 3.004378,-1.66737 6.086853,-3.20119 9.01314,-5.0021 0.15889,-0.0978 0.008,-0.37328 0.02344,-0.55921 0.02098,-0.25364 0.05158,-0.50647 0.08563,-0.75868 0.16265,-1.20495 0.440481,-2.3867 0.69292,-3.57509 0.497871,-1.70673 0.663162,-3.54876 1.450657,-5.16189 0.06067,-0.0657 0.111797,-0.14162 0.182007,-0.19694 0.05396,-0.0425 0.122989,-0.0612 0.184483,-0.0918 0.05928,-0.005 0.228971,-0.0453 0.17784,-0.0149 -2.711987,1.58225 -5.423971,3.1645 -8.135959,4.74675 0.133724,-0.14663 0.05119,-0.0853 0.256638,-0.17117 0.342064,-0.0539 1.111584,-0.64257 1.020551,0.0175 -0.187722,1.01412 -0.787667,1.90063 -1.02363,2.89975 -0.06321,0.26766 -0.364093,0.81655 -0.0891,0.82024 1.158938,0.0156 2.259629,-0.51729 3.389445,-0.77594 0,0 0.223763,-0.10331 0.223763,-0.10331 v 0 c 1.392976,-0.90429 2.870234,-1.69039 4.178924,-2.71287 0.345112,-0.26963 0.495192,-0.72392 0.709078,-1.1061 0.609518,-1.08909 1.072312,-2.32413 0.995588,-3.58455 -0.328946,-0.7455 -0.823791,-1.46144 -1.741104,-1.31901 -3.554492,0.38529 -7.923107,2.15216 -9.067953,5.63347 -0.559938,1.71156 -0.813004,3.50964 -1.289016,5.24465 -0.323818,1.25826 -0.674587,2.51809 -0.945092,3.78944 -0.05954,0.27984 -0.103986,0.56274 -0.149756,0.84517 -0.03543,0.21862 -0.299477,0.7399 -0.09381,0.65775 3.070349,-1.22635 5.987888,-2.80518 8.981831,-4.20778 -0.386784,-1.45478 -0.359473,-3.01046 -0.25768,-4.49592 0.307837,-2.60576 0.780513,-5.23764 2.190284,-7.5021 0,0 -8.906991,3.99112 -8.906991,3.99112 z" />
    <path
       style="fill:#000000;fill-opacity:1;fill-rule:nonzero;stroke:none;stroke-width:0.264583"
       id="path152"
       d="m 41.43217,165.60982 c 0.224734,1.62437 1.500127,2.82377 3.086391,3.1851 0.350602,0.0799 0.756139,0.22118 1.077127,0.0591 3.178032,-1.60461 6.186257,-3.52546 9.279384,-5.28819 0.03913,-0.13542 0.720209,-1.87003 0.05606,-2.03208 -1.405189,-0.34285 -4.165406,0.97055 -5.284097,1.40301 0,0 -0.20325,0.13939 -0.20325,0.13939 v 0 c -0.481626,0.47617 -0.947573,0.96873 -1.444874,1.4285 -0.535069,0.4947 -1.174509,0.88173 -1.650618,1.4334 -0.30607,0.35464 0.02262,1.08502 -0.655701,1.24303 2.579571,-1.40446 5.184163,-2.7639 7.738718,-4.21336 0.314219,-0.17829 -0.65079,0.35017 -1.009266,0.39505 -0.859788,0.10764 -2.048529,-0.39836 -2.259407,-1.32736 -0.05799,-0.25545 0.0436,-0.52208 0.0654,-0.78312 0,0 -8.795872,4.35751 -8.795872,4.35751 z" />
    <path
       style="fill:#000000;fill-opacity:1;fill-rule:nonzero;stroke:none;stroke-width:0.264583"
       id="path154"
       d="m 161.63454,155.92641 c -5.16344,2.65937 -8.05881,2.95265 -9.89058,7.17644 -0.15665,0.36122 -0.68922,1.7563 -0.58391,2.22862 0.0757,0.3394 0.39948,0.56931 0.59921,0.85396 4.58015,0.63173 1.83664,0.50111 10.38964,-5.09725 0.35405,-0.23175 0.62966,-0.71279 0.57402,-1.13226 -0.0591,-0.44578 -0.41539,-0.98442 -0.86189,-1.03782 -1.21124,-0.14485 -2.41675,0.33415 -3.62513,0.50123 0,0 -0.21491,0.12064 -0.21491,0.12064 v 0 c -6.66305,6.6552 -0.4566,0.12926 -3.60402,4.0139 -0.26613,0.32847 -1.2725,1.08584 -0.89209,0.90145 6.20555,-3.00796 9.40732,-5.87984 6.72408,-3.52761 -0.0972,0.0145 -0.25612,0.1351 -0.29157,0.0435 -0.19161,-0.49528 0.29551,-1.39957 0.47987,-1.72088 1.7908,-3.12099 8.32089,-5.59829 -6.23937,2.67324 0,0 7.43665,-5.99711 7.43665,-5.99711 z" />
    <path
       style="fill:#000000;fill-opacity:1;fill-rule:nonzero;stroke:none;stroke-width:0.264583"
       id="path156"
       d="m 160.99284,162.74275 c -0.72263,1.76584 0.096,3.2047 1.99357,3.61341 1.22958,0.26485 1.8328,-0.0311 2.9983,-0.32702 -0.80041,-2.61448 8.64609,-2.88875 10.04973,-6.65303 0.115,-0.30843 0.31127,-0.7644 0.0672,-0.98523 -0.38177,-0.34535 -1.01606,-0.46316 -1.51073,-0.32063 -1.42393,0.41026 -2.67552,1.27481 -4.01329,1.91222 0,0 -0.20058,0.1432 -0.20058,0.1432 v 0 c -0.79722,0.68245 -1.58754,1.37305 -2.39166,2.04735 -0.19819,0.16619 -0.45302,0.27167 -0.61465,0.47359 -0.12334,0.15408 -0.0973,0.39103 -0.20815,0.5543 -0.20173,0.29699 -1.03949,0.95956 -0.71532,0.80525 2.38517,-1.13536 4.6434,-2.52015 6.9651,-3.78022 -0.47844,0.22806 -0.93199,0.51812 -1.43531,0.68419 -0.75805,0.25012 -3.41861,0.53156 -2.98415,-1.11318 0.0734,-0.27788 0.29385,-0.49405 0.44077,-0.74107 0,0 -8.44079,3.68687 -8.44079,3.68687 z" />
    <path
       style="fill:#000000;fill-opacity:1;fill-rule:nonzero;stroke:none;stroke-width:0.264583"
       id="path158"
       d="m 52.803623,95.990004 c 9.525479,-1.707642 19.131253,-2.890808 28.737112,-4.034623 10.032148,-0.985756 10.083192,-1.089118 20.420395,-1.686772 3.4151,-0.197445 6.85316,-0.08723 10.25107,-0.48237 3.83207,-0.445635 7.59562,-1.356458 11.39344,-2.034685 0,0 0.19909,-0.14527 0.19909,-0.14527 v 0 c -2.10888,-0.558636 -4.15309,-1.488553 -6.32665,-1.675905 -3.31755,-0.285962 -6.6585,0.142285 -9.9859,0.269822 -9.078064,0.347956 -10.955401,0.552151 -19.791312,1.183767 -9.163569,0.758195 -18.347754,1.484249 -27.428608,2.972851 0,0 -7.468637,5.633185 -7.468637,5.633185 z" />
    <path
       style="fill:#000000;fill-opacity:1;fill-rule:nonzero;stroke:none;stroke-width:0.264583"
       id="path160"
       d="m 57.929097,103.70625 c 0.82175,-0.22576 1.637612,-0.47416 2.465252,-0.67728 1.726142,-0.42363 3.455575,-0.83593 5.194702,-1.20263 2.36405,-0.49846 4.772525,-0.79328 7.113072,-1.39248 3.54675,-0.907988 7.019795,-2.082788 10.529691,-3.124183 0,0 0.197565,-0.147349 0.197565,-0.147349 v 0 c -1.590114,-0.400146 -3.132222,-1.12861 -4.770337,-1.200441 -2.098448,-0.09201 -4.177139,0.449225 -6.260497,0.716751 -4.092151,0.525473 -3.704024,0.492379 -6.876738,1.157398 0,0 -7.59271,5.870214 -7.59271,5.870214 z" />
    <path
       style="fill:#000000;fill-opacity:1;fill-rule:nonzero;stroke:none;stroke-width:0.264583"
       id="path162"
       d="m 43.393727,90.688654 c -3.755281,0.430874 -6.374069,3.088711 -9.62861,5.39134 -0.460661,0.325924 -0.59743,3.487886 -0.621538,3.896831 0.304006,5.857275 1.006681,11.678945 1.755333,17.492435 0.612224,3.00947 -0.209442,1.78819 4.367384,0.65267 0,0 0.217697,-0.11554 0.217697,-0.11554 v 0 c 4.118112,-3.4563 3.87986,-1.4994 3.463387,-4.79382 -1.021532,-5.69685 -1.8685,-11.4823 -1.690031,-17.284018 0.102357,-0.915165 0.114991,-1.811369 0.479965,-2.671061 0.108505,-0.255583 0.700048,-0.822619 0.450662,-0.700546 -2.500241,1.223865 -4.860425,2.715348 -7.301203,4.053877 -0.175499,0.09624 0.317941,-0.252693 0.504068,-0.326308 0.157308,-0.06222 0.334931,-0.04784 0.502396,-0.07176 0,0 7.50049,-5.524097 7.50049,-5.524097 z" />
    <path
       style="fill:#000000;fill-opacity:1;fill-rule:nonzero;stroke:none;stroke-width:0.264583"
       id="path164"
       d="m 172.93178,90.173457 c 0.3353,4.3043 0.70843,8.604856 1.41573,12.867883 0.29305,1.76627 0.18199,3.6801 0.98556,5.28006 0.78082,1.5547 2.38385,2.53462 3.57578,3.80192 0,0 0.21836,-0.11427 0.21836,-0.11427 v 0 c 0.80023,-2.3078 1.96865,-4.51932 2.4007,-6.9234 0.33686,-1.87446 -0.0814,-3.80811 -0.12996,-5.71198 -0.11431,-4.48496 -0.33177,-8.975317 0.0211,-13.456494 0,0 -8.4873,4.256281 -8.4873,4.256281 z" />
  </g>
</svg>
