<?xml version="1.0" encoding="UTF-8" standalone="no"?>
<svg
   version="1.0"
   preserveAspectRatio="xMidYMid meet"
   viewBox="47 627 31.58 28.95"
   id="svg119"
   sodipodi:docname="rabbit-instagram.svg"
   inkscape:version="1.1.2 (0a00cf5339, 2022-02-04)"
   xmlns:inkscape="http://www.inkscape.org/namespaces/inkscape"
   xmlns:sodipodi="http://sodipodi.sourceforge.net/DTD/sodipodi-0.dtd"
   xmlns="http://www.w3.org/2000/svg"
   xmlns:svg="http://www.w3.org/2000/svg">
  <defs
     id="defs123" />
  <sodipodi:namedview
     id="namedview121"
     pagecolor="#ffffff"
     bordercolor="#666666"
     borderopacity="1.0"
     inkscape:pageshadow="2"
     inkscape:pageopacity="0.0"
     inkscape:pagecheckerboard="0"
     showgrid="false"
     inkscape:zoom="15.267703"
     inkscape:cx="15.784955"
     inkscape:cy="14.475"
     inkscape:window-width="1280"
     inkscape:window-height="652"
     inkscape:window-x="0"
     inkscape:window-y="0"
     inkscape:window-maximized="1"
     inkscape:current-layer="svg119" />
  <g
     transform="translate(0.000000,1356.000000) scale(0.100000,-0.100000)"
     fill="#000000"
     stroke="none"
     style="--darkreader-inline-fill: #000000; --darkreader-inline-stroke: none;"
     data-darkreader-inline-fill=""
     data-darkreader-inline-stroke=""
     id="g117">
    <path
       d="M490 7270 c-11 -11 -20 -30 -20 -42 0 -26 16 -13 22 17 2 13 12 21 31 23 31 4 37 22 7 22 -11 0 -29 -9 -40 -20z"
       id="path101" />
    <path
       d="M718 7283 c7 -3 16 -2 19 1 4 3 -2 6 -13 5 -11 0 -14 -3 -6 -6z"
       id="path103" />
    <path
       d="M768 7240 c2 -22 8 -40 13 -40 5 0 6 15 2 33 -9 48 -19 53 -15 7z"
       id="path105" />
    <path
       d="M540 7207 c0 -7 7 -22 16 -33 15 -18 15 -18 5 3 -14 28 -14 33 2 33 7 0 21 -16 30 -35 18 -38 31 -44 41 -19 5 13 4 14 -7 6 -11 -9 -17 -4 -30 23 -17 35 -57 50 -57 22z"
       id="path107" />
    <path
       d="M654 7198 l-19 -23 23 20 c20 16 25 17 32 5 8 -13 10 -12 10 3 0 24 -23 21 -46 -5z"
       id="path109" />
    <path
       d="M666 7158 c-9 -12 -13 -31 -10 -44 5 -19 1 -24 -19 -29 -46 -12 -62 -3 -61 35 2 33 1 33 -9 12 -14 -31 1 -56 36 -60 40 -5 70 15 63 42 -3 12 1 32 10 44 8 12 13 22 10 22 -3 0 -12 -10 -20 -22z"
       id="path111" />
    <path
       d="M477 7048 c9 -34 20 -45 45 -42 35 4 36 6 3 13 -21 4 -31 13 -33 29 -2 12 -7 22 -12 22 -4 0 -6 -10 -3 -22z"
       id="path113" />
    <path
       d="M768 7048 c-2 -15 -11 -24 -25 -26 -13 -2 -23 -8 -23 -13 0 -12 4 -11 34 2 22 10 43 59 25 59 -4 0 -9 -10 -11 -22z"
       id="path115" />
  </g>
  <path
     style="fill:none;stroke:#000000;stroke-width:1px;stroke-linecap:butt;stroke-linejoin:miter;stroke-opacity:1"
     d="m 47.873618,633.53292 c -0.02199,0.10362 -0.05658,0.20536 -0.06598,0.31087 -0.02931,0.32886 0.04657,0.66251 0.04657,0.992 0,1.04726 0.07374,2.09268 0.07374,3.14017 0,1.49769 -0.144847,3.02762 -0.190177,4.52687 -0.03686,1.21924 0.126467,2.4394 0.240631,3.64664 0.04174,0.44138 -0.07275,0.89617 0,1.33431 0.105908,0.63785 0.354479,1.2819 0.283327,1.93509 -0.01454,0.13348 -0.08874,0.33837 0.05045,0.40519"
     id="path363" />
  <path
     style="fill:none;stroke:#000000;stroke-width:1px;stroke-linecap:butt;stroke-linejoin:miter;stroke-opacity:1"
     d="m 53.280083,628.25157 c 1.285489,0.0314 2.542054,-0.31304 3.826833,-0.28991 1.083837,0.0195 2.155273,0.17166 3.240775,0.18163 1.149167,0.0106 2.291496,-0.10697 3.438715,-0.12574 1.265035,-0.0207 2.526539,-0.0164 3.791901,-0.0489 1.094259,-0.0281 2.162467,0.17158 3.248538,0.0105 0.36164,-0.0536 0.730676,-0.062 1.094488,-0.0943 0.121952,-0.0108 0.402195,-0.0815 0.124196,0.028 0.138428,-0.12811 0.247878,-0.29744 0.415285,-0.38432 0.722413,-0.37492 2.597768,1.25793 3.178679,1.74997 0.310817,0.26327 0.490567,0.56305 0.683085,0.91516 0.11192,0.20469 0.210228,0.3934 0.353186,0.57983 0.04055,0.0529 0.156913,0.20993 0.135841,0.1467 C 76.697794,630.5787 76.789155,631.64021 76.8,632"
     id="path367" />
  <path
     style="fill:none;stroke:#000000;stroke-width:1px;stroke-linecap:butt;stroke-linejoin:miter;stroke-opacity:1"
     d="m 53.280083,628.25157 c 0.178534,-0.35162 0.29015,-0.74622 0.535601,-1.05487 0.06529,-0.0821 0.209542,-0.0104 0.314377,-0.014 0.804644,-0.0274 1.609418,-0.0389 2.414085,-0.0629 1.873459,-0.0557 3.738039,-0.0278 5.612168,-0.0419 1.282245,-0.01 2.564856,-0.0614 3.846237,-0.0699 1.506839,-0.01 2.990113,0.24605 4.486631,0.38073 0.385747,0.0347 0.77187,0.0732 1.156588,0.11527 0.132454,0.0145 0.266637,0.0221 0.399759,0.0279 0.01551,6.8e-4 0.05728,-0.0113 0.04658,0 -0.04108,0.0431 -0.25419,0.1366 -0.292109,0.16797"
     id="path369" />
  <path
     style="fill:none;stroke:#000000;stroke-width:1px;stroke-linecap:butt;stroke-linejoin:miter;stroke-opacity:1"
     d="m 77.816825,649.74721 c 0.09552,-1.01366 0.06721,-2.03601 -0.0194,-3.04935 -0.109381,-1.27965 -0.01704,-2.54898 0.05045,-3.82478 0.02128,-0.40217 -0.04147,-0.81325 -0.02329,-1.21904 0.01136,-0.25345 0.06659,-0.50841 0.08927,-0.76147 0.06669,-0.74416 -0.164398,-1.68399 -0.209586,-2.44506 -0.05202,-0.87617 -0.153975,-1.8326 0.02329,-2.70006 0.02635,-0.12893 0.263917,-1.40775 0.263917,-0.94659"
     id="path371" />
  <path
     style="fill:none;stroke:#000000;stroke-width:1px;stroke-linecap:butt;stroke-linejoin:miter;stroke-opacity:1"
     d="m 52.239931,654.66529 c 0.664435,-0.0157 1.331132,0.0282 1.99492,-0.014 1.612548,-0.1025 3.25772,-0.24694 4.874747,-0.17814 3.013841,0.12822 6.014475,0.40581 9.031476,0.46107 1.128784,0.0207 2.255241,0.0567 3.384379,0.0524 0.549291,-0.002 1.442346,-0.1174 1.936704,0.0803"
     id="path373" />
  <path
     style="fill:none;stroke:#000000;stroke-width:1px;stroke-linecap:butt;stroke-linejoin:miter;stroke-opacity:1"
     d="m 76.924159,629.53349 c -0.57212,-1.03722 -1.769603,-1.46834 -2.809967,-1.8862 -0.349757,-0.14048 -0.657439,-0.34687 -1.016866,-0.47504 -0.532821,-0.19 -1.285811,-0.25944 -1.249733,-0.11876 0.0459,0.179 0.367627,0.0449 0.552407,0.0465"
     id="path375" />
  <path
     style="fill:none;stroke:#000000;stroke-width:1px;stroke-linecap:butt;stroke-linejoin:miter;stroke-opacity:1"
     d="m 72.045529,627.91285 c -0.01164,-0.0571 0.01335,-0.13864 -0.03493,-0.17125 -0.220889,-0.14916 -1.005524,-0.0848 -1.288551,-0.10828 -0.726261,-0.0603 -1.440877,-0.20912 -2.142404,-0.40169 -0.426541,-0.11708 -0.871907,-0.25663 -1.315716,-0.28991 -0.368048,-0.0276 -0.720714,0.0644 -1.090607,0.0838 -0.500949,0.0263 -1.436951,-0.0262 -1.750405,-0.0419 -0.868866,-0.0435 -1.725395,-0.22325 -2.600385,-0.16766 -0.55058,0.035 -1.113369,0.31681 -1.645615,0.44361 -0.240632,0.0573 -0.691391,0.15281 -0.993579,0.24799 -0.06485,0.0204 -0.246125,0.0191 -0.194059,0.0629 0.390598,0.32809 1.156957,0.21613 1.59516,0.13622 0.159924,-0.0292 0.384222,-0.0755 0.562771,-0.10129 0.05803,-0.008 0.231263,-0.006 0.174654,-0.021 -0.02022,-0.005 -2.177225,-0.0711 -1.661141,0.0524 0.590466,0.14129 0.906072,0.20453 1.470961,0.26547 0.103116,0.0111 0.724435,-0.0263 0.904315,0.0734"
     id="path377" />
</svg>
