<?xml version="1.0" encoding="UTF-8" standalone="no"?>
<!-- Created with Inkscape (http://www.inkscape.org/) -->

<svg
   width="210mm"
   height="210mm"
   viewBox="0 0 210 210"
   version="1.1"
   id="svg2151"
   sodipodi:docname="rabbit-meziklasi.svg"
   inkscape:version="1.1.2 (0a00cf5339, 2022-02-04)"
   xmlns:inkscape="http://www.inkscape.org/namespaces/inkscape"
   xmlns:sodipodi="http://sodipodi.sourceforge.net/DTD/sodipodi-0.dtd"
   xmlns="http://www.w3.org/2000/svg"
   xmlns:svg="http://www.w3.org/2000/svg">
  <sodipodi:namedview
     id="namedview2153"
     pagecolor="#ffffff"
     bordercolor="#666666"
     borderopacity="1.0"
     inkscape:pageshadow="2"
     inkscape:pageopacity="0.0"
     inkscape:pagecheckerboard="0"
     inkscape:document-units="mm"
     showgrid="false"
     inkscape:zoom="0.54660447"
     inkscape:cx="477.49335"
     inkscape:cy="404.31429"
     inkscape:window-width="1280"
     inkscape:window-height="652"
     inkscape:window-x="0"
     inkscape:window-y="0"
     inkscape:window-maximized="1"
     inkscape:current-layer="layer1" />
  <defs
     id="defs2148">
    <inkscape:path-effect
       effect="bspline"
       id="path-effect2607"
       is_visible="true"
       lpeversion="1"
       weight="33.333333"
       steps="2"
       helper_size="0"
       apply_no_weight="true"
       apply_with_weight="true"
       only_selected="false" />
    <clipPath
       clipPathUnits="userSpaceOnUse"
       id="clipPath2867">
      <path
         id="path2869"
         style="fill:#ff0000;fill-opacity:1;fill-rule:nonzero;stroke:none"
         d="M 57.861328,45.230469 V 715.9043 H 757.49805 V 45.230469 Z m 123.005862,0.722656 c 4.21416,0.0052 8.42871,0.124033 12.64062,0.347656 0.002,0.03322 0.006,0.06639 0.008,0.09961 0.26126,-0.06215 0.47421,-0.0764 0.46876,0.128906 -0.0292,1.091655 -0.1024,2.18035 -0.19727,3.267578 0.0675,0.741326 0.13429,1.483307 0.20312,2.224609 0.81175,0.1695 1.62424,0.343864 2.4336,0.523438 6.00284,2.185954 5.87732,1.29656 3.01562,8.580078 0.21098,0.04807 0.37911,0.148947 0.46094,0.361328 0.0795,0.206225 0.15573,0.415792 0.23438,0.623047 0.0865,-0.0045 0.15568,-0.0044 0.004,0.0078 1.74263,4.593636 3.25702,9.432007 3.26172,14.330078 0.001,1.107242 -4.77472,0.682426 -5.5957,0.640625 -0.54397,-0.07235 -1.08727,-0.149609 -1.63086,-0.22461 1.35322,0.6943 2.70366,1.394723 4.04687,2.109375 6.86793,4.181526 7.05378,2.700084 -0.57226,16.134766 -0.58906,1.037752 -2.39341,-0.07882 -3.56836,-0.28711 -1.06547,-0.188887 -2.52152,-0.524254 -4.1211,-0.923828 0.45014,1.826058 0.60164,3.647087 0.0606,5.398438 -1.08872,3.523891 -5.5808,2.844111 -9.02539,1.757811 -0.0579,-0.006 -0.1509,-0.0355 -0.28906,-0.0918 -1.26432,-0.41359 -2.36902,-0.86827 -3.07031,-1.167974 -1.73637,-0.78975 -3.46501,-1.597368 -5.19141,-2.41211 -0.60938,-0.245566 -1.1573,-0.471434 -1.84961,-0.742187 -1.09367,-0.432013 -2.18428,-0.872588 -3.27734,-1.306641 0.79948,0.562632 1.5996,1.123819 2.39843,1.6875 2.97525,2.099418 11.67004,7.746382 12.76758,10.574222 1.28549,3.31209 -0.40784,7.09364 -0.61133,10.64063 -2.93206,0.82996 -5.74786,2.45508 -8.79492,2.49023 -1.41925,0.0164 -3.91054,-1.24356 -6.47461,-2.82617 -0.0517,1.37206 -0.10361,2.74164 -0.12695,4.09961 -0.008,0.47541 -0.95214,0.002 -1.42773,0.004 -0.62073,-2.75212 0.44915,0.79062 -5.03907,1.24024 -2.21909,0.18179 -4.49012,-0.34525 -6.58984,-1.08594 -0.94912,-0.33481 -1.75615,-0.97994 -2.51367,-1.66992 0.93479,1.18861 1.84826,2.3932 2.71679,3.63281 0.77881,1.05305 2.78373,2.13444 2.15821,3.28516 -7.27452,13.38225 -6.23615,14.01596 -10.3125,10.57226 3.31209,-1.10793 -2.57842,-0.033 -3.84375,-0.48047 -3.80685,-1.34611 -5.33938,-2.74161 -7.29102,-5.46484 0.1921,1.7906 0.18906,3.53171 -0.11719,5.12891 -0.42635,2.22361 -2.80263,3.55889 -4.20312,5.33789 -2.82292,0.37738 -5.62701,1.3219 -8.46875,1.13281 -1.45415,-0.0968 -2.68832,-1.16266 -3.91016,-1.95703 -1.97668,-1.28514 -3.9087,-2.66438 -5.64648,-4.25781 -0.83272,-0.76355 -1.35231,-1.8117 -1.99024,-2.74414 -0.36293,-0.53051 -0.56796,-0.84345 -0.87304,-1.29297 -0.0875,-0.0547 -0.17646,-0.10713 -0.26172,-0.16407 -6.03056,-4.02721 -9.30962,-11.09332 -13.613283,-16.60351 -4.51225,-7.47704 -9.143402,-14.88905 -13.609375,-22.392583 -0.675075,-1.134235 -2.405955,-2.256779 -2.232422,-3.4375 -0.172711,-0.150448 -0.346198,-0.299356 -0.517578,-0.451172 -1.715141,-4.641909 -3.002844,-7.666004 8.699219,-10.435547 0.433297,-0.233619 0.892652,-0.472863 1.408203,-0.740234 0.130266,0.122383 0.266104,0.241837 0.398437,0.363281 1.006717,-0.02546 1.679559,0.802205 2.228516,1.935547 1.15197,0.94689 2.357697,1.8623 3.583984,2.757813 -0.376014,-1.887483 -0.617748,-3.78483 -0.554687,-5.705079 0.05507,-1.677009 1.632344,-2.381747 3.539066,-2.623047 1.26981,-1.271153 3.13693,-2.093397 4.52539,-3.27539 0.9319,-0.161756 1.88734,-0.752596 2.79492,-0.486328 1.30869,0.383967 2.5063,0.822594 3.61914,1.30664 0.0127,-0.08864 0.0297,-0.176905 0.041,-0.265625 0.37693,-0.93973 0.29803,-2.34962 0.85937,-3.099609 -0.86914,-0.434807 -1.51616,-0.970685 -1.5957,-1.765625 -2.79023,-2.745801 -3.54801,-5.744842 2.08203,-9.496094 1.57347,-3.645894 3.66198,-4.144496 6.00195,-3.197265 0.0395,-0.01766 0.0735,-0.03505 0.11328,-0.05273 1.90665,-0.847226 3.42467,1.706644 5.03711,3.519531 0.88363,0.726791 1.77442,1.480667 2.66211,2.191407 1.52052,1.100947 2.65857,1.914431 3.33985,2.392578 0.61613,-0.735106 1.22432,-1.476071 1.79492,-2.238281 1.38831,0.388837 2.7606,0.837978 4.16406,1.167968 0.88745,0.291939 1.79052,0.502207 2.70117,0.675782 0.12062,-0.764749 0.24853,-1.528371 0.38867,-2.292969 -3.45169,1.192572 -2.22327,-0.173187 0.34766,-1.890625 0.23517,-1.294496 0.45576,-2.589598 0.60352,-3.884766 4.05271,-0.8499 8.14996,-1.359725 12.26953,-1.677734 0.18056,-2.055185 0.48135,-4.09918 0.89062,-6.107422 0.16014,-0.785764 1.57308,-0.332886 2.37305,-0.388672 3.16434,-0.220636 6.38126,-0.219347 9.58594,-0.1875 0.16683,-0.101197 0.33225,-0.197425 0.49023,-0.271484 0.89311,-0.418696 1.96508,-0.182465 2.94727,-0.273438 4.21076,-0.230147 8.4245,-0.337252 12.63867,-0.332031 z m -41.79883,13.123047 c -0.11448,0.63012 -0.23217,1.260513 -0.34766,1.890625 0.16146,-0.05578 0.3138,-0.106594 0.4961,-0.173828 2.08834,-0.770225 3.76106,-2.310382 5.45508,-3.8125 -0.0104,-0.328168 -0.0196,-0.656309 -0.0352,-0.984375 -1.83954,0.80138 -3.95755,2.004019 -5.56836,3.080078 z M 146.69922,55.25 c -0.55961,0.142713 -1.21144,0.378404 -1.91211,0.677734 0.30477,0.05475 0.60897,0.111642 0.91406,0.164063 0.31464,-0.266275 0.63455,-0.523392 0.95899,-0.771485 0.0105,-0.02841 0.0238,-0.05098 0.0391,-0.07031 z m -2.44141,0.382812 c -0.32604,-0.01541 -0.72127,0.07025 -0.53515,0.105469 0.303,0.05733 0.60681,0.107201 0.91015,0.16211 -0.002,-0.0332 -0.002,-0.06641 -0.004,-0.09961 -0.006,-0.113499 -0.17547,-0.15872 -0.3711,-0.167969 z m -12.59961,6.550782 c -0.057,10e-4 -0.074,0.01498 -0.0215,0.04297 0.21591,0.115151 0.43405,0.225529 0.65039,0.339844 0.007,-0.03384 0.0144,-0.06771 0.0215,-0.101562 0.0364,-0.174699 -0.47938,-0.284374 -0.65039,-0.28125 z" />
    </clipPath>
    <clipPath
       clipPathUnits="userSpaceOnUse"
       id="clipPath3113">
      <path
         id="path3115"
         style="fill:#ff0000;fill-opacity:1;fill-rule:nonzero;stroke:none;stroke-width:0.264583"
         d="m 194.97104,157.33561 -3.81889,0.001 c -0.068,0.56068 -0.4832,1.45569 -0.57154,1.649 -0.11463,0.25082 -0.23332,0.49987 -0.34985,0.74982 -0.16199,0.28384 -0.16506,-0.0229 -0.13746,0.52297 -0.024,0.71691 -0.21251,1.38167 -0.52968,2.00763 -0.003,0.2093 -0.0186,0.41905 -0.0289,0.51521 -0.029,0.27073 -0.0723,0.53989 -0.10852,0.80977 -0.10267,0.51911 -0.15753,1.04761 -0.26872,1.56477 4e-5,0.001 5.3e-4,0.004 5.3e-4,0.005 0.002,0.26641 0.0146,0.53576 -0.0269,0.79892 -0.0409,0.25946 -0.14537,0.50464 -0.21807,0.75706 -0.008,0.016 -0.0165,0.0311 -0.0243,0.047 -0.0799,0.82318 -0.22577,1.6253 -0.57775,2.39055 -0.36735,0.97123 -0.77374,1.91133 -1.58646,2.60449 -0.59852,0.56092 -1.18289,1.16561 -1.89188,1.58543 -0.34493,0.18888 -0.74256,0.42106 -1.03146,0.55759 -0.031,0.0184 -0.0387,0.0212 -0.063,0.0351 -0.0454,0.0396 -0.089,0.0778 -0.17002,0.14418 -0.50362,0.43194 -1.02369,0.83076 -1.59008,1.17512 0.10241,-0.0864 -0.0884,0.0801 -0.10852,0.0966 -0.18707,0.28201 -0.38656,0.55708 -0.60513,0.82114 -0.5939,0.60463 -1.26326,1.11737 -1.93632,1.62832 -0.18705,0.1673 -0.38375,0.32208 -0.58653,0.46819 -0.0317,0.0397 -0.0705,0.072 -0.1173,0.0951 -0.0281,0.0229 -0.056,0.0472 -0.0842,0.0698 -0.0122,0.0174 -0.0245,0.0348 -0.0367,0.0522 -0.53558,0.76624 -0.47233,0.73219 -0.5426,0.38395 -0.4236,0.29541 -0.86921,0.55628 -1.36167,0.7705 -0.1822,0.0793 -0.65726,0.35683 -0.56896,0.1788 0.0409,-0.0825 0.0949,-0.15549 0.15503,-0.22376 -0.004,0.008 -1.41233,0.41811 -1.89497,0.54054 -0.48755,0.0754 -0.96809,0.17884 -1.44953,0.2868 -0.71151,0.1011 -1.38151,0.35207 -2.06396,0.56483 -0.72106,0.20161 -1.46059,0.31549 -2.18281,0.51056 -0.81446,0.23936 -1.64221,0.42422 -2.47892,0.56586 -0.92845,0.10604 -1.86236,0.10796 -2.79363,0.18396 -1.1449,0.0699 -2.29463,0.23158 -3.4432,0.14728 -0.786,0.008 -1.57161,-0.0341 -2.35644,-0.0718 -0.6871,-0.0179 -1.37402,-0.0358 -2.06086,-0.062 -0.87817,-0.005 -1.75226,0.0747 -2.62671,0.14263 -1.01517,0.0308 -2.03,0.0371 -3.04426,0.0935 -0.9049,0.0651 -1.80776,0.15571 -2.7156,0.16071 -0.58865,0.0421 -1.17928,0.0318 -1.76888,0.0248 -0.63631,-0.0121 -1.27117,0.027 -1.90634,0.0584 -1.1041,0.0463 -2.2086,0.0572 -3.3135,0.0532 -1.72226,-0.001 -3.43332,0.18996 -5.14852,0.30127 -0.83495,-0.041 -1.66666,-0.025 -2.49959,0.0139 -0.35061,0.0353 -0.70072,0.069 -1.05213,0.10387 -0.43235,0.006 -0.42501,0.007 -0.48266,0.008 -0.296,0.0416 -0.5912,0.0896 -0.88883,0.1173 -1.08581,-0.0671 -1.45158,-0.0507 -1.46245,-1.02009 -0.45697,-0.001 -0.91406,-0.002 -1.37097,-0.005 -0.51808,-0.004 -1.03633,-0.007 -1.55443,-0.007 -0.3294,-0.003 -0.65864,-0.0102 -0.98805,-0.002 -0.61997,0.005 -1.24051,0.0155 -1.85829,-0.0496 -0.19602,-0.0162 -0.39263,-0.005 -0.58911,-0.004 -0.53427,0.0379 -1.06908,0.0678 -1.60507,0.0734 -0.61846,0.0104 -1.2325,0.12038 -1.8495,0.15658 -0.89115,0.0643 -1.78449,0.11417 -2.67839,0.10128 -0.46409,-0.0156 -0.91921,-0.0626 -1.38131,0.009 -0.50996,0.0259 -1.0203,0.042 -1.53065,0.0512 -0.80428,0.10527 -1.61092,0.1943 -2.42053,0.23565 -0.58032,0.44593 -1.55453,0.60049 -2.80913,0.14624 -0.14246,-0.0516 -0.28418,-0.10561 -0.42581,-0.15968 -0.0394,-0.001 -0.0789,-0.002 -0.11834,-0.003 -0.60149,-0.0155 -1.20301,-0.0305 -1.80454,-0.0434 -0.36662,-0.008 -0.62449,-0.006 -0.80512,-0.0227 -10e-4,-7e-5 -0.003,9e-5 -0.004,0 -0.002,-1.6e-4 -0.001,-2.6e-4 -0.003,-5.3e-4 0.002,2.2e-4 0.005,2.7e-4 0.007,5.3e-4 0.0356,0.002 0.0929,-5e-5 0.15348,-0.005 -0.0983,-7.9e-4 -0.18436,-0.002 -0.18087,0.002 -0.35909,-0.0397 -0.38879,-0.17426 -0.36587,-0.65577 -0.0517,-0.0724 -0.0957,-0.17196 -0.13332,-0.28732 -0.12834,-0.14808 -0.22702,-0.30778 -0.29249,-0.47439 -0.65146,-0.22235 -1.0724,-0.62199 -1.26039,-1.08417 v 6.60114 h 92.28842 z m -92.28842,0.001 v 21.79919 c 0.29984,-0.74107 1.17546,-1.36934 2.65668,-1.38545 1.28614,-0.014 2.57817,-0.10521 3.86282,0.007 0.38995,0.034 0.87534,0.28896 1.21026,0.0837 1.23544,-0.004 2.47091,0.0745 3.70572,0.0775 1.08855,-0.006 2.17829,-0.0254 3.2675,-0.0248 0.36006,-0.0193 0.71158,0.0723 1.06867,0.0987 0.60816,0.0754 1.21945,0.0529 1.82986,0.0599 0.48153,0.0301 0.95701,0.0988 1.44022,0.0873 0.42099,-0.0284 0.84273,-0.0184 1.26401,-0.005 0.0263,0.003 0.0527,0.002 0.0791,0.004 0.55213,-0.0689 1.10253,-0.14823 1.65571,-0.20981 1.42899,-0.16977 2.82098,-0.59818 4.223,-0.91932 -0.0188,-0.30178 2.09018,-0.0631 1.69344,-0.2248 1.12669,-0.10454 2.25538,-0.19067 3.38274,-0.28887 0.63731,-0.0558 1.27511,-0.10382 1.91306,-0.15193 1.21941,-0.12643 2.43326,-0.30544 3.65249,-0.43873 1.18474,-0.0875 2.36473,-0.20493 3.5388,-0.38757 0.62066,-0.15662 1.25745,-0.10561 1.88929,-0.11731 0.98008,-0.0146 1.94309,-0.22658 2.8975,-0.4315 0.74225,-0.17181 1.48259,-0.35037 2.22467,-0.52296 0.81853,-0.19207 1.64591,-0.3437 2.46342,-0.54002 1.01501,-0.25703 2.06256,-0.33515 3.09852,-0.4656 0.98667,-0.14736 1.97662,-0.2626 2.97139,-0.3359 0.73415,-0.009 1.45553,-0.0818 2.18229,-0.17363 1.19483,-0.17834 2.40052,-0.23128 3.60702,-0.22428 0.49373,0.0319 0.98784,0.0185 1.48208,0.0155 0.54266,-0.019 1.08353,0.0201 1.62471,0.0507 0.77378,0.0376 1.54997,-0.0158 2.32079,-0.0832 0.26353,-0.0425 0.52899,-0.0529 0.79478,-0.0548 0.49473,-0.0899 0.99829,-0.15374 1.50482,-0.21135 0.46384,-0.51759 1.27692,-0.94102 2.43757,-1.08314 0.27491,-0.0337 0.58038,-0.0356 0.90176,-0.0243 -0.0235,-0.0214 -0.0466,-0.0409 -0.0703,-0.0631 -0.13855,-0.1287 0.0969,-0.36631 0.16123,-0.54415 0.27061,-0.74876 0.73046,-1.38118 1.20147,-2.01693 1.97225,-2.16288 4.08846,-4.19421 6.27714,-6.13606 0.6128,-0.43998 1.78437,-1.32366 2.78898,-1.67948 0.17692,-0.64884 0.38755,-1.38219 0.38189,-2.05156 -0.002,-0.29905 -0.21802,-0.6385 -0.0636,-0.89452 0.0972,-0.16105 0.26803,-0.37204 0.45527,-0.59376 z m 86.74871,0 c 0.11392,0.23654 0.22478,0.47428 0.32969,0.71469 0.13615,-0.15524 0.13674,-0.0888 0.0811,0.18862 0.0951,0.22496 0.18546,0.4521 0.27027,0.68109 0.13632,-0.0835 0.28261,-0.24718 0.50901,-0.48886 -0.26923,-0.3652 -0.53846,-0.73037 -0.80771,-1.09554 z m 0.4408,1.59112 c -0.002,0.001 -0.008,0.0184 -0.0191,0.0548 0.003,2.6e-4 0.006,0.001 0.009,0.002 0.008,-0.0343 0.0115,-0.0548 0.0103,-0.0568 z m -0.0703,0.23461 c -0.0311,0.1118 -0.0978,0.36485 -0.15503,0.58085 0.0486,-0.1231 0.11832,-0.37263 0.16846,-0.56896 -0.002,-0.002 -0.004,-0.003 -0.006,-0.005 l -0.007,-0.007 z m -4.36097,3.1409 c -5.3e-4,5.3e-4 -0.002,0.005 -0.004,0.0129 -0.0215,0.0875 -0.0374,0.14684 -0.0548,0.21394 0.003,-0.006 0.006,-0.012 0.009,-0.0181 0.0249,-0.0531 0.054,-0.21322 0.0501,-0.20877 z m -9.40873,16.4977 c -0.0362,0.0209 -0.0772,0.0374 -0.11111,0.0605 -0.18903,0.0938 -0.38156,0.1904 -0.57154,0.28835 0.18015,0.10182 0.36316,0.20123 0.51986,0.32195 0.10535,0.0417 0.35184,0.0183 0.31627,0.12505 0.1222,-0.13854 0.27496,-0.25454 0.42839,-0.37 -0.19395,-0.14194 -0.38793,-0.28386 -0.58187,-0.42581 z m -46.92686,4.16873 c -0.0237,-0.001 1.53602,0.472 1.89601,0.11886 -0.33712,-0.0326 -0.92224,-0.0718 -1.89601,-0.11886 z" />
    </clipPath>
  </defs>
  <g
     inkscape:label="Layer 1"
     inkscape:groupmode="layer"
     id="layer1">
    <path
       style="fill:#000000;stroke-width:0.264583"
       id="path111"
       d="m 80.913882,171.45462 c -0.18505,1.04166 -0.833887,1.91479 -1.240668,2.87054 -0.06374,0.14977 -0.233903,0.81915 -0.282877,1.00597 0.212833,0.46613 -0.710536,0.83766 -0.743127,1.12399 -0.03383,0.29725 0.01336,0.9979 0.275727,0.85412 8.63718,-4.73329 8.780288,-2.30986 8.328705,-6.08758 -0.269891,-2.43364 -0.324231,-4.88824 -0.414486,-7.33401 -0.163901,-3.79577 0.0029,-7.58641 0.279766,-11.37165 0.370578,-4.59215 1.00575,-9.15265 1.80867,-13.68736 0.871807,-4.82744 2.354763,-9.5067 4.01859,-14.11093 1.569778,-4.38229 3.844533,-8.41228 6.46481,-12.23876 1.864178,-2.71983 4.110798,-5.12253 6.723168,-7.1349 1.73719,-1.33822 2.63157,-1.84448 4.48724,-3.01998 0.79647,-0.45838 3.17263,-1.85582 2.38942,-1.37513 -1.83945,1.12894 -3.79293,2.07918 -5.55867,3.32023 -0.81202,0.57072 1.77854,-0.88218 2.68017,-1.29708 2.94369,-1.35462 5.96229,-2.47046 9.01212,-3.556766 2.82006,-0.957149 5.69843,-1.744094 8.62527,-2.298624 2.43566,-0.461465 3.22957,-0.367321 5.77123,-1.251429 1.7554,-0.61061 3.44343,-1.399936 5.16515,-2.099905 0,0 0.21613,-0.155853 0.21613,-0.155853 v 0 c 0.24797,-0.752345 0.98112,-1.501222 0.74392,-2.257033 -0.16944,-0.539898 -1.04997,-0.509408 -1.61571,-0.520846 -0.87259,-0.01765 -1.7252,0.26846 -2.58174,0.435981 -3.01698,0.59006 -5.97573,1.435507 -8.90326,2.365727 -3.06215,1.046149 -6.0809,2.124101 -9.03728,3.446494 -0.90337,0.40408 -1.81976,0.785207 -2.68941,1.257509 -3.61448,1.962995 -7.1806,4.013895 -10.75714,6.045215 -0.80594,0.45774 -1.59314,0.94773 -2.3897,1.42159 -1.870738,1.23776 -2.715012,1.7306 -4.456333,3.14364 -2.635158,2.13837 -4.890971,4.6629 -6.810346,7.45769 -2.589363,3.90869 -4.842584,8.00965 -6.368481,12.46189 -1.658832,4.64226 -2.969458,9.40009 -3.905583,14.2426 -0.796507,4.57421 -1.571197,9.16596 -1.817844,13.80912 -0.229433,3.81208 -0.419973,7.62583 -0.219998,11.44489 0.04555,2.49298 0.116382,4.98451 0.231338,7.47511 0.05549,3.77736 -0.134305,-0.47513 8.397224,-4.73973 0.269267,-0.13459 0.304797,0.57695 0.239395,0.87079 -0.03654,0.16416 -0.307025,0.14702 -0.472551,0.17673 -0.298945,0.0537 -0.287361,-0.0447 -0.406329,-0.24198 -0.09538,-0.20906 -0.133844,-0.44171 -0.234653,-0.64821 -0.06558,-0.13433 -0.192421,-0.23349 -0.253511,-0.36992 -0.223448,-0.49904 -0.293354,-1.08731 -0.186407,-1.61774 0,0 -4.511939,2.18559 -4.511939,2.18559 z" />
    <path
       style="fill:#000000;stroke-width:0.264583"
       id="path113"
       d="m 76.394211,170.2473 c -0.443143,-4.03229 -1.202179,-8.02039 -1.845122,-12.024 -0.624549,-5.15273 -1.435357,-10.27512 -2.236369,-15.40184 -0.520613,-4.76159 -1.119228,-9.51082 -1.771042,-14.25615 -0.617606,-5.50003 -2.335525,-10.78301 -3.635343,-16.14334 -0.932818,-4.46552 -2.210438,-8.84512 -3.361264,-13.255548 -0.490104,-1.878272 -0.355899,-4.023206 -1.417558,-5.648317 -1.048552,-1.605039 -3.040848,-2.335739 -4.561274,-3.50361 0,0 -0.235148,0.12532 -0.235148,0.12532 v 0 c -0.850345,2.431487 -2.20739,4.741595 -2.551033,7.294459 -0.26955,2.002444 0.497043,4.010356 0.759608,6.013726 0.246414,1.88014 0.462367,3.76514 0.76731,5.63669 0.173575,1.0653 1.384496,6.89508 1.642983,8.15029 1.097785,5.42353 2.317578,10.82568 3.196886,16.29041 0.728983,4.69444 1.398815,9.39761 2.058112,14.1023 0.678974,5.1241 1.634911,10.19795 2.453569,15.30098 0.614997,4.02785 1.188026,8.07112 1.480264,12.13615 0,0 9.255421,-4.81752 9.255421,-4.81752 z" />
    <path
       style="fill:#000000;stroke-width:0.264583"
       id="path115"
       d="m 101.25473,108.17599 c 1.00443,-2.42848 2.39559,-4.63838 3.72884,-6.89183 2.40459,-4.012329 5.15002,-7.80651 7.99245,-11.516595 2.57165,-3.203906 5.45268,-6.21551 8.91588,-8.47181 1.18294,-0.770689 3.27197,-3.476091 3.6665,-2.12049 0.40199,1.381247 -2.38927,1.602854 -3.58391,2.404279 5.43413,-2.336046 3.99037,-1.803106 9.47255,-3.8169 1.52231,-0.559197 3.10088,-0.976783 4.57952,-1.64292 2.38885,-1.076184 4.66711,-2.38267 7.00067,-3.574004 0,0 0.21114,-0.162545 0.21114,-0.162545 v 0 c -0.19143,-0.472114 -0.0653,-1.393404 -0.57428,-1.416346 -1.41428,-0.06375 -2.72901,0.759169 -4.07206,1.20691 -3.77612,1.258869 -5.75206,2.150825 -9.43792,3.672676 -4.12652,2.236716 -8.27734,4.429191 -12.37957,6.710148 -1.30779,0.727168 -2.60801,1.474367 -3.84755,2.312586 -3.48342,2.355598 -6.31375,5.501719 -8.92633,8.757877 -2.86287,3.773929 -5.653668,7.609124 -8.077723,11.684774 -1.258448,2.17363 -2.430428,4.4446 -3.177336,6.85031 0,0 8.509129,-3.98612 8.509129,-3.98612 z" />
    <path
       style="fill:#000000;stroke-width:0.264583"
       id="path119"
       d="m 100.99996,111.10594 c -0.58665,-0.34099 -1.139946,-0.73389 -1.729456,-1.06954 -0.02943,-0.0226 -0.103053,-0.10187 -0.08829,-0.0678 0.03384,0.0781 0.0992,0.13827 0.148801,0.20741 -2.757585,1.82302 -5.539149,3.61027 -8.272753,5.46906 -0.07511,0.0511 0.180581,-0.0198 0.271026,-0.0281 0.165346,-0.0152 0.330877,-0.0282 0.496316,-0.0424 0.220506,-0.0204 0.441013,-0.0408 0.661516,-0.0612 2.370376,-0.20993 4.749242,-0.3069 7.124335,-0.4595 4.668875,-0.1668 9.346385,-0.13885 14.017405,-0.0602 0.66951,0.009 3.81851,0.11222 4.48029,-0.1209 1.81635,-0.63984 3.47976,-1.65085 5.21965,-2.47628 0,0 0.21698,-0.15465 0.21698,-0.15465 v 0 c 0.68187,-0.92183 1.90184,-1.62793 2.04561,-2.76549 0.16321,-1.29135 -4.48344,0.88743 -3.8902,-0.33789 -4.74742,0.004 -9.49853,-0.0779 -14.24239,0.14847 -2.34437,0.10413 -4.6846,0.26994 -7.02919,0.36389 -0.0981,0.006 -1.250913,0.0284 -1.269023,0.0395 -1.546434,0.95379 -11.170364,3.2811 -8.335841,5.80951 0.595098,0.3775 1.227931,0.68804 1.838582,1.03948 0,0 8.336632,-5.43346 8.336632,-5.43346 z" />
    <path
       style="fill:#000000;stroke-width:0.264583"
       id="path121"
       d="m 63.433015,92.201049 c -0.05787,-0.206267 -0.101045,-0.417235 -0.173604,-0.618805 -0.08484,-0.235691 -0.198377,-0.460044 -0.297564,-0.690065 -0.09552,-0.246803 -0.198982,-0.490678 -0.28657,-0.740407 -0.280776,-0.800532 -0.430956,-1.592747 -0.552003,-2.429455 -0.205187,-1.552337 -0.351131,-3.108788 -0.398613,-4.673724 -0.05583,-1.87226 0.0416,-3.74274 0.265528,-5.601123 0.283638,-2.89804 1.140232,-5.634249 2.235147,-8.315434 1.566823,-3.551433 3.585665,-6.876571 5.690314,-10.129379 1.410206,-2.065589 2.911613,-4.089069 4.698341,-5.849168 1.179341,-1.161767 1.744541,-1.565309 3.040179,-2.613363 0.571916,-0.421103 1.13555,-0.853692 1.715746,-1.263312 0.602769,-0.425558 1.213163,-0.840629 1.832465,-1.241745 0.643834,-0.417002 2.622449,-1.59217 1.956152,-1.212093 -13.147016,7.499448 -6.929517,3.937637 -4.225827,2.664833 0.841192,-0.396005 1.703281,-0.746011 2.554922,-1.119018 6.572673,-2.616362 13.626179,-3.603726 20.598052,-4.509744 5.89307,-1.031311 2.48804,-0.129675 9.97076,-3.499797 0,0 0.21424,-0.158438 0.21424,-0.158438 v 0 c 0.96501,-3.336814 1.51865,-2.42503 -2.26834,-2.257314 -3.69126,0.515549 -7.38405,1.02507 -11.051408,1.695252 -1.898293,0.346901 -4.830334,0.924049 -6.72017,1.468014 -0.92206,0.265404 -1.816248,0.619496 -2.724375,0.929243 -7.704474,3.165703 -14.988503,7.403254 -21.616673,12.443431 -1.325946,1.129583 -1.863793,1.528763 -3.063266,2.781361 -1.741239,1.818359 -3.204654,3.886549 -4.570989,5.993056 -2.075461,3.316745 -4.084706,6.700284 -5.618819,10.307118 -1.137084,2.820789 -2.09678,5.692564 -2.423385,8.735119 -0.187433,1.915728 -0.33588,3.844194 -0.196905,5.768943 0.132871,1.588862 0.236778,3.18965 0.608097,4.745135 0.423098,1.559875 0.806876,3.193293 1.656948,4.581274 0,0 9.15162,-5.190395 9.15162,-5.190395 z" />
    <path
       style="fill:#000000;stroke-width:0.264583"
       id="path123"
       d="m 67.512715,65.886557 c 0.19998,-0.168778 0.391504,-0.348113 0.599937,-0.506328 1.169162,-0.887481 2.650385,-1.753595 2.396197,-1.609312 -15.149457,8.599109 -6.963058,3.920445 -4.721503,2.932057 1.026387,-0.452576 2.081757,-0.836348 3.122636,-1.254525 8.497419,-3.034808 17.336415,-4.930034 26.152102,-6.768383 5.945226,-1.459822 2.661838,-0.364297 9.666686,-3.792458 0,0 0.21288,-0.160255 0.21288,-0.160255 v 0 c 0.77856,-2.970771 1.17003,-2.026571 -2.66598,-1.515076 -8.642347,1.750653 -17.277331,3.625382 -25.706601,6.238425 -1.000379,0.350753 -2.015149,0.66289 -3.00114,1.052261 -0.737462,0.291227 -1.471107,0.602023 -2.163998,0.987468 -4.281794,2.381903 -9.610566,4.895376 -13.506688,8.356798 0,0 9.615472,-3.960672 9.615472,-3.960672 z" />
    <path
       style="fill:#000000;stroke-width:0.264583"
       id="path125"
       d="m 66.467981,78.298224 c 2.677721,-1.856909 6.906583,-4.648745 -5.674487,3.179062 -0.76396,0.475326 1.589048,-0.845924 2.402245,-1.230998 3.016536,-1.428419 3.957476,-1.720639 7.193791,-2.976666 6.108059,-2.244981 12.342164,-4.132048 18.669597,-5.650418 1.473968,-0.353703 2.982013,-0.57295 4.435147,-1.004329 1.898145,-0.563486 3.734665,-1.316871 5.601999,-1.975305 1.646067,-0.565174 3.292137,-1.13035 4.938207,-1.695524 0,0 0.21387,-0.158935 0.21387,-0.158935 v 0 c -0.44525,-0.338894 -0.89049,-0.677789 -1.33573,-1.016685 -3.524406,-1.086345 -1.59827,-0.881089 -6.591448,0.295195 -6.248429,1.471994 -12.403539,3.311996 -18.480426,5.375696 -2.706928,0.962832 -4.220048,1.450827 -6.790621,2.538338 -5.05579,2.138908 -9.816261,5.000443 -14.264989,8.208005 0,0 9.682845,-3.887436 9.682845,-3.887436 z" />
    <path
       style="fill:#000000;stroke-width:0.264583"
       id="path127"
       d="m 63.746014,117.86241 c -0.897485,-0.76682 -1.428464,-1.82937 -2.138635,-2.74971 -0.697362,-0.90374 -0.894379,-1.05581 -1.70402,-1.88516 -2.595512,-2.52721 -5.815766,-4.18874 -9.04435,-5.7492 -4.742084,-2.16383 -9.760278,-3.64373 -14.738331,-5.15557 -2.889369,-0.78828 -5.750486,-1.71147 -8.681027,-2.341534 -0.442272,-0.119439 -0.285437,0.01355 -0.480703,-0.386567 -2.814818,2.270371 -5.835448,4.306941 -8.444453,6.811121 -0.285706,0.27422 0.785063,0.10515 1.17657,0.16473 1.599905,0.2435 2.035941,0.33997 3.786219,0.661 0.844623,0.22927 1.698281,0.42754 2.533869,0.68782 1.854356,0.57762 3.655716,1.28211 5.410078,2.11631 2.600582,1.23657 5.057603,2.83006 7.889581,3.55708 2.025375,0.51995 4.137009,0.61246 6.205511,0.91869 0,0 0.225587,-0.14182 0.225587,-0.14182 v 0 c -0.199475,-1.49399 -0.03683,-3.08325 -0.598427,-4.48197 -0.505137,-1.25809 -1.521222,-2.26788 -2.491777,-3.21444 -2.778858,-2.71016 -7.094183,-4.01984 -10.656533,-5.31535 -3.122274,-1.02508 -0.852532,-0.33235 -3.37557,-1.00118 -0.328745,-0.0871 -0.688517,-0.452892 -0.98121,-0.27969 -3.337851,1.97519 -6.352078,4.45596 -9.616195,6.55075 -0.110693,0.071 -0.262912,-0.93635 0.288777,-0.26889 3.082095,0.49439 6.16427,1.00803 9.169004,1.87742 4.974998,1.36863 9.935326,2.85685 14.641555,4.99953 3.072355,1.53665 6.118283,3.23461 8.681029,5.55044 1.37632,1.42513 2.631183,2.9687 3.703249,4.63764 0,0 9.240202,-5.56145 9.240202,-5.56145 z" />
    <path
       style="fill:#000000;stroke-width:0.264583"
       id="path129"
       d="m 70.802891,158.43121 c -0.444566,-2.10557 -0.932791,-4.24475 -1.827763,-6.2147 -0.273389,-0.60176 -0.604332,-1.17567 -0.9065,-1.76351 -1.970844,-3.3769 -4.255979,-6.64991 -7.258999,-9.199 -0.69106,-0.5866 -1.439707,-1.10178 -2.159559,-1.65266 -0.834697,-0.54056 -1.626999,-1.15302 -2.504093,-1.62166 -1.9289,-1.03064 -5.863878,-2.58958 -7.83508,-3.35819 -3.625418,-1.41363 -7.295247,-2.70434 -10.970548,-3.98045 -2.692926,-0.78717 -5.281284,-1.9628 -7.99633,-2.67797 -3.714609,-1.12155 -3.803054,2.20706 -9.10733,6.52558 -0.232007,0.18889 0.591301,-0.0919 0.885908,-0.14395 0.196661,-0.0348 2.615111,-0.4916 2.671579,-0.50226 4.673218,-0.88075 9.32228,-0.0439 13.841099,1.18115 3.647583,1.02042 7.026862,2.6597 10.157558,4.76755 2.140561,1.48322 4.032956,3.27639 5.957948,5.01998 1.808496,1.52315 3.488417,3.17968 4.921197,5.0623 3.049426,4.10826 0.842068,2.11783 10.542706,-4.84482 0.173982,-0.12487 -0.21963,-0.3679 -0.320643,-0.55674 -0.12437,-0.2325 -0.236821,-0.47119 -0.35523,-0.70679 -0.885211,-1.91217 -1.377997,-3.9635 -1.805453,-6.01665 -0.328348,-2.24576 -1.063061,-4.37669 -1.885616,-6.48005 -0.793618,-1.76588 -1.533187,-3.55155 -2.1981,-5.36979 -0.594358,-1.53898 -0.880266,-3.16181 -1.202169,-4.77136 -0.210624,-1.2019 -0.497644,-2.38828 -0.800082,-3.56986 -0.266517,-0.95521 -0.538316,-1.90875 -0.795509,-2.86659 -0.112318,-0.18857 -0.05938,-0.50561 -0.254402,-0.6192 -0.0141,-0.004 -0.0282,-0.008 -0.0423,-0.0123 -0.03124,-0.0154 -0.06248,-0.0309 -0.09373,-0.0463 0,0 -9.732166,5.66833 -9.732166,5.66833 v 0 c -0.03024,-0.0138 -0.06048,-0.0277 -0.09071,-0.0415 -0.0114,0.002 -0.02278,0.004 -0.03418,0.006 -0.08817,0.18037 0.155967,0.39086 0.164426,0.58928 0.347884,0.89482 0.633571,1.81122 0.871386,2.74142 0.299218,1.16604 0.542872,2.3443 0.837954,3.51129 0.4078,1.6274 0.824743,3.25633 1.43083,4.8238 0.701614,1.81377 1.463672,3.6057 2.302441,5.36052 0.902983,1.9929 1.52595,4.07457 1.889281,6.23495 0.441632,2.13801 0.976379,4.24815 1.774724,6.28574 0.09377,0.25878 0.190614,0.51646 0.281321,0.77633 0.06182,0.17713 0.0079,0.61725 0.176221,0.53451 14.864725,-7.30395 12.031493,-2.90725 8.756123,-6.29604 -1.648396,-1.74955 -3.099416,-3.69093 -5.011893,-5.17785 -1.981912,-1.78186 -3.915617,-3.64265 -6.170986,-5.08412 -3.319232,-2.11925 -6.814391,-3.85497 -10.653765,-4.83766 -1.647587,-0.45564 -3.081782,-0.88618 -4.763786,-1.21334 -2.948204,-0.57344 -5.963899,-0.74633 -8.961048,-0.62456 -0.149609,0.0223 -3.070456,0.37117 -3.180329,0.44188 -2.844295,1.83047 -13.905972,6.33138 -9.396671,6.78233 3.025747,0.48441 6.0409,1.03058 8.995139,1.86606 7.289469,2.03107 14.721782,4.27845 20.921165,8.77073 0.674513,0.54059 1.370462,1.05546 2.023536,1.62177 2.880463,2.49775 5.197848,5.58314 7.083822,8.88043 1.184685,2.41655 2.303256,4.9343 2.539513,7.64801 0,0 9.289095,-4.85025 9.289095,-4.85025 z" />
    <path
       style="fill:#000000;stroke-width:0.264583"
       id="path131"
       d="m 60.441614,158.0784 c -0.145568,1.96503 -0.05114,3.92911 0.05974,5.89281 0.04654,1.435 0.09033,2.87046 0.09714,4.30641 0.02511,1.26808 0.04112,2.536 0.05212,3.80426 0.01381,1.11504 -0.0094,2.22987 -0.02384,3.34472 -0.07612,0.57192 0.132543,1.01218 0.346509,1.51351 0.368122,0.67063 0.893979,0.7743 1.590982,0.59871 1.217289,-0.34992 2.191951,-1.0275 3.200466,-1.78671 1.223303,-0.92091 2.43079,-1.86264 3.646185,-2.79396 0,0 -0.248644,0.0958 -0.248644,0.0958 v 0 c 0.900771,-0.74456 1.814946,-1.47321 2.702319,-2.23369 0.165208,-0.14159 0.422994,-0.25468 0.452726,-0.47021 0.02214,-0.1606 -0.280305,0.16299 -0.42137,0.24289 -0.33305,0.18865 -0.478145,0.26977 -0.816883,0.43562 -0.119076,0.0583 -0.240112,0.11251 -0.360167,0.16877 -0.323024,0.14448 -0.61097,0.24406 -0.650205,0.61861 -0.162351,-0.3401 0.0024,-0.80404 -0.108921,-1.16366 -0.05174,-1.10575 -0.05797,-2.21168 -0.04937,-3.31849 -0.05346,-1.25275 -0.151479,-2.50337 -0.164193,-3.75802 -0.09297,-1.40161 -0.221869,-2.80025 -0.428879,-4.19005 -0.205086,-1.81917 -0.521552,-3.70413 -0.170312,-5.51754 0,0 -8.705408,4.21023 -8.705408,4.21023 z" />
    <path
       style="fill:#000000;stroke-width:0.264583"
       id="path133"
       d="m 89.443485,151.12582 c 0.777065,-2.04912 2.412029,-3.60794 3.962701,-5.08931 0.534977,-0.44469 1.052994,-0.9106 1.604928,-1.33405 1.906088,-1.46238 3.206941,-2.27072 5.331956,-3.55812 1.16037,-0.70298 4.67178,-2.76107 3.51127,-2.05832 -4.506136,2.72868 -6.876482,3.9144 -0.96738,0.78518 3.26416,-1.7003 6.66419,-3.13951 10.18719,-4.21164 2.10158,-0.63956 4.2779,-1.10128 6.41932,-1.59055 0.24348,-0.0408 0.48695,-0.0817 0.73043,-0.12254 -0.0666,-0.0353 -0.25881,-0.0588 -0.19992,-0.10593 2.67416,-2.13954 5.56121,-4.01373 8.15054,-6.25519 0.6659,-0.57645 -1.56078,0.81661 -2.34068,1.22585 -5.00313,2.62531 -2.48523,1.26248 -8.10243,4.4451 -2.91584,2.13802 -5.83168,4.27604 -8.74753,6.41406 0,0 0.24799,-0.0975 0.24799,-0.0975 v 0 c 0.4623,-0.19235 0.9246,-0.38471 1.38691,-0.57706 3.83411,-2.07379 3.40436,-1.92002 6.94602,-3.58128 0.6277,-0.29443 1.32363,-0.46231 1.89823,-0.8503 3.42796,-2.31468 6.79878,-4.71846 10.0795,-7.23748 0.37622,-0.28887 -2.79334,-0.24324 -1.41723,0.1278 -6.06698,1.75596 -12.20488,3.47811 -17.81328,6.45062 -7.25607,3.81502 -3.41351,1.74055 -15.279284,8.57473 -3.813336,2.19631 -7.658168,4.43427 -10.93054,7.40868 -1.599018,1.66207 -3.109593,3.40247 -4.036259,5.54257 0,0 9.377548,-4.30533 9.377548,-4.30533 z" />
  </g>
</svg>
