<?xml version="1.0" encoding="UTF-8" standalone="no"?>
<svg
   version="1.0"
   preserveAspectRatio="xMidYMid meet"
   viewBox="42.12 467.5 36.02 39.35"
   id="svg32"
   sodipodi:docname="rabbit-email.svg"
   inkscape:version="1.1.2 (0a00cf5339, 2022-02-04)"
   xmlns:inkscape="http://www.inkscape.org/namespaces/inkscape"
   xmlns:sodipodi="http://sodipodi.sourceforge.net/DTD/sodipodi-0.dtd"
   xmlns="http://www.w3.org/2000/svg"
   xmlns:svg="http://www.w3.org/2000/svg">
  <defs
     id="defs36" />
  <sodipodi:namedview
     id="namedview34"
     pagecolor="#ffffff"
     bordercolor="#666666"
     borderopacity="1.0"
     inkscape:pageshadow="2"
     inkscape:pageopacity="0.0"
     inkscape:pagecheckerboard="0"
     showgrid="false"
     inkscape:zoom="8.9197954"
     inkscape:cx="21.525157"
     inkscape:cy="17.937631"
     inkscape:window-width="1280"
     inkscape:window-height="652"
     inkscape:window-x="0"
     inkscape:window-y="0"
     inkscape:window-maximized="1"
     inkscape:current-layer="svg32" />
  <g
     transform="translate(0.000000,1356.000000) scale(0.100000,-0.100000)"
     fill="black"
     stroke="black"
     id="g30">
    <path
       id="path4"
       transform="matrix(10,0,0,-10,421.2,8885)"
       d="m 25.492188,5.9355469 c -0.039,0.00861 -0.07818,0.016815 -0.117188,0.025391 C 25.089886,6.8817709 24.736113,7.7894933 24.380859,8.5 c -0.9,1.7 -1.301562,3 -1.101562,3 0.867447,0 2.223572,-2.8494262 2.912109,-5.4589844 -0.144727,0.06867 -0.272534,0.095238 -0.367187,0.033203 -0.111947,0.017807 -0.212707,0.012332 -0.279297,-0.068359 -0.02077,-0.025171 -0.03533,-0.046532 -0.05273,-0.070312 z" />
    <path
       id="path6"
       transform="matrix(10,0,0,-10,421.2,8885)"
       d="m 12.095703,1.7480469 c -0.03563,-4.158e-4 -0.07147,6.312e-4 -0.107422,0.00391 -0.05102,0.0109 -0.128978,0.00467 -0.167969,0.046875 -0.163715,0.14701 -0.32819,0.2956225 -0.490234,0.4453125 -0.174315,0.15742 -0.278739,0.3766644 -0.380859,0.5839844 -0.122558,0.2882 -0.272059,0.5659281 -0.376953,0.8613281 -0.05495,0.18302 -0.112527,0.3655913 -0.160157,0.5507813 -0.04036,0.15616 -0.07421,0.3134062 -0.09961,0.4726562 -0.03104,0.17432 -0.05173,0.3498407 -0.07422,0.5253906 -0.0168,0.14553 -0.03117,0.2907669 -0.05469,0.4355469 -0.02229,0.13707 -0.07359,0.2663438 -0.09961,0.4023438 -7.39e-4,0.00327 -0.0012,0.0065 -0.002,0.00977 0.170477,0.025233 0.533413,-0.5638693 0.898438,-1.5859375 1,-2.5 1.099609,-2.5 2.599609,-0.5 1.4,1.7 1.500391,1.7992188 0.900391,0.1992188 -0.24412,-0.8137331 -0.446824,-1.5750793 -0.529297,-1.9824219 -0.122181,-0.035581 -0.250342,-0.054602 -0.375,-0.085937 -0.316695,-0.07661 -0.619124,-0.2008244 -0.927734,-0.3027344 -0.09668,-0.0364 -0.209972,-0.054488 -0.232422,-0.054687 -0.107676,-0.00945 -0.213436,-0.024143 -0.320313,-0.025391 z" />
    <path
       id="path8"
       transform="matrix(10,0,0,-10,421.2,8885)"
       d="m 21.195312,6.7324219 c -0.0039,5.222e-4 -0.0078,0.00143 -0.01172,0.00195 -0.297044,0.040324 -0.507284,0.1061198 -0.679688,0.074219 -0.0038,9.505e-4 -0.0079,0.001 -0.01172,0.00195 -0.08591,0.0214 -0.255954,0.1723844 -0.251954,0.083984 0.0018,-0.040579 0.0055,-0.068894 0.0078,-0.1054687 -0.0084,0.00138 -0.01694,0.00252 -0.02539,0.00391 C 19.952362,7.3004889 19.670616,7.8625365 19.380859,8.5 c -1.3,2.8 -2.101171,3.700781 -2.701171,2.800781 -0.600001,-1 -0.798829,-0.801562 -0.798829,0.398438 0,1 0.4,1.800781 1,1.800781 0.732595,0 3.274363,-4.2248141 4.314453,-6.7675781 z" />
    <path
       id="path10"
       transform="matrix(10,0,0,-10,421.2,8885)"
       d="m 15.314453,6.6777344 c -0.232324,-0.034595 -0.415234,0.528125 -0.333984,1.421875 0,1.1 0.299609,1.3996094 0.599609,0.5996094 0.3,-0.7 0.200391,-1.5984376 -0.09961,-1.8984376 -0.05625,-0.075 -0.112403,-0.1150634 -0.166016,-0.1230468 z" />
    <path
       id="path12"
       transform="matrix(10,0,0,-10,421.2,8885)"
       d="m 11.314453,8.6777344 c -0.232324,-0.034595 -0.415234,0.528125 -0.333984,1.4218746 0,1.1 0.299609,1.39961 0.599609,0.59961 0.3,-0.7000002 0.200391,-1.5984378 -0.09961,-1.8984378 -0.05625,-0.075 -0.112403,-0.1150634 -0.166016,-0.1230468 z" />
    <path
       stroke-width="3"
       d="M536 8743 c-6 -14 -5 -15 5 -6 7 7 10 15 7 18 -3 3 -9 -2 -12 -12z"
       id="path14" />
    <path
       stroke-width="3"
       d="M644 8724 l1 -39 -53 -3 c-47 -3 -53 -1 -62 20 -8 22 -9 22 -7 -4 1 -27 3 -28 57 -28 31 0 61 5 68 12 14 14 15 47 3 67 -5 8 -8 -1 -7 -25z"
       id="path16" />
    <path
       id="path18"
       transform="matrix(10,0,0,-10,421.2,8885)"
       d="m 35.628906,21.041016 c -0.526367,-0.0123 -2.211328,0.809375 -4.048828,1.859375 -5.5,3.3 -5.899219,4.3 -0.699219,1.5 5.6,-2.9 5.398438,-2.800782 4.898438,-3.300782 -0.025,-0.0375 -0.0752,-0.05684 -0.150391,-0.05859 z" />
    <path
       id="path20"
       transform="matrix(10,0,0,-10,421.2,8885)"
       d="m 2.8574219,22.205078 c -0.089029,0.05122 -0.179046,0.105323 -0.2714844,0.160156 -0.2984417,0.30268 -0.5961502,0.60573 -0.8886719,0.914063 -0.1751562,0.219581 -0.3488732,0.440382 -0.5234375,0.660156 0.1886407,0.181472 0.4470357,0.216545 0.7070313,0.06055 0.6,-0.3 1,-0.999609 1,-1.599609 0,-0.06747 -0.00865,-0.132409 -0.023437,-0.195313 z" />
    <path
       id="path22"
       transform="matrix(10,0,0,-10,421.2,8885)"
       d="m 6.2949219,24.519531 c -0.067137,-0.0067 -0.1092531,0.0032 -0.1269531,0.03125 -0.084961,0.134766 0.4113281,0.673438 1.6113281,1.648438 L 9.9804688,28 l -4.5,3.800781 L 0.98046875,35.5 0.58007812,30.300781 0.39648438,27.070312 C 0.34781354,27.67948 0.2911571,28.287805 0.234375,28.896484 c -0.00649,0.07373 -0.0316437,0.216588 -0.0273438,0.304688 0.00205,0.04166 0.051715,0.102047 0.015625,0.123047 -0.0248152,0.01442 -0.0413174,0.02533 -0.0644531,0.03906 0.002185,0.157812 0.00627,0.314777 0.005859,0.472657 -0.0078,0.34647 -0.007106,0.694515 -0.003906,1.041015 0.02098,0.34047 0.008104,0.681105 0.0273438,1.021485 0.012,0.314399 0.0289825,0.628879 0.0390625,0.943359 0.0059,0.25281 0.0106006,0.505352 0.0253906,0.757812 0.021298,0.3022 0.0533031,0.606001 0.12695313,0.900391 0.059105,0.21712 0.0902394,0.435226 0.16210937,0.648438 0.111887,0.27311 0.15823688,0.564002 0.21679688,0.851562 0.01313,0.08516 0.0287856,0.170559 0.0410156,0.255859 0.01524,0.10626 0.0308987,0.264208 0.0429688,0.367188 0.01096,0.09348 0.03565,0.22565 0.03125,0.15625 0.11156599,0.22265 0.15070312,0.47214 0.15820312,0.71875 -0.00283,0.04208 -0.00575,0.08352 -0.00781,0.125 0.3387499,0.199774 0.7814511,0.33257 1.3574219,0.476562 0.1259584,0.02907 0.258443,0.05495 0.390625,0.08008 0.00197,-0.07674 0.024277,-0.105274 0.091797,-0.113282 0.00501,-0.006 0.017529,-0.0053 0.03125,-0.002 0.045438,-0.0021 0.1058888,-1.8e-4 0.1855469,0 0.380351,0.0434 0.757294,0.09634 1.140625,0.119141 0.3091371,0.02677 0.616642,0.02739 0.9238281,0.0039 h 0.00195 c 0.1712545,-0.01983 0.3430847,-0.04239 0.5136718,-0.06641 0.2368747,-0.0451 0.4722397,-0.09618 0.7070313,-0.150391 0.038359,-0.207034 -0.5769234,-0.371094 -1.6875,-0.371094 -3.9,-0.1 -3.5003906,-1.399609 1.5996094,-5.599609 3.8000001,-3.1 4.8000001,-3.5 6.5000001,-2.5 3.5,1.8 2.301562,0.399609 -1.898438,-2.400391 -2.46093,-1.640513 -4.1159798,-2.532947 -4.5859371,-2.580078 z" />
    <path
       id="path24"
       transform="matrix(10,0,0,-10,421.2,8885)"
       d="M 25.421875,26.537109 C 24.856445,26.546875 23.505859,27.25 21.880859,28.5 c -1.4,1.1 -3.4,1.999609 -4.5,2.099609 -1.6,0.1 -1.700781,0.19961 -0.300781,0.59961 0.9,0.2 2.800781,-0.298828 4.300781,-1.298828 2.5,-1.7 2.6,-1.600782 6.5,2.199218 2.2,2.1 3.8,4.49961 3.5,5.09961 -0.06858,0.240046 -0.09951,0.465625 -0.09375,0.662109 0.0017,4.08e-4 0.0054,0.0015 0.0059,0.002 0.01565,0.01414 0.03259,0.02888 0.04883,0.04297 0.165625,-0.115392 0.328941,-0.234542 0.486328,-0.357422 0.301882,-0.26789 0.619526,-0.514986 0.888672,-0.816406 0.273124,-0.30713 0.494898,-0.653712 0.740234,-0.982422 0.01326,-0.01828 0.02927,-0.03478 0.04297,-0.05273 C 32.80595,35.503634 31.231748,34.276853 29.380859,32.5 c -2.4,-2.4 -4.20039,-4.699219 -3.90039,-5.199219 0.3375,-0.525 0.280656,-0.769531 -0.05859,-0.763672 z m 8.775391,8.15625 c -0.142555,0.03764 -0.257136,0.226478 -0.298828,0.53711 0.09973,-0.110521 0.198508,-0.22147 0.287109,-0.339844 0.0019,-0.06597 0.0078,-0.131332 0.01172,-0.197266 z" />
  </g>
  <path
     style="fill:#000000;fill-opacity:1;fill-rule:nonzero;stroke:none"
     id="path71"
     d="m 65.053465,478.60213 c -0.08836,0.45206 -0.159432,0.90709 -0.222418,1.36331 -0.05117,0.42694 -0.06069,0.85737 -0.09494,1.28567 -0.04399,0.29617 -0.01462,0.59236 -0.0073,0.88915 0.01349,0.15583 0.0098,0.31215 0.01064,0.46834 -7.47e-4,0.15086 0.01372,0.30111 0.02151,0.45163 0.0033,0.0915 0.0094,0.18293 0.0062,0.27447 -0.0018,0.027 -7.2e-5,0.0575 0.01164,0.082 0.001,2.4e-4 0.0021,4.8e-4 0.0031,7.2e-4 0.0038,-0.002 0.0077,-0.003 0.01152,-0.005 0,0 1.054682,-0.53423 1.054682,-0.53423 v 0 c 0.0039,-0.003 0.0077,-0.005 0.01159,-0.008 0.0011,-0.002 0.0021,-0.003 0.0032,-0.005 0.0095,-0.0309 0.01426,-0.0642 0.0111,-0.0967 -0.0057,-0.0931 -0.0034,-0.18666 -0.01426,-0.27949 -0.0153,-0.14373 -0.03299,-0.28802 -0.02927,-0.4328 0.0099,-0.16035 0.0098,-0.3157 -0.02689,-0.47344 -0.0339,-0.28712 -0.0055,-0.57727 -10e-4,-0.86552 0.02914,-0.42336 0.05364,-0.84632 0.07712,-1.27016 0.05223,-0.46572 0.152193,-0.92527 0.285403,-1.37462 0,0 -1.111508,0.52919 -1.111508,0.52919 z" />
  <path
     id="path73"
     style="fill:#000000;fill-opacity:1;fill-rule:nonzero;stroke:none"
     transform="translate(42.12,467.5)"
     d="m 21.857422,6.6367188 c -0.224252,0.034356 -0.4488,0.067794 -0.673828,0.097656 -0.105705,0.014349 -0.189464,0.029672 -0.275391,0.044922 -0.03166,0.1051973 -0.06362,0.210598 -0.09961,0.3144531 -0.135159,0.3755142 -0.14736,0.3060279 0.373047,-0.011719 0.51575,-0.1724851 0.557493,-0.094317 0.675781,-0.4453124 z" />
  <path
     id="path75"
     style="fill:#000000;fill-opacity:1;fill-rule:nonzero;stroke:none"
     transform="translate(42.12,467.5)"
     d="M 14.837891,4.1425781 13.830078,4.703125 c 0.102516,0.32354 0.28299,0.6188294 0.451172,0.9121094 0.147099,0.23057 0.285729,0.4625443 0.404297,0.7089844 0.105448,0.20915 0.203162,0.4216581 0.28125,0.6425781 0.07626,0.2223 0.130613,0.4505275 0.181641,0.6796875 0.03613,0.18501 0.04899,0.3727368 0.05859,0.5605468 0.01103,0.2166001 0.03511,0.4319444 0.06641,0.6464844 0.0446,0.23802 0.08898,0.4774238 0.136718,0.7148438 0.059,0.28186 0.100384,0.5661196 0.150391,0.8496096 0.04679,0.27868 0.07972,0.560394 0.121094,0.839843 0.04089,0.239701 0.09248,0.476761 0.15039,0.712891 0.04558,0.12474 0.04838,0.291875 0.144531,0.390625 0.268266,0.0252 0.06077,0.02008 0.583985,-0.199219 l 0.03125,-0.01563 c 0.492824,-0.33986 0.36409,-0.159542 0.517578,-0.414062 0.0038,-0.13654 -0.08559,-0.260391 -0.107422,-0.394531 -0.05792,-0.23247 -0.108064,-0.465965 -0.142578,-0.703125 -0.04284,-0.27763 -0.08994,-0.554732 -0.134766,-0.8320316 -0.03925,-0.28837 -0.09048,-0.5750282 -0.142578,-0.8613282 -0.046,-0.2357499 -0.104954,-0.4700143 -0.132812,-0.7089843 -0.03171,-0.2116 -0.05768,-0.4222188 -0.05664,-0.6367188 -0.01072,-0.1933 -0.03319,-0.3869387 -0.08398,-0.5742187 -0.05961,-0.23128 -0.130335,-0.4608331 -0.199219,-0.6894532 -0.08629,-0.2239999 -0.197885,-0.4358043 -0.3125,-0.6464843 -0.146418,-0.23361 -0.313006,-0.4550375 -0.472656,-0.6796875 -0.1907,-0.27367 -0.326649,-0.5721213 -0.486328,-0.8632813 z" />
  <path
     id="path77"
     style="fill:#000000;fill-opacity:1;fill-rule:nonzero;stroke:none"
     transform="translate(42.12,467.5)"
     d="m 11.158203,3.9726562 -0.775391,0.3945313 c -0.02676,0.1143686 -0.05179,0.2295589 -0.07031,0.3457031 -0.03104,0.17432 -0.05173,0.3498407 -0.07422,0.5253906 -0.0168,0.14553 -0.03117,0.2907669 -0.05469,0.4355469 -0.02229,0.13707 -0.07359,0.2663438 -0.09961,0.4023438 -0.03823,0.169 -0.03433,0.3416718 -0.03516,0.5136719 1.11e-4,0.044988 2.35e-4,0.089763 0,0.1347656 0.03372,0.1177412 0.06328,0.2370474 0.08789,0.359375 0.116297,0.44433 0.256301,0.88443 0.300781,1.34375 0.03488,0.59464 0.107003,1.1855006 0.189453,1.7753906 0.04206,0.30558 0.06383,0.438802 0.0918,0.763672 0.0017,0.02 0.01592,0.05755 -0.0039,0.06055 -0.05701,0.0085 -0.1147,0.01505 -0.171875,0.02148 0.01206,0.04383 0.02705,0.08644 0.03711,0.13086 0.06043,0.223779 0.122327,0.447898 0.195313,0.667968 0.04304,0.17345 0.05015,0.340175 0.0078,0.515625 -0.03465,0.17552 -0.06056,0.349597 -0.05273,0.529297 0.0021,0.24599 4.83e-4,0.493242 -0.06641,0.732422 -0.06802,0.2675 -0.151806,0.529942 -0.228515,0.794922 -0.06593,0.24987 -0.139814,0.496737 -0.220703,0.742187 -0.08287,0.24724 -0.166818,0.494674 -0.2363284,0.746094 -0.07455,0.23523 -0.1747712,0.467371 -0.2070312,0.712891 -0.02421,0.25744 0.00657,0.515432 0.078125,0.763672 0.09336,0.29079 0.1790076,0.588668 0.3183596,0.861328 0.08278,0.1549 0.175631,0.306139 0.228515,0.474609 0.0065,-0.0032 0.01301,-0.0065 0.01953,-0.0098 -0.0053,0.01115 -0.01242,0.02377 -0.01563,0.03125 0.105343,-0.05999 0.211062,-0.119698 0.316406,-0.179688 0.197189,-0.09773 0.394608,-0.195247 0.591797,-0.292969 -0.0079,-0.0055 -0.02496,-0.01305 -0.03516,-0.02344 0.0079,-0.0045 0.01558,-0.0092 0.02344,-0.01367 -0.0047,-0.01254 -0.01059,-0.02472 -0.01563,-0.03711 0.02853,-0.04812 0.07943,-0.08625 0.08789,-0.144531 0.07375,-0.19836 0.04966,-0.402745 0.08398,-0.609375 0.03763,-0.126 0.05592,-0.256172 0.0918,-0.382812 0.05707,-0.20452 0.111123,-0.410951 0.175781,-0.613282 0.05687,-0.207429 0.116465,-0.413626 0.166016,-0.623046 0.04869,-0.223 0.09373,-0.44647 0.1875,-0.65625 0.10172,-0.23277 0.203913,-0.46667 0.330078,-0.6875 0.0818,-0.14039 0.168794,-0.277712 0.236328,-0.425782 0.05722,-0.1426 0.09399,-0.291872 0.107422,-0.445312 0.01816,-0.19629 0.01375,-0.391831 -0.0078,-0.587891 -0.02051,-0.24033 -0.03468,-0.481636 -0.04101,-0.722656 -0.01658,-0.22298 -0.05369,-0.442269 -0.09375,-0.662109 -0.05118,-0.24771 -0.103095,-0.494368 -0.152344,-0.742188 -0.05484,-0.20829 -0.09502,-0.420839 -0.142578,-0.630859 C 12.255217,10.004959 12.203888,9.7471237 12.125,9.4960938 12.05437,9.2227638 11.986883,8.9486475 11.900391,8.6796875 11.827571,8.4098475 11.776125,8.1363281 11.726562,7.8613281 11.691733,7.6572181 11.669263,7.4507469 11.626953,7.2480469 11.585393,7.0802969 11.566878,6.90444 11.484375,6.75 11.414475,6.54812 11.369968,6.3398256 11.310547,6.1347656 c -0.04446,-0.21004 -0.05926,-0.4239387 -0.08594,-0.6367187 -0.01849,-0.24245 -0.03608,-0.4850125 -0.06445,-0.7265625 -0.0071,-0.26649 0.0028,-0.5324582 -0.002,-0.7988282 z m 0.472656,9.3847658 c 0.0063,0.07598 0.01254,0.152345 0.01758,0.228516 0.01964,0.190159 0.02023,0.378909 -0.0039,0.568359 -0.01575,0.1451 -0.05506,0.280733 -0.125,0.408203 -0.08117,0.14094 -0.167759,0.278452 -0.248047,0.419922 -0.116716,0.22996 -0.233277,0.461585 -0.324218,0.703125 -0.07566,0.2214 -0.124927,0.449921 -0.185547,0.675781 -0.03361,0.111968 -0.06025,0.226387 -0.08789,0.339844 -0.03038,-0.174732 -0.03497,-0.348077 0.0078,-0.525391 0.08862,-0.24206 0.176142,-0.484676 0.27539,-0.722656 0.102865,-0.25069 0.188331,-0.509678 0.271485,-0.767578 0.0817,-0.24935 0.157238,-0.498923 0.226562,-0.751953 0.05444,-0.193326 0.116427,-0.384336 0.175781,-0.576172 z" />
  <path
     style="fill:#000000;fill-opacity:1;fill-rule:nonzero;stroke:none"
     id="path79"
     d="m 53.533977,481.94563 c -0.110966,0.34785 -0.228174,0.69325 -0.337227,1.04194 -0.01148,0.22211 -0.07308,0.43743 -0.10396,0.65646 -0.0095,0.0677 -0.0078,0.13662 -0.01797,0.20419 -0.125296,0.83415 0.02394,-0.36059 -0.06996,0.42226 0.0024,0.15366 -0.09199,0.33435 -0.03162,0.48746 0.01336,0.0339 0.04004,0.0626 0.06902,0.0847 0.03277,0.0249 0.120457,0.0126 0.11167,0.0529 -0.01691,0.0774 -0.107575,0.11645 -0.161362,0.17468 0.0025,0.0248 0.0095,0.0495 0.0074,0.0743 -0.0044,0.0536 -0.0093,0.0507 -0.03961,0.0727 0.180889,-0.10264 0.369929,-0.19208 0.542666,-0.30791 0.0031,-0.002 -0.0084,-0.12755 -0.01156,-0.16608 -0.0083,-0.05 -0.01486,-0.1004 -0.02488,-0.15013 -0.02775,-0.13772 -0.07734,-0.3082 -0.09132,-0.44677 -0.02802,-0.27773 -0.0038,-0.56669 0.0076,-0.84464 0.02998,-0.30041 0.04663,-0.60505 0.105898,-0.90184 0.0652,-0.32652 0.170051,-0.64726 0.249697,-0.97058 0.105629,-0.46608 0.202373,-0.93492 0.323451,-1.39727 0.01192,-0.0243 0.05995,-0.085 0.03577,-0.0729 -0.325074,0.1633 -0.656498,0.32137 -0.952207,0.53325 -0.03868,0.0277 0.01055,0.0949 0.0091,0.14248 -0.0076,0.25749 -0.05917,0.51803 -0.09473,0.77247 -0.0066,0.40804 -0.08185,0.80798 -0.143933,1.20931 -0.0487,0.39587 -0.02093,0.19852 -0.08329,0.59206 -0.04765,0.44276 -0.111537,0.88384 -0.125095,1.32926 -0.02358,0.3661 0.0583,0.61531 0.185493,0.94832 0.09447,0.26594 0.227015,0.51729 0.309995,0.78709 0.06813,0.15817 0.115374,0.33511 0.209846,0.47995 0.08525,0.062 0.07915,0.16157 0.118842,0.24702 0.04136,0.0887 0.08532,0.17622 0.131944,0.26252 0.07361,0.12737 0.117278,0.26534 0.195165,0.39196 0.100948,0.12173 0.162171,0.21821 0.300778,0.30004 0.09256,0.0677 0.190792,0.0911 0.301403,0.10869 0.131245,0.0399 0.266523,0.0613 0.400051,0.0937 0.422676,0.13686 0.342859,0.0592 0.886242,-0.22972 0,0 0.02755,-0.0194 0.02755,-0.0194 v 0 c 0.442206,-0.41582 0.457973,-0.3158 0.07309,-0.42826 -0.144131,-0.0442 -0.29049,-0.0767 -0.441889,-0.0763 -0.118132,-0.0263 -0.23216,-0.0266 -0.351759,-0.0369 -0.118219,-0.0482 -0.20782,-0.14746 -0.26443,-0.26038 -0.08766,-0.11037 -0.194538,-0.2129 -0.240555,-0.34862 -0.04144,-0.0869 -0.08307,-0.17413 -0.102377,-0.26895 -0.03241,-0.0919 -0.118838,-0.14548 -0.09549,-0.25748 -0.02964,-0.17266 -0.122482,-0.33636 -0.189057,-0.49728 -0.139766,-0.24289 -0.219948,-0.51312 -0.343148,-0.7644 -0.116964,-0.28731 -0.181174,-0.59173 -0.182828,-0.90296 0.0017,-0.43298 0.0602,-0.86234 0.0701,-1.29502 -0.0097,-0.60566 0.04531,-1.20639 0.220005,-1.78942 0.04414,-0.26332 0.07458,-0.53093 0.126056,-0.79288 0.01182,-0.0601 0.103301,-0.19306 0.04377,-0.17853 -0.959608,0.23422 -0.932465,0.0673 -0.951953,0.46221 -0.096,0.46068 -0.187051,0.92239 -0.286545,1.38242 -0.05067,0.30292 -0.07254,0.60283 -0.10769,0.90747 -0.03464,0.30022 -0.09103,0.59888 -0.08475,0.9028 0.0026,0.30682 0.0274,0.51724 0.07063,0.81847 0.01724,0.12011 0.03556,0.34641 0.06681,0.46959 0.01216,0.0479 0.03584,0.0922 0.05377,0.13826 0.041,0.0664 0.08789,0.14604 0.09638,0.14298 0.754276,-0.27199 0.482575,-0.0965 0.604335,-0.4422 -0.04359,-0.0105 -0.133621,0.0133 -0.130772,-0.0315 0.0049,-0.0763 0.09952,-0.1162 0.144127,-0.17822 0.152517,-0.21207 0.200669,-0.44168 0.214974,-0.69902 0.0078,-0.0679 0.01569,-0.13569 0.02353,-0.20354 9.14e-4,-0.0652 -0.0038,-0.13067 0.0027,-0.19552 0.0072,-0.0712 0.02682,-0.14061 0.03827,-0.21125 0.03693,-0.22787 0.0667,-0.45679 0.155774,-0.67258 0.07818,-0.36943 0.163526,-0.7422 0.416231,-1.03673 0,0 -0.888357,0.3812 -0.888357,0.3812 z" />
  <path
     id="path83"
     style="fill:#000000;fill-opacity:1;fill-rule:nonzero;stroke:none"
     transform="translate(42.12,467.5)"
     d="m 1.9882812,23.128906 -0.2597656,0.117188 c -0.010471,0.01101 -0.020792,0.02218 -0.03125,0.0332 -0.195386,0.244942 -0.389014,0.491489 -0.5839844,0.736328 -0.081435,0.08485 -0.1635044,0.139593 -0.24218745,0.171875 -0.026505,0.03066 -0.053753,0.06097 -0.0800781,0.0918 -0.0524984,0.07081 -0.15895094,0.228117 -0.27539062,0.388672 -0.0193492,0.43725 -0.0364161,0.875142 -0.0429687,1.3125 -0.0120159,0.216813 -0.0255378,0.433877 -0.0410156,0.65039 0.0402301,-0.01604 0.0826521,-0.03223 0.13085938,-0.04883 L 0.59570312,26.5625 C 1.2215691,26.11853 1.1546933,26.381377 1.2070312,26.029297 c -0.009,-0.17147 -0.00301,-0.344299 0.039063,-0.511719 0.02611,-0.0888 0.041141,-0.179394 0.050781,-0.271484 0.0599,-0.36543 0.1578695,-0.726775 0.2734375,-1.078125 0.125091,-0.35197 0.2433552,-0.707803 0.4179687,-1.039063 z" />
  <path
     id="path85"
     style="fill:#000000;fill-opacity:1;fill-rule:nonzero;stroke:none"
     transform="translate(42.12,467.5)"
     d="m 3.4238281,21.929688 -0.7578125,0.388671 c -0.027654,0.01649 -0.056044,0.03226 -0.083984,0.04883 -0.1438146,0.145935 -0.2867169,0.292691 -0.4296874,0.439453 -5.061e-4,0.234249 -0.015489,0.46893 -0.023438,0.703125 -0.01272,0.31 0.029534,0.618051 0.058594,0.925781 0.02246,0.26328 0.063091,0.525417 0.1367188,0.779297 0.08168,0.25944 0.2138022,0.492541 0.3789062,0.707031 0.145256,0.17731 0.3384596,0.291295 0.5410156,0.390625 0.288565,0.12453 0.5846531,0.101058 0.8769532,0.0098 0.7453659,-0.32271 1.5087003,-0.683723 1.9433593,-1.376954 0.117291,-0.208417 0.2227802,-0.421688 0.3144531,-0.642578 0.07484,-0.20399 0.1219393,-0.419292 0.1601563,-0.632812 0.04313,-0.26389 0.066549,-0.527642 0.068359,-0.794922 -0.0016,-0.0505 0.00818,-0.427789 -0.019531,-0.443359 -0.146336,-0.0821 -0.6376165,0.08696 -0.6953125,0.101562 l -0.035156,0.01758 c -0.14937,0.11824 -0.5356802,0.391737 -0.6582031,0.591797 -0.05495,0.0897 0.0082,0.348428 -0.015625,0.455078 -0.0056,0.25247 -0.00431,0.50624 -0.046875,0.75586 -0.03631,0.20158 -0.075674,0.4042 -0.15625,0.59375 -0.083718,0.203065 -0.177291,0.401916 -0.2949219,0.58789 -0.064169,-0.0073 -0.1292424,-0.02165 -0.1953125,-0.04687 C 4.3037059,25.405699 4.12203,25.3109 3.984375,25.15625 3.817789,24.96576 3.7036168,24.742817 3.6367188,24.498047 3.5699585,24.251997 3.54209,24.000093 3.484375,23.751953 c -0.05698,-0.29191 -0.079118,-0.589479 -0.080078,-0.886719 0.0036,-0.31177 0.021521,-0.623678 0.019531,-0.935546 z m 2.046875,3.365234 c 0.010906,-0.006 -0.041595,0.02632 -0.1835937,0.113281 -0.01311,0.0061 -0.025955,0.01181 -0.039063,0.01758 0.1254844,-0.07332 0.2112078,-0.124541 0.2226562,-0.130859 z" />
  <path
     id="path87"
     style="fill:#000000;fill-opacity:1;fill-rule:nonzero;stroke:none"
     transform="translate(42.12,467.5)"
     d="m 11.330078,19.873047 c -0.03976,0.0022 -0.134356,0.04037 -0.121094,0.01172 -0.163251,0.002 -0.326319,0.0049 -0.488281,0.0293 -0.228839,0.0242 -0.459376,0.04913 -0.681641,0.111329 -0.3920425,0.0992 -0.7886784,0.180908 -1.1835932,0.267578 -0.3764641,0.0932 -0.7470149,0.202205 -1.1230469,0.296875 -0.256644,0.0561 -0.5145718,0.0968 -0.7773438,0.109375 -0.190102,0.0186 -0.3806887,0.04291 -0.5605469,0.111328 -0.2209098,0.0709 -0.4413086,0.138225 -0.6640624,0.203125 -0.1546362,0.0458 -0.3106218,0.09145 -0.4648438,0.138672 -0.264626,0.0717 -0.5309934,0.13265 -0.8007812,0.18164 -0.083755,0.01652 -0.1679539,0.03241 -0.2519532,0.05078 -0.033144,0.08442 -0.1192928,0.161296 -0.2578125,0.25 -0.352188,0.17037 -0.7019607,0.347222 -1.0429687,0.539062 -0.1061822,0.0596 -0.2149441,0.125427 -0.3261719,0.191406 -0.2388895,0.242528 -0.4771307,0.484915 -0.7128906,0.730469 0.00729,0.07034 0.027318,0.144531 0.0625,0.226563 l 1.2558593,-0.71875 c -0.0636,-0.144658 -0.054212,-0.259107 -0.00195,-0.357422 0.031336,-0.0065 0.062051,-0.01338 0.09375,-0.01953 0.263083,-0.0409 0.5243833,-0.09403 0.7832031,-0.15625 0.1496723,-0.0359 0.2971985,-0.07739 0.4453126,-0.11914 0.2246097,-0.0674 0.4494111,-0.135115 0.6738281,-0.203125 0.17637,-0.059 0.3552965,-0.105003 0.5390625,-0.132813 0.26737,-0.0227 0.533383,-0.05653 0.796875,-0.107422 0.381481,-0.0847 0.7548355,-0.198065 1.1328125,-0.296874 0.385274,-0.10071 0.7764446,-0.176173 1.1660156,-0.257813 0.219769,-0.0551 0.4431348,-0.09401 0.6679687,-0.121094 0.158074,-0.0133 0.3158194,-0.03716 0.4746094,-0.03906 0.1185194,0.0256 0.1276624,-0.01281 0.2343754,-0.08398 0.173132,-0.11553 0.350323,-0.22532 0.52539,-0.33789 l 0.0332,-0.01758 c 0.204403,-0.1449 0.484955,-0.239247 0.589844,-0.466797 0.0053,-0.01145 -0.0024,-0.01442 -0.01563,-0.01367 z" />
  <path
     style="fill:#000000;fill-opacity:1;fill-rule:nonzero;stroke:none"
     id="path89"
     d="m 47.349424,489.38297 c 0.0632,0.0867 0.170485,0.48468 0.235125,0.5089 0.182935,0.0686 0.390078,0.0222 0.585117,0.0333 0,0 0.03437,-0.0178 0.03437,-0.0178 v 0 c 0.179526,-0.21201 0.400617,-0.3949 0.53858,-0.63604 0.0969,-0.16935 -0.04429,-0.46386 -0.100481,-0.62736 0,0 -1.29271,0.73897 -1.29271,0.73897 z" />
  <path
     style="fill:#000000;fill-opacity:1;fill-rule:nonzero;stroke:none"
     id="path91"
     d="m 47.549483,489.48873 c -0.0155,0.44331 -0.03542,0.88645 -0.05452,1.32962 -0.01642,0.34602 -0.02825,0.69224 -0.047,1.03814 -6.81e-4,0.007 -0.02236,0.19118 -0.01123,0.20922 0.01556,0.0252 0.05278,0.0444 0.08121,0.0361 0.2006,-0.0586 0.388791,-0.15338 0.583186,-0.23007 0,0 0.03477,-0.017 0.03477,-0.017 v 0 c 0.144271,-0.0846 0.581146,-0.24292 0.707963,-0.48625 0.02608,-0.05 0.02672,-0.17942 0.0294,-0.23192 0.0054,-0.33784 -0.02028,-0.67594 3.04e-4,-1.0138 0.01582,-0.44681 0.03443,-0.89396 0.08641,-1.33832 0,0 -1.410487,0.70433 -1.410487,0.70433 z" />
  <path
     style="fill:#000000;fill-opacity:1;fill-rule:nonzero;stroke:none"
     id="path93"
     d="m 47.544412,489.50005 c 0.425066,-0.14532 0.85593,-0.26846 1.294527,-0.36523 0.536344,-0.10082 1.064266,-0.23991 1.598039,-0.35256 0.452362,-0.0939 0.909556,-0.15888 1.369767,-0.19741 0.410992,-0.0334 0.82306,-0.0192 1.233794,0.008 0.267452,0.0205 0.533514,0.0549 0.800567,0.0795 0.258724,0.0247 0.517653,0.0467 0.776761,0.0669 0.290834,0.0251 0.582362,0.0387 0.874176,0.044 0.363494,-0.002 0.726959,-0.01 1.090386,-0.0173 0.379838,-0.007 0.759676,-0.01 1.139541,-0.005 0.517486,0.01 1.033374,-0.0453 1.548157,-0.091 0.482324,-0.0432 0.964006,-0.0931 1.447125,-0.12669 0.466823,-0.0308 0.934682,-0.0152 1.401794,-0.002 0.331302,0.008 0.662676,0.0207 0.993961,0.007 0.258237,-0.0165 0.515485,-0.0433 0.774058,-0.0548 0.166506,-0.005 0.333136,-0.0126 0.499505,-0.002 0.15449,0.0101 0.283284,0.0665 0.387051,0.18026 0.13907,0.21604 0.139571,0.48452 0.157548,0.73262 0.03019,0.39377 0.05963,0.79688 0.212278,1.16653 0.0328,0.0794 0.07655,0.15385 0.114833,0.23078 0.169588,0.36072 0.406276,0.67337 0.708659,0.93105 0.145876,0.115 0.309704,0.19806 0.485957,0.25416 0.16411,0.0482 0.335773,0.05 0.505315,0.0539 0.193794,0.008 0.382594,-0.0108 0.569255,-0.0623 0.697423,-0.30917 1.441818,-0.6342 1.937464,-1.22585 0.134592,-0.23978 0.270833,-0.48038 0.387611,-0.72962 0.130887,-0.24827 0.204467,-0.51587 0.277132,-0.78495 0.03315,-0.28491 0.06379,-0.57477 0.0315,-0.86075 -0.03704,-0.30133 -0.151655,-0.56854 -0.325179,-0.81429 -0.16886,-0.25502 -0.375468,-0.47653 -0.607343,-0.67432 -0.291377,-0.24465 -0.637255,-0.38951 -0.995656,-0.50369 -0.345062,-0.10494 -0.700441,-0.11242 -1.055813,-0.0744 -0.766682,0.14017 -1.498579,0.56711 -2.037605,1.13031 -0.341568,0.43067 -0.290127,0.34282 0.475396,0.11254 0,0 0.03507,-0.0164 0.03507,-0.0164 v 0 c 0.247004,-0.142 0.49975,-0.27446 0.741011,-0.42601 0.109238,-0.0686 0.151786,-0.22497 0.264592,-0.29226 0.428008,-0.35641 1.236528,-0.7282 -1.12468,0.61127 -0.03501,0.0199 0.06682,-0.0452 0.102517,-0.0638 0.09865,-0.0514 0.128852,-0.0519 0.237845,-0.0792 0.340948,-0.0581 0.68498,-0.0741 1.024034,0.0106 0.340096,0.0985 0.677621,0.22404 0.953404,0.4532 0.221507,0.18277 0.434337,0.3777 0.575155,0.63233 0.127405,0.24422 0.249548,0.48258 0.264238,0.7643 0.02639,0.26765 0.0406,0.53346 -0.01959,0.7989 -0.0294,0.25044 -0.1275,0.48654 -0.22409,0.71796 -0.116712,0.24935 -0.220017,0.50612 -0.429821,0.69537 -0.07954,0.0773 -0.101841,0.10363 -0.189968,0.17068 -0.03404,0.0259 -0.142475,0.0944 -0.105241,0.0734 2.225018,-1.25725 1.539179,-0.89481 1.069496,-0.61095 -0.172386,0.0792 -0.352769,0.11872 -0.543579,0.11454 -0.157235,6.3e-4 -0.315218,-0.002 -0.470621,-0.0289 -0.163677,-0.0351 -0.312426,-0.0975 -0.44519,-0.20218 -0.300565,-0.22187 -0.536904,-0.50648 -0.686231,-0.8517 -0.155532,-0.44542 -0.261559,-0.90021 -0.246849,-1.37614 -0.0085,-0.28982 -0.02592,-0.58813 -0.187013,-0.8395 -0.116313,-0.14722 -0.261616,-0.25282 -0.449146,-0.29026 -0.175486,-0.0305 -0.351782,-0.0244 -0.529047,-0.012 -0.259334,0.0127 -0.518856,0.0233 -0.776938,0.0535 -0.339292,0.0291 -0.679585,0.0415 -1.020126,0.0295 -0.473149,-0.008 -0.946831,-0.0242 -1.419817,-0.002 -0.486958,0.0282 -0.972136,0.0743 -1.456973,0.12775 -0.511921,0.0517 -1.024879,0.0985 -1.539783,0.10415 -0.382135,0.003 -0.764283,-0.004 -1.146376,0.006 -0.360887,0.005 -0.721673,0.0157 -1.082589,0.0179 -0.288734,-0.003 -0.577203,-0.0144 -0.865064,-0.0379 -0.257966,-0.0206 -0.51567,-0.044 -0.773465,-0.0665 -0.273287,-0.0256 -0.546503,-0.0521 -0.820412,-0.0705 -0.417109,-0.0276 -0.835935,-0.0446 -1.253738,-0.0223 -0.468187,0.0357 -0.934095,0.0965 -1.39434,0.19073 -0.542651,0.11415 -1.078993,0.25559 -1.622009,0.36831 -0.440277,0.0999 -0.878288,0.21169 -1.305832,0.35781 0,0 -1.209392,0.93607 -1.209392,0.93607 z" />
  <path
     id="path95"
     style="fill:#000000;fill-opacity:1;fill-rule:nonzero;stroke:none"
     transform="translate(42.12,467.5)"
     d="m 34.064453,19.693359 c -0.183943,0.0013 -0.367455,0.0095 -0.550781,0.02539 -0.557019,0.0524 -1.112975,0.122751 -1.669922,0.175781 -0.749071,0.0575 -1.500816,0.07789 -2.251953,0.05469 -0.536672,-0.008 -1.073351,0.009 -1.609375,0 l -1.25,0.882812 c 0.550753,0.035 1.1043,-0.0048 1.65625,-0.0078 0.729613,0.0272 1.45794,0.03681 2.1875,0.0039 0.549877,-0.0221 1.094881,-0.101071 1.642578,-0.150391 0.350766,-0.0311 0.703697,-0.02811 1.054688,-0.0039 0.225335,0.0184 0.447702,0.05148 0.671874,0.08008 0.167124,0.0169 0.331742,0.04734 0.494141,0.08984 0.14185,0.0347 0.1827,0.170329 0.230469,0.292969 0.05731,0.14855 0.0747,0.307133 0.08203,0.464843 0.0054,0.212801 0.0042,0.423869 0.0039,0.636719 4e-5,0.22535 0.0057,0.450661 0.01563,0.675781 0.01416,0.24269 0.03487,0.485626 0.04687,0.728516 0.01818,0.21073 -0.0032,0.420586 -0.0332,0.628906 -0.03067,0.20869 -0.06989,0.41618 -0.09961,0.625 -0.0248,0.22814 -0.04297,0.456887 -0.0625,0.685547 -0.02101,0.20432 -0.0352,0.407951 -0.03906,0.613281 -0.0026,0.20273 0.0025,0.404692 0.0039,0.607422 -0.0015,0.21606 -0.04356,0.429179 -0.07227,0.642578 -0.04833,0.25716 -0.02368,0.510695 0.02148,0.765626 0.06777,0.475423 -0.04524,0.390794 0.494141,0.328124 0.003,-0.01227 0.0048,-0.02483 0.0078,-0.03711 0.02292,-0.210508 0.04574,-0.423206 0.0332,-0.634765 -0.0049,-0.178951 -0.02073,-0.356067 -0.01953,-0.535157 0.0028,-0.15345 0.0062,-0.307687 0.01563,-0.460937 0.01776,-0.18842 0.08238,-0.366355 0.113282,-0.552735 0.03227,-0.15157 0.0671,-0.302485 0.103515,-0.453125 0.04256,-0.18237 0.09497,-0.362418 0.144532,-0.542968 0.01001,-0.15615 0.02659,-0.310161 0.0625,-0.462891 0.03839,-0.18913 0.07579,-0.377752 0.0918,-0.570313 0.0327,-0.201549 0.06692,-0.404556 0.134766,-0.597656 0.0061,-0.01335 0.0083,-0.04338 0.01563,-0.05273 0.0024,-0.0031 0.0057,-0.0026 0.0098,0 0.165697,0.107481 0.342895,0.205057 0.507812,0.316406 6.5e-4,-2.29e-4 0.0013,2.27e-4 0.002,0 0.02347,-0.147222 0.0479,-0.293733 0.06836,-0.441406 0.0264,-0.21789 0.03413,-0.43735 0.01172,-0.65625 -0.01862,-0.23936 -0.04831,-0.476657 -0.05664,-0.716797 -0.0087,-0.22287 -0.01734,-0.446912 -0.02148,-0.669922 -0.0076,-0.21273 -0.0093,-0.424279 -0.02344,-0.636719 -0.01555,-0.17386 -0.03889,-0.346072 -0.109375,-0.507812 -0.06687,-0.16276 -0.134053,-0.344872 -0.306641,-0.419922 -0.16519,-0.0587 -0.338151,-0.0906 -0.511718,-0.113281 -0.229467,-0.0278 -0.460331,-0.05123 -0.689454,-0.08203 -0.183451,-0.01415 -0.366838,-0.01889 -0.550781,-0.01758 z" />
  <path
     id="path97"
     style="fill:#000000;fill-opacity:1;fill-rule:nonzero;stroke:none"
     transform="translate(42.12,467.5)"
     d="m 35.21875,26.154297 c -0.790562,0.39188 -0.794396,0.224847 -0.996094,0.898437 -0.04478,0.36116 -0.05113,0.724071 -0.04297,1.087891 -0.0013,0.37105 -0.0029,0.742281 0.0039,1.113281 -7.95e-4,0.28515 -0.0089,0.569746 -0.03906,0.853516 -0.0264,0.27832 -0.0624,0.554834 -0.08008,0.833984 -0.02712,0.27261 -0.0612,0.54612 -0.0918,0.81836 -0.02761,0.21972 -0.05834,0.43793 -0.0957,0.65625 -0.03145,0.17371 -0.07418,0.344042 -0.123047,0.513672 -0.05692,0.21667 -0.10618,0.435983 -0.136718,0.658203 -0.03709,0.23117 -0.06667,0.462759 -0.107422,0.693359 -0.03975,0.23845 -0.08087,0.477884 -0.128907,0.714844 -0.05088,0.26517 -0.101523,0.529372 -0.15039,0.794922 -0.02722,0.1317 -0.05568,0.263566 -0.08594,0.394531 0.104041,-0.145128 0.205709,-0.292464 0.3125,-0.435547 0.219959,-0.303258 0.504378,-0.559917 0.728516,-0.859375 0.0062,-0.212871 0.01538,-0.427103 0.07422,-0.632813 0.02425,-0.101258 0.04734,-0.201227 0.06055,-0.304687 0.0025,-0.0195 -0.01376,-0.06759 0.0039,-0.05859 0.03483,0.0171 0.07826,0.13125 0.06836,0.09375 -0.01893,-0.07189 -0.06359,-0.134072 -0.0957,-0.201172 -0.12103,-0.64438 0.04692,-1.215718 0.324219,-1.798828 0.01672,-0.03547 0.02996,-0.06916 0.04102,-0.101562 0.0027,-0.137899 -0.0066,-0.275604 -0.01563,-0.421875 -0.02678,-0.221105 0.0027,-0.432298 0.0625,-0.642578 0.01702,-0.288914 0.04706,-0.576241 0.0957,-0.863282 0.02603,-0.13711 0.0051,-0.280945 0.02344,-0.421875 0.04538,-0.349728 0.127012,-0.692531 0.210937,-1.035156 0.02292,-0.210508 0.04574,-0.423206 0.0332,-0.634765 -0.0049,-0.178951 -0.02073,-0.356067 -0.01953,-0.535157 0.0028,-0.15345 0.0062,-0.307687 0.01563,-0.460937 0.01776,-0.18842 0.08238,-0.366355 0.113282,-0.552735 0.01168,-0.05485 0.02481,-0.109364 0.03711,-0.164062 z m -0.144531,0.365234 c -0.191366,0.110752 -0.383287,0.220548 -0.574219,0.332031 0.191144,-0.172518 0.305789,-0.204818 0.574219,-0.332031 z" />
  <path
     id="path99"
     style="fill:#000000;fill-opacity:1;fill-rule:nonzero;stroke:none"
     transform="translate(42.12,467.5)"
     d="m 32.697266,36.232422 c -0.255487,-0.03603 -0.770722,0.298431 -1.144532,0.613281 -0.336874,0.07363 -0.676101,0.133864 -1.019531,0.166016 -0.607653,0.0468 -1.215542,0.02475 -1.824219,0.0098 -0.603965,0.004 -1.206107,0.02041 -1.808593,0.06641 -0.670397,0.0425 -1.340704,0.09635 -2.011719,0.128906 -0.645687,0.0291 -1.291313,0.03213 -1.9375,0.01563 -0.601043,-0.0113 -1.201903,-0.01671 -1.802734,-0.03711 -0.475592,-0.0191 -0.951816,-0.02856 -1.427735,-0.03516 -0.402957,-0.008 -0.806409,-0.02602 -1.208984,-0.04492 -0.338821,-0.0137 -0.677358,-0.036 -1.011719,-0.0957 -0.365306,-0.0635 -0.728114,-0.144607 -1.097656,-0.179687 -0.493299,-0.0406 -0.98738,-0.06737 -1.482422,-0.07227 -0.537145,-0.008 -1.07437,-0.0044 -1.611328,-0.02148 -0.428798,-0.0189 -0.857952,-0.03983 -1.28711,-0.04883 -0.530142,-0.003 -1.060639,0.01582 -1.58789,0.07422 -0.6309991,0.0779 -1.2576829,0.186986 -1.8847659,0.291016 -0.577827,0.0836 -1.155168,0.174197 -1.734375,0.248047 -0.508298,0.0706 -1.0167365,0.137349 -1.5214843,0.230469 l -0.8613282,0.65625 c 0.2384878,0.0116 0.4753909,0.0084 0.7128906,-0.0098 0,0 0.00195,0 0.00195,0 0.1712545,-0.01983 0.3430845,-0.04239 0.5136718,-0.06641 C 6.2360779,38.011442 6.802863,37.862487 7.375,37.734375 c 0.298695,-0.0668 0.6072284,-0.07717 0.9121094,-0.07617 0.099993,-0.0055 0.197092,0.0098 0.2910156,0.03906 0,0 0.00195,0 0.00195,0 0.028432,-0.004 0.052139,-0.0019 0.054687,0.01953 0.012288,0.0046 0.024926,0.0087 0.037109,0.01367 0.01238,0.0051 0.035116,0.01769 0.052734,0.02734 -0.00634,-0.0031 -0.013186,-0.0047 -0.019531,-0.0078 -0.01353,-0.0033 -0.037716,-0.02337 -0.041016,-0.0098 -0.00305,0.01264 -0.00498,0.02321 -0.00781,0.03516 0.1786094,-0.02797 0.3572395,-0.05797 0.5371094,-0.08008 0.508168,-0.0568 1.0204666,-0.06979 1.5312496,-0.05859 0.42374,0.01 0.846354,0.03149 1.269532,0.05469 0.538724,0.0188 1.078304,0.01304 1.617187,0.02344 0.485697,0.005 0.971491,0.03422 1.455078,0.07813 0.363878,0.0287 0.720127,0.108851 1.078125,0.175781 0.339245,0.0687 0.684285,0.09296 1.029297,0.109375 0.402068,0.0145 0.803047,0.03548 1.205078,0.05078 0.07035,10e-4 0.140594,0.0028 0.210938,0.0039 0.217758,-0.02574 0.436353,-0.0505 0.654297,-0.07422 0.250364,-0.0266 0.499356,-0.05638 0.75,-0.08008 0.02519,-0.0024 0.112733,-0.0033 0.193359,-0.002 0.08063,0.0014 0.1555,0.0058 0.15625,0.0098 0.01088,0.05996 0.01808,0.119549 0.02539,0.179688 0.417192,0.01022 0.834711,0.02165 1.251953,0.0293 0.65103,0.0168 1.30243,0.0076 1.953125,-0.01562 0.667844,-0.0303 1.334518,-0.08134 2.001953,-0.119141 0.599479,-0.0419 1.19987,-0.06711 1.800781,-0.07031 0.132881,0.0027 0.265626,0.0053 0.398438,0.0078 0.07916,-0.08876 0.224239,-0.127645 0.412109,-0.0625 0.06858,-0.02692 0.116647,0.0058 0.150391,0.07031 0.282479,0.0026 0.564936,0.0029 0.847656,-0.0039 0.05501,-0.0023 0.109234,-0.008 0.164062,-0.01172 0.226099,-0.02843 0.453199,-0.05574 0.679688,-0.08008 0.13904,-0.02199 0.278004,-0.04467 0.416015,-0.07227 0.196046,-0.0356 0.386426,-0.0953 0.56836,-0.175782 0.08363,-0.03661 0.136546,-0.06099 0.210937,-0.09375 -0.03788,0.08263 -0.08566,0.160254 -0.132812,0.238282 -0.0327,0.0034 -0.06504,0.01045 -0.09766,0.01367 -0.108034,0.01269 -0.216259,0.02493 -0.324219,0.03711 0.09603,-0.0045 0.192803,-0.0073 0.289062,-0.0078 0.02946,5e-4 0.323895,0.0047 0.333985,0.01367 0.01565,0.01414 0.03258,0.02888 0.04883,0.04297 0.165625,-0.115392 0.328941,-0.234542 0.486328,-0.357422 0.301882,-0.26789 0.619526,-0.514986 0.888672,-0.816406 0.03905,-0.04391 0.07611,-0.08941 0.113281,-0.134766 0.0044,-0.01901 0.01007,-0.03735 0.01367,-0.05664 0.0052,-0.03601 0.0043,-0.0646 0.0039,-0.09375 0.0863,-0.123329 0.06396,-0.150369 -0.02148,-0.123047 -0.0257,-0.05306 -0.06971,-0.08345 -0.128906,-0.0918 z m -1.621094,1.0625 c -0.352868,0.298541 -0.811537,0.479399 0,0 z m 0.07031,0.648437 c -0.02583,2.43e-4 -0.085,0.01478 -0.140625,0.04883 0.02549,-0.0063 0.05083,-0.0126 0.07617,-0.01953 0.0812,-0.01669 0.09052,-0.02954 0.06445,-0.0293 z m -10.945312,0.05859 c -0.0076,10e-4 -0.01584,0.0029 -0.02344,0.0039 v 0.002 c 0.008,-0.0022 0.01483,-0.0032 0.02344,-0.0059 z" />
  <path
     id="path200"
     style="fill:none"
     transform="translate(42.12,467.5)"
     d="m 19.058594,37.949219 c -0.0416,-0.0026 -0.08488,0.04398 -0.125,0.06445 -0.05934,0.03036 -0.116473,0.0656 -0.173828,0.09961 0.13651,-0.01584 0.273572,-0.03185 0.410156,-0.04687 -0.02409,-0.04624 -0.04863,-0.09324 -0.09375,-0.113281 -0.0059,-0.0026 -0.01164,-0.0035 -0.01758,-0.0039 z m -2.566406,1.828125 c -0.102824,0.0054 -0.205737,0.01085 -0.308594,0.01563 0.02717,0.02952 0.06011,0.05421 0.09766,0.05859 0.06691,0.008 0.127392,-0.0416 0.191406,-0.0625 0.0065,-0.0038 0.01299,-0.0079 0.01953,-0.01172 z" />
  <path
     id="path235"
     style="fill:none"
     transform="translate(42.12,467.5)"
     d="m 20.552734,38.361328 c -0.01662,0.0018 -0.04452,0.01069 -0.07617,0.02148 0.01483,0.02173 0.02689,0.04453 0.03711,0.06836 0.02642,-0.0199 0.05348,-0.03896 0.08008,-0.05859 -0.01764,0.0057 -0.03509,0.01194 -0.05273,0.01758 0.0055,-0.0057 0.01021,-0.01178 0.01563,-0.01758 0.0233,-0.02495 0.01852,-0.03374 -0.0039,-0.03125 z m -2.041015,1.279297 c -0.7573,0.06135 -1.514575,0.114359 -2.273438,0.150391 -0.128791,0.08169 -0.253326,0.170449 -0.371093,0.265625 -0.06551,0.053 0.100327,0.161108 0.183593,0.173828 0.129662,0.0198 0.254949,-0.05869 0.382813,-0.08789 0.308108,-0.07731 0.612397,-0.172829 0.916015,-0.271484 -5.29e-4,0.01428 -0.001,0.02835 0,0.04297 -0.05191,0.03465 -0.102024,0.06728 -0.158203,0.103516 -0.05886,0.03794 0.05627,-0.02407 0.160156,-0.07422 0.0035,0.02455 0.0095,0.05066 0.01758,0.07617 0.120988,0.383751 0.738158,-0.207324 1.142578,-0.378906 z" />
  <path
     id="path237"
     style="fill:none"
     transform="translate(42.12,467.5)"
     d="m 34.123047,32.488281 c -0.274409,-0.0014 -0.863713,0.163393 -0.996094,0.195313 -0.262388,0.0806 -0.916105,0.269834 -1.164062,0.396484 -0.430801,0.22003 -1.521015,0.759339 -2.074219,1.230469 -0.169308,0.14419 -0.473964,0.487814 -0.619141,0.646484 -0.17913,0.210262 -0.353714,0.425165 -0.529297,0.638672 0.06848,-0.01009 0.08757,-0.01418 0.164063,-0.02539 0.516472,-0.07553 0.638803,-0.09857 0.789062,-0.123046 0.284389,-0.346618 0.568174,-0.694118 0.861329,-1.033204 0.141002,-0.150269 0.384161,-0.419515 0.566406,-0.582031 0.164044,-0.06846 0.331412,-0.140286 0.390625,-0.162109 0.192313,-0.0709 0.390885,-0.12454 0.585937,-0.1875 0.396146,-0.13496 0.819584,-0.170751 1.216797,-0.300781 0.343894,-0.112579 0.67583,-0.257112 1.013672,-0.386719 0.0068,-0.02874 0.01384,-0.05731 0.02148,-0.08594 -0.03157,-0.08416 -0.05209,-0.183292 -0.130859,-0.208984 -0.02411,-0.0079 -0.0565,-0.01152 -0.0957,-0.01172 z m -10.470703,6.839844 c -0.262162,0.04706 -0.538807,0.07178 -0.767578,0.01563 -0.07437,0.04228 -0.17096,0.07696 -0.271485,0.109375 0.128223,0.04805 0.257377,0.09184 0.388672,0.130859 0.174256,0.05 0.354967,0.06758 0.535156,0.08008 0.199104,0.01725 0.395066,-0.0012 0.589844,-0.0332 -0.174935,-0.03289 -0.333203,-0.118211 -0.474609,-0.302734 z m 0.578125,0.101563 c -0.04087,0.01844 -0.07273,0.03133 -0.115235,0.05078 -0.03725,0.017 0.116959,0.0039 0.117188,-0.03711 2.5e-5,-0.0044 -0.0018,-0.0092 -0.002,-0.01367 z" />
  <path
     style="fill:none"
     id="path2059"
     d="m 63.151146,473.69698 c 0.177368,-0.25722 0.38081,-0.49452 0.563664,-0.74761 0.148139,-0.19701 0.233312,-0.42802 0.342015,-0.64641 0.109197,-0.21426 0.255857,-0.40628 0.400194,-0.5976 0.153759,-0.19162 0.294557,-0.39231 0.432668,-0.59528 0.183706,-0.29982 0.399803,-0.57658 0.64637,-0.82678 0.110525,-0.0958 0.12625,-0.1155 0.247033,-0.19621 0.04291,-0.0287 0.176593,-0.10692 0.131935,-0.081 -2.515023,1.45732 -1.681106,0.94104 -1.119513,0.67241 0.263851,-0.12696 0.546864,-0.18933 0.835765,-0.22267 0.303881,-0.0353 0.5994,0.0264 0.890713,0.10518 0.256933,0.068 0.43107,0.21821 0.574143,0.43419 0.160016,0.22581 0.195875,0.49196 0.228824,0.75939 0.04062,0.27191 -0.02134,0.5358 -0.09982,0.79452 -0.08507,0.26513 -0.181388,0.52652 -0.26236,0.79296 -0.06076,0.21461 -0.082,0.43773 -0.118931,0.65724 -0.03161,0.15864 -0.08063,0.31308 -0.122293,0.46928 -0.0151,0.0483 -0.03863,0.12285 -0.02466,0.16022 0.589469,0.99076 1.580685,-0.75975 1.904092,-1.25139 0.172147,-0.3091 0.321642,-0.63263 0.430275,-0.96962 0.03942,-0.15767 0.07303,-0.31623 0.120612,-0.47173 0.03712,-0.1436 0.09681,-0.28057 0.126097,-0.42596 -0.0061,-0.14734 0.05567,-0.31286 0.0054,-0.45507 -0.162245,-0.62501 0.105782,-0.20162 -1.554642,0.76944 -0.01759,0.0103 -4.6e-4,0.0408 -0.002,0.0611 -0.0016,0.0207 -0.0048,0.0412 -0.0072,0.0618 -0.03898,0.18095 -0.0374,0.0454 0.04472,9.9e-4 0.227585,-0.12305 0.470858,-0.21457 0.706287,-0.32186 0,0 -0.03766,0.0248 -0.03766,0.0248 v 0 c 0.305666,-0.11728 0.692144,-0.11237 0.856484,-0.41338 0.005,-0.009 -0.01949,-0.0761 -0.02058,-0.0794 -0.0047,-0.0375 0.02636,-0.1284 -0.0083,-0.11323 -1.563543,0.68414 -1.422742,0.18489 -1.55291,0.81148 -0.03911,0.14218 -8.28e-4,0.29243 -0.03564,0.43665 -0.01893,0.13013 -0.03036,0.26061 -0.07413,0.38591 -0.0313,0.15126 -0.05231,0.30497 -0.09897,0.45266 -0.09168,0.31749 -0.20528,0.62659 -0.394511,0.90122 -0.101054,0.15338 -0.211618,0.29394 -0.322271,0.44008 -0.02117,0.028 -0.09201,0.10132 -0.06036,0.0862 1.557754,-0.74473 1.219221,-1.26649 1.55098,-0.69227 0.03959,-0.0376 0.03598,-0.11643 0.05304,-0.16586 0.0395,-0.15987 0.08821,-0.318 0.107068,-0.48224 0.02785,-0.21323 0.05601,-0.4271 0.12743,-0.63119 0.08348,-0.26146 0.164153,-0.52393 0.238856,-0.78804 0.07153,-0.28427 0.119996,-0.56123 0.06193,-0.85396 -0.04191,-0.29107 -0.100967,-0.58057 -0.252844,-0.83711 -0.159318,-0.23629 -0.357814,-0.42047 -0.620461,-0.53982 -0.289517,-0.12341 -0.597879,-0.17734 -0.912704,-0.18014 -0.296669,0.0142 -0.591435,0.0557 -0.867945,0.17025 -0.837316,0.35078 -1.678417,0.77547 -2.326193,1.41651 -0.239104,0.27093 -0.452289,0.56191 -0.656356,0.85999 -0.139542,0.20016 -0.289245,0.39274 -0.434022,0.5891 -0.145414,0.20013 -0.287061,0.40473 -0.389689,0.63084 -0.09644,0.20932 -0.195859,0.41775 -0.32703,0.60822 -0.163706,0.24765 -0.332093,0.49277 -0.523116,0.72044 0,0 1.600516,-0.68729 1.600516,-0.68729 z" />
  <path
     style="fill:#000000"
     id="path2061"
     d="m 63.929613,473.66806 c 0.09818,-0.54995 0.276581,-1.07953 0.479373,-1.59848 0.158336,-0.37834 0.304669,-0.76376 0.518105,-1.11526 0.164906,-0.23913 0.309203,-0.49147 0.470266,-0.73301 0.137265,-0.21364 0.337722,-0.3521 0.558079,-0.46897 -2.451506,1.42468 -1.386828,0.70986 -0.765885,0.55712 0.163408,-0.0402 0.197084,-0.0376 0.36288,-0.0538 0.399153,-0.0283 0.717849,0.13813 0.982869,0.42329 0.268538,0.39708 0.277125,0.8921 0.281824,1.35537 -0.0094,0.40672 -0.05193,0.81194 -0.09048,1.21675 -0.02326,0.28251 -0.04573,0.56529 -0.05479,0.84866 0.345686,0.0496 0.0963,0.0366 0.723318,-0.19509 0,0 0.04052,-0.0198 0.04052,-0.0198 v 0 c 0.67702,-0.42168 0.450868,-0.20058 0.767543,-0.55781 0.01289,-0.27672 0.01028,-0.55417 0.03293,-0.83049 0.02383,-0.40559 0.06697,-0.8109 0.05201,-1.21781 -0.02766,-0.50233 -0.08195,-1.00899 -0.343893,-1.45118 -0.268437,-0.31815 -0.610274,-0.5466 -1.038359,-0.56735 -0.970143,0.0204 -1.708281,0.59754 -2.535669,1.10342 -0.218296,0.14539 -0.409739,0.31366 -0.539747,0.54552 -0.157194,0.24875 -0.320771,0.49352 -0.472484,0.74564 -0.188754,0.3601 -0.32142,0.74648 -0.471711,1.12347 -0.191865,0.54189 -0.359625,1.09351 -0.499869,1.6509 0,0 1.54317,-0.76109 1.54317,-0.76109 z" />
  <path
     style="fill:#000000"
     id="path2096"
     d="m 63.80874,473.6668 c 0.03878,-0.46424 0.183813,-0.90946 0.323184,-1.35108 0.139443,-0.42902 0.297087,-0.85187 0.475216,-1.26628 0.170651,-0.39942 0.42194,-0.75467 0.683917,-1.09828 0.275625,-0.3506 0.642475,-0.60343 1.015337,-0.8393 0.529111,-0.31597 0.91697,-0.54628 -1.038913,0.59827 -0.05874,0.0344 0.118776,-0.0666 0.179217,-0.0978 0.185095,-0.0958 0.363214,-0.15937 0.564568,-0.21185 0.41094,-0.0752 0.819689,-0.0657 1.207523,0.0926 0.291708,0.12953 0.448908,0.35248 0.556327,0.64205 0.108515,0.38001 0.103723,0.7799 0.098,1.17168 -0.01578,0.31881 -0.0077,0.63732 0.0105,0.95572 0.02354,0.26469 -8.81e-4,0.52841 -0.04247,0.78977 -0.04956,0.28909 -0.125248,0.57195 -0.227274,0.84669 -0.110186,0.26817 -0.259453,0.51741 -0.37492,0.7831 -0.02281,0.0517 -0.191459,0.50072 -0.106004,0.51126 0.197413,0.0243 0.394614,-0.0504 0.591921,-0.0756 0,0 0.0409,-0.019 0.0409,-0.019 v 0 c 0.732337,-0.52907 0.819926,-0.46619 1.092516,-1.1571 0.123529,-0.26382 0.263309,-0.52061 0.361859,-0.79549 0.08977,-0.28603 0.159653,-0.57863 0.207651,-0.87462 0.03319,-0.27182 0.05039,-0.54512 0.02023,-0.81835 -0.02094,-0.31242 -0.02493,-0.6249 -0.02101,-0.93798 -0.0054,-0.40942 0.0031,-0.82734 -0.151371,-1.21433 -0.133176,-0.3457 -0.301089,-0.57777 -0.637663,-0.75311 -0.404562,-0.18277 -0.82617,-0.23715 -1.267999,-0.1768 -0.281153,0.042 -0.523052,0.11915 -0.771189,0.26117 -1.5161,0.86773 -1.149908,0.6423 -1.88197,1.09978 -0.376325,0.25199 -0.742191,0.52385 -1.003867,0.90048 -0.258787,0.35969 -0.512694,0.7251 -0.676882,1.13983 -0.173874,0.41605 -0.319911,0.84238 -0.448782,1.27452 -0.129566,0.45217 -0.23506,0.90956 -0.29892,1.37606 0,0 1.520368,-0.75594 1.520368,-0.75594 z" />
  <path
     style="fill:#000000"
     id="path2098"
     d="m 66.468738,469.28134 c -1.253664,0.54525 -1.643641,0.91649 -2.328257,1.86113 -0.402415,0.57389 -0.756405,1.17854 -1.081206,1.79898 -0.251167,0.4747 -0.451285,0.97331 -0.631761,1.47837 -0.06455,0.18418 -0.136826,0.36561 -0.20272,0.54928 -0.02186,0.0609 -0.04412,0.12181 -0.06308,0.18372 -0.0184,0.0601 -0.111306,0.17453 -0.04893,0.18203 0.217061,0.0261 0.431033,-0.0735 0.646549,-0.11019 0,0 0.04063,-0.0196 0.04063,-0.0196 v 0 c 0.247797,-0.18186 0.515187,-0.33967 0.74339,-0.54558 0.04823,-0.0435 0.04329,-0.12249 0.06489,-0.18375 0.08541,-0.24226 0.173975,-0.48346 0.254069,-0.72755 0.165161,-0.48986 0.358872,-0.96905 0.5879,-1.43288 0.318079,-0.60682 0.65707,-1.20545 1.058097,-1.76193 0.203266,-0.25989 0.405094,-0.51978 0.63901,-0.75346 0.0521,-0.0521 0.228674,-0.18239 0.162875,-0.1493 -0.581992,0.29268 -1.574848,0.90888 -1.044643,0.58088 0,0 1.203186,-0.95016 1.203186,-0.95016 z" />
  <path
     style="fill:#000000"
     id="path2100"
     d="m 55.529696,497.75896 c 0.227267,0.19073 0.455898,0.36757 0.733109,0.47775 0.300892,0.093 0.620419,0.0811 0.931075,0.11762 0.237959,0.0288 0.470891,0.0862 0.703149,0.14366 0.266458,0.0781 0.53223,0.15346 0.806394,0.19874 0.480287,0.0578 0.966599,0.002 1.437199,-0.0974 0.461088,-0.10269 0.884802,-0.31193 1.312378,-0.50501 0.382331,-0.16781 0.765203,-0.33442 1.149884,-0.49679 0.515174,-0.20477 1.007888,-0.45938 1.500816,-0.71166 0.656803,-0.34169 1.333493,-0.64245 1.989558,-0.98552 0.98186,-0.53499 1.932965,-1.12226 2.879703,-1.71591 0.383972,-0.25498 0.735045,-0.55543 1.089882,-0.84865 3.147797,-1.9211 3.799309,-2.30178 1.925014,-1.19112 0,0 -0.03541,0.0279 -0.03541,0.0279 v 0 c 0.212312,1.44781 0.06763,0.12829 -3.538068,1.82773 -0.348556,0.28786 -0.696324,0.57969 -1.080658,0.81951 -0.580723,0.35809 -2.430409,1.50024 0.111022,-0.007 -0.647735,0.355 -1.322579,0.6536 -1.982785,0.98402 -0.486801,0.25034 -0.972888,0.50456 -1.479591,0.71293 -0.386096,0.15692 -0.768478,0.32233 -1.149916,0.49025 -0.430026,0.19207 -0.84836,0.41723 -1.305045,0.54164 -0.448029,0.11637 -0.911293,0.18334 -1.374861,0.1351 -0.267124,-0.037 -0.528364,-0.10366 -0.784266,-0.18885 -0.239204,-0.0721 -0.48396,-0.12229 -0.731491,-0.15646 -0.305308,-0.0361 -0.611986,-0.0478 -0.916761,-0.0847 -0.27962,-0.0723 -0.548193,-0.17421 -0.757811,-0.38148 0,0 -1.432518,0.89343 -1.432518,0.89343 z" />
  <path
     style="fill:#000000"
     id="path2102"
     d="m 70.158154,492.09287 c -0.534795,0.30577 -1.077398,0.59827 -1.604383,0.91731 -0.09382,0.0568 -0.169901,0.13873 -0.254749,0.20822 -0.107101,0.0877 -0.214687,0.17484 -0.321098,0.26339 -0.293759,0.24444 -0.577356,0.49541 -0.852672,0.76028 -0.04201,0.0732 -0.402559,0.27902 -0.222801,0.40804 0.162665,0.11675 0.207902,0.0764 0.369763,-0.0177 0.50673,-0.2946 1.006603,-0.60085 1.509904,-0.90128 0.538262,-0.3343 0.979762,-0.88058 1.55919,-1.14505 -0.512305,0.21215 -1.031073,0.40932 -1.536915,0.63645 -0.06909,0.031 -0.121547,0.0904 -0.182348,0.13552 -0.09637,0.0716 -0.193343,0.14232 -0.289162,0.21462 -0.332048,0.25054 -0.658805,0.50734 -0.982547,0.76847 0.09403,0.0526 -0.291136,0.17031 -0.227171,0.26858 0.158724,0.24386 0.439505,0.0417 0.596688,-0.0398 0.417743,-0.21651 1.095003,-0.64855 1.482425,-0.889 0,0 0.03524,-0.0282 0.03524,-0.0282 v 0 c -0.238793,-0.064 -0.464224,-0.0277 -0.677401,0.12616 -0.08921,0.0644 -0.134081,0.17487 -0.20866,0.25577 -0.0065,0.007 -0.03584,0.008 -0.02874,0.002 0.06743,-0.0612 0.142647,-0.11333 0.21397,-0.16999 0.379258,-0.289 0.769205,-0.56084 1.160834,-0.83283 0.114065,-0.0792 0.228861,-0.15738 0.342739,-0.23687 0.07279,-0.0508 0.302126,-0.1801 0.217269,-0.15401 -0.465616,0.14311 -0.913381,0.33889 -1.370072,0.50834 0.01569,0.0738 0.0083,0.0169 -0.136544,0.13034 -0.436639,0.34213 -0.893668,0.65775 -1.33982,0.98713 0.335587,-0.18711 0.667836,-0.38035 1.00676,-0.56135 0.06079,-0.0325 -0.128111,0.0619 -0.171591,0.11534 -0.02786,0.0343 -0.0315,0.0856 -0.02756,0.12957 0.0055,0.0615 0.102178,-0.0706 0.145599,-0.11454 0.06048,-0.0612 0.123973,-0.11927 0.185959,-0.1789 0.294805,-0.26054 0.590051,-0.52045 0.897286,-0.76643 0.113238,-0.0906 0.226804,-0.18103 0.343744,-0.26686 0.09982,-0.0733 0.415822,-0.26795 0.306271,-0.21023 -0.429443,0.22627 -0.845077,0.47784 -1.267616,0.71676 0,0 1.32821,-1.03906 1.32821,-1.03906 z" />
  <path
     style="fill:#000000"
     id="path2104"
     d="m 43.449975,494.53451 c -0.149979,-0.27177 -0.02493,-0.13594 -0.516494,-0.20001 0,0 -0.0404,0.0201 -0.0404,0.0201 v 0 c -0.561032,0.58849 -0.395518,0.30495 -0.614753,0.76951 0,0 1.171651,-0.58955 1.171651,-0.58955 z" />
  <path
     style="fill:#000000"
     id="path2106"
     d="m 42.204554,492.93035 c -0.249848,0.73859 -0.353336,1.51422 -0.435641,2.28627 -0.01768,0.13467 -0.03011,0.27013 -0.05303,0.404 -0.139317,0.81349 -0.45861,1.05513 1.313054,-0.18147 0.0823,-0.0574 -0.0086,-0.20085 -0.0032,-0.30106 0.0088,-0.16242 0.03051,-0.32389 0.04576,-0.48584 0.139566,-1.01343 0.217306,-2.03686 0.487807,-3.0261 0.332916,-0.97756 0.396412,-0.88852 -1.31675,0.15558 -0.05469,0.0333 -0.02352,0.12593 -0.03602,0.18875 -0.02146,0.10782 -0.04392,0.21545 -0.06588,0.32318 -0.178332,0.97271 -0.385445,1.94074 -0.453725,2.92877 -0.02206,0.32134 -0.02537,0.64408 -0.01462,0.96596 2.86e-4,0.009 0.01103,0.29882 0.03008,0.33561 0.01485,0.0287 0.0537,0.0359 0.08055,0.0538 0.403609,-0.23718 0.831617,-0.43705 1.210828,-0.71156 0.04935,-0.0357 0.01633,-0.12077 0.02265,-0.18137 0.02866,-0.27486 0.0034,-0.55953 0.04202,-0.832 0.01708,-0.12059 0.05473,-0.23736 0.0821,-0.35604 0.182219,-0.50753 0.155243,-1.05835 0.292534,-1.57526 0.02557,-0.0963 0.06405,-0.18862 0.09607,-0.28293 0.107585,-0.39676 0.102954,-0.80906 0.222363,-1.20191 0.05217,-0.3396 0.166757,-0.65329 0.335557,-0.9506 0.159139,-0.28288 0.40733,-0.49063 0.652382,-0.69626 0.275422,-0.22492 0.578656,-0.41151 0.88099,-0.5973 0.673349,-0.38544 -0.443722,0.25357 -1.093173,0.63525 -0.05011,0.0295 0.102579,-0.0547 0.154399,-0.081 0.130066,-0.0661 0.262788,-0.1267 0.395471,-0.18725 0.230125,-0.10375 0.461474,-0.20477 0.691546,-0.30863 0.190996,-0.0976 0.390728,-0.15283 0.602874,-0.17455 0.262571,-0.0204 0.522638,-0.0621 0.781412,-0.10987 0.184161,-0.0417 0.370332,-0.0721 0.556296,-0.10411 0.05965,-0.0103 0.125319,-0.004 0.178627,-0.0325 0.293581,-0.15782 0.568592,-0.34798 0.852887,-0.52197 0,0 0.03602,-0.0272 0.03602,-0.0272 v 0 c 0.148261,-0.14958 0.328069,-0.27344 0.444782,-0.44875 0.02891,-0.0434 -0.103977,0.009 -0.155828,0.0147 -0.18529,0.0207 -0.369472,0.0516 -0.551948,0.0896 -0.262803,0.0561 -0.525638,0.11769 -0.793672,0.14286 -0.219941,0.0147 -0.43589,0.0327 -0.637676,0.13179 -0.231935,0.0983 -0.460638,0.20411 -0.69116,0.30565 -0.803518,0.36123 -1.566042,0.80068 -2.311334,1.2729 -0.303299,0.18987 -0.605376,0.38493 -0.873323,0.62358 -0.23355,0.21408 -0.448057,0.44672 -0.589047,0.73417 -0.150794,0.3092 -0.256412,0.63106 -0.26536,0.97858 0.02229,0.36611 -0.04461,0.73332 -0.01527,1.10063 0.0099,0.0732 0.02887,0.14569 0.02959,0.21952 0.0049,0.50474 -0.190039,0.99983 -0.162326,1.50745 -0.0134,0.11177 -0.0167,0.22522 -0.04019,0.33531 -5.45e-4,0.003 -0.198205,0.65706 -0.204831,0.68093 -0.02393,0.0862 -0.04297,0.17375 -0.0649,0.26051 -0.0151,0.0597 -0.105735,0.1948 -0.0462,0.17896 0.397036,-0.10564 0.759654,-0.31324 1.139481,-0.46986 0.08836,-0.18062 0.04915,-0.24349 0.04631,-0.44622 -0.0045,-0.32062 0.01505,-0.64044 0.03416,-0.96035 0.09159,-0.98598 0.228121,-1.96925 0.50189,-2.92351 0.03276,-0.10988 0.06095,-0.22123 0.09826,-0.32965 0.01999,-0.0581 0.131345,-0.18935 0.07338,-0.16903 -1.588225,0.55691 -1.391749,0.22268 -1.483954,1.14538 -0.141067,0.99902 -0.298437,1.99518 -0.410843,2.99821 -0.03285,0.16832 -0.05382,0.33939 -0.09854,0.50495 -0.02637,0.0976 -0.211567,0.3071 -0.113826,0.28119 1.807174,-0.47915 1.2821,-0.20987 1.342674,-1.04114 0.0099,-0.13518 0.03708,-0.26853 0.05561,-0.4028 0.149516,-0.7736 0.272986,-1.55727 0.536457,-2.30284 0,0 -1.364643,0.63687 -1.364643,0.63687 z" />
</svg>
