<?xml version="1.0" standalone="no"?>
<!DOCTYPE svg PUBLIC "-//W3C//DTD SVG 20010904//EN"
 "http://www.w3.org/TR/2001/REC-SVG-20010904/DTD/svg10.dtd">
<svg version="1.0" xmlns="http://www.w3.org/2000/svg"
 width="2558.000000pt" height="1356.000000pt" viewBox="0 0 2558.000000 1356.000000"
 preserveAspectRatio="xMidYMid meet">

<g transform="translate(0.000000,1356.000000) scale(0.100000,-0.100000)"
fill="#000000" stroke="none">
<path d="M502 8039 c-61 -31 -87 -73 -87 -144 0 -48 5 -66 24 -93 28 -36 95
-72 132 -71 21 1 20 2 -7 10 -17 5 -38 17 -45 26 -10 11 -10 14 -1 9 8 -5 12
-1 12 12 0 11 7 25 15 32 14 12 14 15 0 30 -8 9 -14 28 -14 41 1 13 -6 41 -15
61 -9 20 -12 39 -7 42 17 11 39 -5 44 -33 8 -40 45 -36 75 7 23 33 52 43 52
18 0 -8 -11 -27 -24 -43 -19 -22 -21 -31 -13 -45 9 -14 7 -22 -11 -41 -20 -21
-20 -25 -6 -38 8 -9 16 -28 18 -42 4 -41 12 -42 57 -13 61 41 86 121 59 192
-34 89 -163 130 -258 83z"/>
</g>
</svg>
