<?xml version="1.0" encoding="UTF-8" standalone="no"?>
<!-- Created with Inkscape (http://www.inkscape.org/) -->

<svg
   width="210mm"
   height="210mm"
   viewBox="0 0 210 210"
   version="1.1"
   id="svg2151"
   sodipodi:docname="rabbit-atomfeed.svg"
   inkscape:version="1.1.2 (0a00cf5339, 2022-02-04)"
   xmlns:inkscape="http://www.inkscape.org/namespaces/inkscape"
   xmlns:sodipodi="http://sodipodi.sourceforge.net/DTD/sodipodi-0.dtd"
   xmlns="http://www.w3.org/2000/svg"
   xmlns:svg="http://www.w3.org/2000/svg">
  <sodipodi:namedview
     id="namedview2153"
     pagecolor="#ffffff"
     bordercolor="#666666"
     borderopacity="1.0"
     inkscape:pageshadow="2"
     inkscape:pageopacity="0.0"
     inkscape:pagecheckerboard="0"
     inkscape:document-units="mm"
     showgrid="false"
     inkscape:zoom="0.54660447"
     inkscape:cx="934.86247"
     inkscape:cy="398.82587"
     inkscape:window-width="1280"
     inkscape:window-height="652"
     inkscape:window-x="0"
     inkscape:window-y="0"
     inkscape:window-maximized="1"
     inkscape:current-layer="layer1" />
  <defs
     id="defs2148">
    <inkscape:path-effect
       effect="bspline"
       id="path-effect2607"
       is_visible="true"
       lpeversion="1"
       weight="33.333333"
       steps="2"
       helper_size="0"
       apply_no_weight="true"
       apply_with_weight="true"
       only_selected="false" />
    <clipPath
       clipPathUnits="userSpaceOnUse"
       id="clipPath2867">
      <path
         id="path2869"
         style="fill:#ff0000;fill-opacity:1;fill-rule:nonzero;stroke:none"
         d="M 57.861328,45.230469 V 715.9043 H 757.49805 V 45.230469 Z m 123.005862,0.722656 c 4.21416,0.0052 8.42871,0.124033 12.64062,0.347656 0.002,0.03322 0.006,0.06639 0.008,0.09961 0.26126,-0.06215 0.47421,-0.0764 0.46876,0.128906 -0.0292,1.091655 -0.1024,2.18035 -0.19727,3.267578 0.0675,0.741326 0.13429,1.483307 0.20312,2.224609 0.81175,0.1695 1.62424,0.343864 2.4336,0.523438 6.00284,2.185954 5.87732,1.29656 3.01562,8.580078 0.21098,0.04807 0.37911,0.148947 0.46094,0.361328 0.0795,0.206225 0.15573,0.415792 0.23438,0.623047 0.0865,-0.0045 0.15568,-0.0044 0.004,0.0078 1.74263,4.593636 3.25702,9.432007 3.26172,14.330078 0.001,1.107242 -4.77472,0.682426 -5.5957,0.640625 -0.54397,-0.07235 -1.08727,-0.149609 -1.63086,-0.22461 1.35322,0.6943 2.70366,1.394723 4.04687,2.109375 6.86793,4.181526 7.05378,2.700084 -0.57226,16.134766 -0.58906,1.037752 -2.39341,-0.07882 -3.56836,-0.28711 -1.06547,-0.188887 -2.52152,-0.524254 -4.1211,-0.923828 0.45014,1.826058 0.60164,3.647087 0.0606,5.398438 -1.08872,3.523891 -5.5808,2.844111 -9.02539,1.757811 -0.0579,-0.006 -0.1509,-0.0355 -0.28906,-0.0918 -1.26432,-0.41359 -2.36902,-0.86827 -3.07031,-1.167974 -1.73637,-0.78975 -3.46501,-1.597368 -5.19141,-2.41211 -0.60938,-0.245566 -1.1573,-0.471434 -1.84961,-0.742187 -1.09367,-0.432013 -2.18428,-0.872588 -3.27734,-1.306641 0.79948,0.562632 1.5996,1.123819 2.39843,1.6875 2.97525,2.099418 11.67004,7.746382 12.76758,10.574222 1.28549,3.31209 -0.40784,7.09364 -0.61133,10.64063 -2.93206,0.82996 -5.74786,2.45508 -8.79492,2.49023 -1.41925,0.0164 -3.91054,-1.24356 -6.47461,-2.82617 -0.0517,1.37206 -0.10361,2.74164 -0.12695,4.09961 -0.008,0.47541 -0.95214,0.002 -1.42773,0.004 -0.62073,-2.75212 0.44915,0.79062 -5.03907,1.24024 -2.21909,0.18179 -4.49012,-0.34525 -6.58984,-1.08594 -0.94912,-0.33481 -1.75615,-0.97994 -2.51367,-1.66992 0.93479,1.18861 1.84826,2.3932 2.71679,3.63281 0.77881,1.05305 2.78373,2.13444 2.15821,3.28516 -7.27452,13.38225 -6.23615,14.01596 -10.3125,10.57226 3.31209,-1.10793 -2.57842,-0.033 -3.84375,-0.48047 -3.80685,-1.34611 -5.33938,-2.74161 -7.29102,-5.46484 0.1921,1.7906 0.18906,3.53171 -0.11719,5.12891 -0.42635,2.22361 -2.80263,3.55889 -4.20312,5.33789 -2.82292,0.37738 -5.62701,1.3219 -8.46875,1.13281 -1.45415,-0.0968 -2.68832,-1.16266 -3.91016,-1.95703 -1.97668,-1.28514 -3.9087,-2.66438 -5.64648,-4.25781 -0.83272,-0.76355 -1.35231,-1.8117 -1.99024,-2.74414 -0.36293,-0.53051 -0.56796,-0.84345 -0.87304,-1.29297 -0.0875,-0.0547 -0.17646,-0.10713 -0.26172,-0.16407 -6.03056,-4.02721 -9.30962,-11.09332 -13.613283,-16.60351 -4.51225,-7.47704 -9.143402,-14.88905 -13.609375,-22.392583 -0.675075,-1.134235 -2.405955,-2.256779 -2.232422,-3.4375 -0.172711,-0.150448 -0.346198,-0.299356 -0.517578,-0.451172 -1.715141,-4.641909 -3.002844,-7.666004 8.699219,-10.435547 0.433297,-0.233619 0.892652,-0.472863 1.408203,-0.740234 0.130266,0.122383 0.266104,0.241837 0.398437,0.363281 1.006717,-0.02546 1.679559,0.802205 2.228516,1.935547 1.15197,0.94689 2.357697,1.8623 3.583984,2.757813 -0.376014,-1.887483 -0.617748,-3.78483 -0.554687,-5.705079 0.05507,-1.677009 1.632344,-2.381747 3.539066,-2.623047 1.26981,-1.271153 3.13693,-2.093397 4.52539,-3.27539 0.9319,-0.161756 1.88734,-0.752596 2.79492,-0.486328 1.30869,0.383967 2.5063,0.822594 3.61914,1.30664 0.0127,-0.08864 0.0297,-0.176905 0.041,-0.265625 0.37693,-0.93973 0.29803,-2.34962 0.85937,-3.099609 -0.86914,-0.434807 -1.51616,-0.970685 -1.5957,-1.765625 -2.79023,-2.745801 -3.54801,-5.744842 2.08203,-9.496094 1.57347,-3.645894 3.66198,-4.144496 6.00195,-3.197265 0.0395,-0.01766 0.0735,-0.03505 0.11328,-0.05273 1.90665,-0.847226 3.42467,1.706644 5.03711,3.519531 0.88363,0.726791 1.77442,1.480667 2.66211,2.191407 1.52052,1.100947 2.65857,1.914431 3.33985,2.392578 0.61613,-0.735106 1.22432,-1.476071 1.79492,-2.238281 1.38831,0.388837 2.7606,0.837978 4.16406,1.167968 0.88745,0.291939 1.79052,0.502207 2.70117,0.675782 0.12062,-0.764749 0.24853,-1.528371 0.38867,-2.292969 -3.45169,1.192572 -2.22327,-0.173187 0.34766,-1.890625 0.23517,-1.294496 0.45576,-2.589598 0.60352,-3.884766 4.05271,-0.8499 8.14996,-1.359725 12.26953,-1.677734 0.18056,-2.055185 0.48135,-4.09918 0.89062,-6.107422 0.16014,-0.785764 1.57308,-0.332886 2.37305,-0.388672 3.16434,-0.220636 6.38126,-0.219347 9.58594,-0.1875 0.16683,-0.101197 0.33225,-0.197425 0.49023,-0.271484 0.89311,-0.418696 1.96508,-0.182465 2.94727,-0.273438 4.21076,-0.230147 8.4245,-0.337252 12.63867,-0.332031 z m -41.79883,13.123047 c -0.11448,0.63012 -0.23217,1.260513 -0.34766,1.890625 0.16146,-0.05578 0.3138,-0.106594 0.4961,-0.173828 2.08834,-0.770225 3.76106,-2.310382 5.45508,-3.8125 -0.0104,-0.328168 -0.0196,-0.656309 -0.0352,-0.984375 -1.83954,0.80138 -3.95755,2.004019 -5.56836,3.080078 z M 146.69922,55.25 c -0.55961,0.142713 -1.21144,0.378404 -1.91211,0.677734 0.30477,0.05475 0.60897,0.111642 0.91406,0.164063 0.31464,-0.266275 0.63455,-0.523392 0.95899,-0.771485 0.0105,-0.02841 0.0238,-0.05098 0.0391,-0.07031 z m -2.44141,0.382812 c -0.32604,-0.01541 -0.72127,0.07025 -0.53515,0.105469 0.303,0.05733 0.60681,0.107201 0.91015,0.16211 -0.002,-0.0332 -0.002,-0.06641 -0.004,-0.09961 -0.006,-0.113499 -0.17547,-0.15872 -0.3711,-0.167969 z m -12.59961,6.550782 c -0.057,10e-4 -0.074,0.01498 -0.0215,0.04297 0.21591,0.115151 0.43405,0.225529 0.65039,0.339844 0.007,-0.03384 0.0144,-0.06771 0.0215,-0.101562 0.0364,-0.174699 -0.47938,-0.284374 -0.65039,-0.28125 z" />
    </clipPath>
    <clipPath
       clipPathUnits="userSpaceOnUse"
       id="clipPath3113">
      <path
         id="path3115"
         style="fill:#ff0000;fill-opacity:1;fill-rule:nonzero;stroke:none;stroke-width:0.264583"
         d="m 194.97104,157.33561 -3.81889,0.001 c -0.068,0.56068 -0.4832,1.45569 -0.57154,1.649 -0.11463,0.25082 -0.23332,0.49987 -0.34985,0.74982 -0.16199,0.28384 -0.16506,-0.0229 -0.13746,0.52297 -0.024,0.71691 -0.21251,1.38167 -0.52968,2.00763 -0.003,0.2093 -0.0186,0.41905 -0.0289,0.51521 -0.029,0.27073 -0.0723,0.53989 -0.10852,0.80977 -0.10267,0.51911 -0.15753,1.04761 -0.26872,1.56477 4e-5,0.001 5.3e-4,0.004 5.3e-4,0.005 0.002,0.26641 0.0146,0.53576 -0.0269,0.79892 -0.0409,0.25946 -0.14537,0.50464 -0.21807,0.75706 -0.008,0.016 -0.0165,0.0311 -0.0243,0.047 -0.0799,0.82318 -0.22577,1.6253 -0.57775,2.39055 -0.36735,0.97123 -0.77374,1.91133 -1.58646,2.60449 -0.59852,0.56092 -1.18289,1.16561 -1.89188,1.58543 -0.34493,0.18888 -0.74256,0.42106 -1.03146,0.55759 -0.031,0.0184 -0.0387,0.0212 -0.063,0.0351 -0.0454,0.0396 -0.089,0.0778 -0.17002,0.14418 -0.50362,0.43194 -1.02369,0.83076 -1.59008,1.17512 0.10241,-0.0864 -0.0884,0.0801 -0.10852,0.0966 -0.18707,0.28201 -0.38656,0.55708 -0.60513,0.82114 -0.5939,0.60463 -1.26326,1.11737 -1.93632,1.62832 -0.18705,0.1673 -0.38375,0.32208 -0.58653,0.46819 -0.0317,0.0397 -0.0705,0.072 -0.1173,0.0951 -0.0281,0.0229 -0.056,0.0472 -0.0842,0.0698 -0.0122,0.0174 -0.0245,0.0348 -0.0367,0.0522 -0.53558,0.76624 -0.47233,0.73219 -0.5426,0.38395 -0.4236,0.29541 -0.86921,0.55628 -1.36167,0.7705 -0.1822,0.0793 -0.65726,0.35683 -0.56896,0.1788 0.0409,-0.0825 0.0949,-0.15549 0.15503,-0.22376 -0.004,0.008 -1.41233,0.41811 -1.89497,0.54054 -0.48755,0.0754 -0.96809,0.17884 -1.44953,0.2868 -0.71151,0.1011 -1.38151,0.35207 -2.06396,0.56483 -0.72106,0.20161 -1.46059,0.31549 -2.18281,0.51056 -0.81446,0.23936 -1.64221,0.42422 -2.47892,0.56586 -0.92845,0.10604 -1.86236,0.10796 -2.79363,0.18396 -1.1449,0.0699 -2.29463,0.23158 -3.4432,0.14728 -0.786,0.008 -1.57161,-0.0341 -2.35644,-0.0718 -0.6871,-0.0179 -1.37402,-0.0358 -2.06086,-0.062 -0.87817,-0.005 -1.75226,0.0747 -2.62671,0.14263 -1.01517,0.0308 -2.03,0.0371 -3.04426,0.0935 -0.9049,0.0651 -1.80776,0.15571 -2.7156,0.16071 -0.58865,0.0421 -1.17928,0.0318 -1.76888,0.0248 -0.63631,-0.0121 -1.27117,0.027 -1.90634,0.0584 -1.1041,0.0463 -2.2086,0.0572 -3.3135,0.0532 -1.72226,-0.001 -3.43332,0.18996 -5.14852,0.30127 -0.83495,-0.041 -1.66666,-0.025 -2.49959,0.0139 -0.35061,0.0353 -0.70072,0.069 -1.05213,0.10387 -0.43235,0.006 -0.42501,0.007 -0.48266,0.008 -0.296,0.0416 -0.5912,0.0896 -0.88883,0.1173 -1.08581,-0.0671 -1.45158,-0.0507 -1.46245,-1.02009 -0.45697,-0.001 -0.91406,-0.002 -1.37097,-0.005 -0.51808,-0.004 -1.03633,-0.007 -1.55443,-0.007 -0.3294,-0.003 -0.65864,-0.0102 -0.98805,-0.002 -0.61997,0.005 -1.24051,0.0155 -1.85829,-0.0496 -0.19602,-0.0162 -0.39263,-0.005 -0.58911,-0.004 -0.53427,0.0379 -1.06908,0.0678 -1.60507,0.0734 -0.61846,0.0104 -1.2325,0.12038 -1.8495,0.15658 -0.89115,0.0643 -1.78449,0.11417 -2.67839,0.10128 -0.46409,-0.0156 -0.91921,-0.0626 -1.38131,0.009 -0.50996,0.0259 -1.0203,0.042 -1.53065,0.0512 -0.80428,0.10527 -1.61092,0.1943 -2.42053,0.23565 -0.58032,0.44593 -1.55453,0.60049 -2.80913,0.14624 -0.14246,-0.0516 -0.28418,-0.10561 -0.42581,-0.15968 -0.0394,-0.001 -0.0789,-0.002 -0.11834,-0.003 -0.60149,-0.0155 -1.20301,-0.0305 -1.80454,-0.0434 -0.36662,-0.008 -0.62449,-0.006 -0.80512,-0.0227 -10e-4,-7e-5 -0.003,9e-5 -0.004,0 -0.002,-1.6e-4 -0.001,-2.6e-4 -0.003,-5.3e-4 0.002,2.2e-4 0.005,2.7e-4 0.007,5.3e-4 0.0356,0.002 0.0929,-5e-5 0.15348,-0.005 -0.0983,-7.9e-4 -0.18436,-0.002 -0.18087,0.002 -0.35909,-0.0397 -0.38879,-0.17426 -0.36587,-0.65577 -0.0517,-0.0724 -0.0957,-0.17196 -0.13332,-0.28732 -0.12834,-0.14808 -0.22702,-0.30778 -0.29249,-0.47439 -0.65146,-0.22235 -1.0724,-0.62199 -1.26039,-1.08417 v 6.60114 h 92.28842 z m -92.28842,0.001 v 21.79919 c 0.29984,-0.74107 1.17546,-1.36934 2.65668,-1.38545 1.28614,-0.014 2.57817,-0.10521 3.86282,0.007 0.38995,0.034 0.87534,0.28896 1.21026,0.0837 1.23544,-0.004 2.47091,0.0745 3.70572,0.0775 1.08855,-0.006 2.17829,-0.0254 3.2675,-0.0248 0.36006,-0.0193 0.71158,0.0723 1.06867,0.0987 0.60816,0.0754 1.21945,0.0529 1.82986,0.0599 0.48153,0.0301 0.95701,0.0988 1.44022,0.0873 0.42099,-0.0284 0.84273,-0.0184 1.26401,-0.005 0.0263,0.003 0.0527,0.002 0.0791,0.004 0.55213,-0.0689 1.10253,-0.14823 1.65571,-0.20981 1.42899,-0.16977 2.82098,-0.59818 4.223,-0.91932 -0.0188,-0.30178 2.09018,-0.0631 1.69344,-0.2248 1.12669,-0.10454 2.25538,-0.19067 3.38274,-0.28887 0.63731,-0.0558 1.27511,-0.10382 1.91306,-0.15193 1.21941,-0.12643 2.43326,-0.30544 3.65249,-0.43873 1.18474,-0.0875 2.36473,-0.20493 3.5388,-0.38757 0.62066,-0.15662 1.25745,-0.10561 1.88929,-0.11731 0.98008,-0.0146 1.94309,-0.22658 2.8975,-0.4315 0.74225,-0.17181 1.48259,-0.35037 2.22467,-0.52296 0.81853,-0.19207 1.64591,-0.3437 2.46342,-0.54002 1.01501,-0.25703 2.06256,-0.33515 3.09852,-0.4656 0.98667,-0.14736 1.97662,-0.2626 2.97139,-0.3359 0.73415,-0.009 1.45553,-0.0818 2.18229,-0.17363 1.19483,-0.17834 2.40052,-0.23128 3.60702,-0.22428 0.49373,0.0319 0.98784,0.0185 1.48208,0.0155 0.54266,-0.019 1.08353,0.0201 1.62471,0.0507 0.77378,0.0376 1.54997,-0.0158 2.32079,-0.0832 0.26353,-0.0425 0.52899,-0.0529 0.79478,-0.0548 0.49473,-0.0899 0.99829,-0.15374 1.50482,-0.21135 0.46384,-0.51759 1.27692,-0.94102 2.43757,-1.08314 0.27491,-0.0337 0.58038,-0.0356 0.90176,-0.0243 -0.0235,-0.0214 -0.0466,-0.0409 -0.0703,-0.0631 -0.13855,-0.1287 0.0969,-0.36631 0.16123,-0.54415 0.27061,-0.74876 0.73046,-1.38118 1.20147,-2.01693 1.97225,-2.16288 4.08846,-4.19421 6.27714,-6.13606 0.6128,-0.43998 1.78437,-1.32366 2.78898,-1.67948 0.17692,-0.64884 0.38755,-1.38219 0.38189,-2.05156 -0.002,-0.29905 -0.21802,-0.6385 -0.0636,-0.89452 0.0972,-0.16105 0.26803,-0.37204 0.45527,-0.59376 z m 86.74871,0 c 0.11392,0.23654 0.22478,0.47428 0.32969,0.71469 0.13615,-0.15524 0.13674,-0.0888 0.0811,0.18862 0.0951,0.22496 0.18546,0.4521 0.27027,0.68109 0.13632,-0.0835 0.28261,-0.24718 0.50901,-0.48886 -0.26923,-0.3652 -0.53846,-0.73037 -0.80771,-1.09554 z m 0.4408,1.59112 c -0.002,0.001 -0.008,0.0184 -0.0191,0.0548 0.003,2.6e-4 0.006,0.001 0.009,0.002 0.008,-0.0343 0.0115,-0.0548 0.0103,-0.0568 z m -0.0703,0.23461 c -0.0311,0.1118 -0.0978,0.36485 -0.15503,0.58085 0.0486,-0.1231 0.11832,-0.37263 0.16846,-0.56896 -0.002,-0.002 -0.004,-0.003 -0.006,-0.005 l -0.007,-0.007 z m -4.36097,3.1409 c -5.3e-4,5.3e-4 -0.002,0.005 -0.004,0.0129 -0.0215,0.0875 -0.0374,0.14684 -0.0548,0.21394 0.003,-0.006 0.006,-0.012 0.009,-0.0181 0.0249,-0.0531 0.054,-0.21322 0.0501,-0.20877 z m -9.40873,16.4977 c -0.0362,0.0209 -0.0772,0.0374 -0.11111,0.0605 -0.18903,0.0938 -0.38156,0.1904 -0.57154,0.28835 0.18015,0.10182 0.36316,0.20123 0.51986,0.32195 0.10535,0.0417 0.35184,0.0183 0.31627,0.12505 0.1222,-0.13854 0.27496,-0.25454 0.42839,-0.37 -0.19395,-0.14194 -0.38793,-0.28386 -0.58187,-0.42581 z m -46.92686,4.16873 c -0.0237,-0.001 1.53602,0.472 1.89601,0.11886 -0.33712,-0.0326 -0.92224,-0.0718 -1.89601,-0.11886 z" />
    </clipPath>
  </defs>
  <g
     inkscape:label="Layer 1"
     inkscape:groupmode="layer"
     id="layer1">
    <path
       id="path2605"
       style="fill:none;stroke:#000000;stroke-width:0.999999px;stroke-linecap:butt;stroke-linejoin:miter;stroke-opacity:1"
       transform="scale(0.26458333)"
       d="m 216.06641,45.730469 c -8.797,0.0032 -16.26533,0.0326 -24.13477,0.05664 0.95676,2.500129 1.74825,5.049253 1.35938,7.810547 -1.00363,7.126511 -8.04242,10.669499 -13.35157,14.160156 -6.19301,3.86523 -12.54461,7.684634 -19.04101,11.300782 -1.18982,0.903701 -2.36809,1.809327 -3.49805,2.738281 -15.60489,10.368578 -29.20142,18.836835 -48.76758,18.1875 -0.61428,-0.02039 -1.20876,-0.154919 -1.79687,-0.337891 -0.2389,0.03275 -0.47867,0.06331 -0.7168,0.09961 -4.90403,0.239357 -9.804478,0.838186 -14.71289,0.718746 -14.964839,-0.36408 7.614667,-2.755507 -10.833984,-1.789059 -1.929671,0.101087 -4.037063,1.478379 -5.908204,1.744139 -13.181335,14.0336 -15.152012,36.10783 -15.992187,124.23047 -0.975626,102.32952 -0.469603,293.68263 13.949219,389.37891 14.418821,95.69627 42.748736,95.72896 159.685546,98.31445 116.93681,2.58549 322.47684,7.7237 424.61719,-6.55273 102.14035,-14.27644 100.87512,-47.9688 99.86328,-133.17579 -1.01184,-85.20694 -1.7719,-221.92583 -2.54883,-318.64648 C 753.46135,157.2481 752.66753,100.53153 635.33398,72.578125 532.66717,48.118894 340.77397,45.684685 216.06641,45.730469 Z m -92.36914,26.810547 c -0.23781,0.152196 -0.48056,0.308367 -0.73633,0.472656 -1.34369,1.357001 -2.78962,2.629592 -4.25,3.890625 0.0285,-0.01205 0.0575,-0.02303 0.0859,-0.03516 1.46664,-0.624722 2.91926,-1.283935 4.36718,-1.951172 0.15369,-0.724747 0.33119,-1.515529 0.53321,-2.376953 z"
       clip-path="url(#clipPath2867)" />
    <path
       style="fill:#000000;stroke-width:0.264583"
       id="path2970"
       d="m 23.286726,25.722137 c 0.706714,-1.294336 1.506401,-2.520889 2.447552,-3.655593 1.128251,-1.315598 2.440293,-2.458938 3.764652,-3.571026 0.867479,-0.679174 1.665113,-1.438588 2.484803,-2.172555 0.521999,-0.48346 1.081283,-0.919528 1.675762,-1.309324 1.097484,-0.661727 1.665573,-1.003115 -2.932517,1.69949 -0.07989,0.04696 0.163951,-0.08674 0.248658,-0.124314 0.408085,-0.181034 0.836443,-0.317181 1.258162,-0.461693 1.217549,-0.399625 2.425184,-0.826688 3.650062,-1.203714 1.51724,-0.455519 3.052823,-0.845683 4.597958,-1.193617 1.717146,-0.403951 3.479081,-0.487565 5.234776,-0.547272 1.45206,-0.04632 2.904911,-0.0411 4.357375,-0.02432 0.586926,-0.3454 1.173851,-0.690801 1.760779,-1.036202 0,0 0.08691,-0.06148 0.08691,-0.06148 v 0 c 0.395875,-0.369733 0.79175,-0.739466 1.187625,-1.109199 -1.487064,0.02644 -2.973914,0.06406 -4.461037,0.08794 -1.757502,0.04432 -3.527231,0.07913 -5.249516,0.472245 -1.544854,0.33866 -3.082906,0.709438 -4.599389,1.160265 -1.217636,0.360031 -2.416307,0.774044 -3.623114,1.167817 -1.827922,0.605792 -3.469124,1.194864 -5.035675,2.556931 -0.569089,0.4115 -1.102262,0.86765 -1.621327,1.340406 -0.771342,0.699155 -1.548468,1.391944 -2.313187,2.098112 -1.245488,1.156994 -2.566781,2.248643 -3.634674,3.580207 -0.929996,1.171043 -1.717171,2.43248 -2.468051,3.724694 0,0 3.183413,-1.417797 3.183413,-1.417797 z" />
    <path
       style="fill:#000000;stroke-width:0.264583"
       id="path3005"
       d="m 19.824698,30.862309 c 0.240539,-1.486749 0.770856,-2.903786 1.362886,-4.281426 0.82141,-1.737648 1.913333,-3.330195 2.955289,-4.940332 0.904027,-1.43767 1.973055,-2.744047 3.227167,-3.886518 0.243948,-0.18387 0.482981,-0.374451 0.731848,-0.551609 0.292295,-0.208076 0.588981,-0.410233 0.891129,-0.60373 0.33391,-0.213838 1.361652,-0.81302 1.016463,-0.617907 -5.000312,2.826361 -1.402585,0.874174 -0.288329,0.343247 1.874276,-0.847151 3.775781,-1.632554 5.696386,-2.368073 1.885112,-0.748995 3.83095,-1.312241 5.812584,-1.735081 1.29993,-0.273683 2.623002,-0.384688 3.948795,-0.407215 0.977283,0.01974 1.95226,0.08886 2.929408,0.117403 0.931802,0.02877 1.863736,-0.0084 2.795262,-0.02981 1.067562,-0.02293 2.135212,-0.04194 3.202549,-0.0039 1.020267,0.06844 2.030264,0.238517 3.040128,0.393028 0.266269,-0.05756 0.628013,0.20396 0.8918,0.126833 0.602527,-0.17617 1.701535,-0.926259 2.051756,-1.139352 0,0 0.0865,-0.06206 0.0865,-0.06206 v 0 c 0.336441,-0.289141 0.690237,-0.559236 1.009324,-0.867423 0.09644,-0.09314 0.2345,-0.19579 0.230238,-0.329791 C 61.41535,10.001947 60.532446,9.94568 60.504239,9.922041 59.47792,9.788695 58.457345,9.6114903 57.427309,9.5083465 56.35635,9.4453542 55.283671,9.4704759 54.21151,9.4874074 c -0.927348,0.017187 -1.854626,0.043494 -2.782212,0.042262 -0.985592,-0.015708 -1.967897,-0.08017 -2.952679,-0.1165987 -1.355521,0.00235 -2.708336,0.114735 -4.04023,0.3753911 -2.003919,0.4139022 -3.973184,0.9671122 -5.882515,1.7092862 -1.939788,0.737708 -3.855993,1.53297 -5.753164,2.374662 -3.200699,1.491736 -6.338355,3.208206 -9.116713,5.395459 -1.211725,1.17905 -2.258021,2.500174 -3.130329,3.951186 -1.010518,1.598488 -2.007461,3.21516 -2.792702,4.938925 -0.58564,1.41618 -1.065877,2.873444 -1.360897,4.380084 0,0 3.424629,-1.675754 3.424629,-1.675754 z" />
    <path
       style="fill:#000000;stroke-width:0.264583"
       id="path3009"
       d="m 27.898029,18.916757 c 3.747331,-1.12055 7.561858,-1.946113 11.410394,-2.627821 3.786973,-0.624795 7.612999,-0.950406 11.435276,-1.266531 3.677912,-0.284938 7.368759,-0.298958 11.054762,-0.380627 3.1495,-0.05184 6.29934,-0.0944 9.449284,-0.103609 3.305284,0.04345 6.611252,0.144914 9.912882,0.306619 4.083722,0.18366 8.157662,0.518976 12.240392,0.717855 2.955996,0.142444 5.913303,0.233294 8.871551,0.131328 2.24447,-0.08225 4.48311,-0.263098 6.7192,-0.467044 2.22342,-0.190627 4.44389,-0.417421 6.66909,-0.586248 1.88283,-0.101535 3.76511,-0.228621 5.65018,-0.278847 1.79968,-0.106038 3.60081,-0.173705 5.40361,-0.151215 1.85573,0.0207 3.70798,0.127806 5.56004,0.237052 1.90903,0.09582 3.80911,0.303078 5.69932,0.581949 1.52588,0.259737 3.04334,0.561773 4.576,0.780112 1.5564,0.218851 3.12663,0.298983 4.69509,0.373219 1.27863,0.07694 2.55798,0.139037 3.83612,0.224142 1.30112,0.08776 2.5852,0.322947 3.86817,0.545804 1.75114,0.310859 3.4892,0.692799 5.24553,0.972894 2.12919,0.272018 4.26802,0.455198 6.39948,0.7088 1.7081,0.20501 3.39469,0.539833 5.04783,1.013243 1.23922,0.368025 2.4427,0.844323 3.59032,1.438577 0.85584,0.456272 1.64336,1.024545 2.45616,1.550342 0.81717,0.49953 1.63109,0.9992 2.39136,1.58302 0.56018,0.437884 1.04421,0.956948 1.51573,1.485751 2.30021,3.034683 0.0833,2.340983 6.49946,0.128133 0,0 0.22963,-0.135177 0.22963,-0.135177 v 0 c 4.40855,-3.912093 4.77556,-2.449487 2.76287,-5.652547 -0.46169,-0.656883 -1.07235,-1.184721 -1.68758,-1.695373 -0.77337,-0.61383 -1.57874,-1.183923 -2.43251,-1.681797 -0.85578,-0.537356 -1.69457,-1.102413 -2.57861,-1.593695 -1.20259,-0.610952 -2.4035,-1.24068 -3.70917,-1.607155 -1.7137,-0.514644 -3.46341,-0.860358 -5.23852,-1.089059 -2.1208,-0.294971 -4.26231,-0.387049 -6.38312,-0.684703 -1.74976,-0.268589 -3.48955,-0.588047 -5.22028,-0.960956 -1.30456,-0.24185 -2.6138,-0.465786 -3.93057,-0.630068 -1.32226,-0.12584 -2.65253,-0.1108839 -3.97878,-0.1675214 -1.54718,-0.071036 -3.09646,-0.1294151 -4.63671,-0.3010324 -1.54944,-0.194066 -3.08327,-0.4857043 -4.62618,-0.7243222 -1.92285,-0.292799 -3.85379,-0.5005729 -5.79536,-0.6258415 -1.87847,-0.1246939 -3.76045,-0.1886497 -5.6421,-0.2440445 -1.84167,-0.020299 -3.6836,0.02046 -5.52144,0.147198 -1.95072,0.1683843 -3.90771,0.2319835 -5.85826,0.4050324 -2.22322,0.1830552 -4.44654,0.3649607 -6.66818,0.5665925 -2.28424,0.2221341 -4.5673,0.4602583 -6.85631,0.6289588 -3.01562,0.1700786 -6.03394,0.1984753 -9.05345,0.1040781 C 97.154538,9.767981 93.040818,9.5661315 88.933609,9.26585 85.700266,9.0488089 82.470346,8.7191468 79.225816,8.7344053 c -3.202323,0.029075 -6.402694,0.1515787 -9.604748,0.1998311 -3.679827,0.066556 -7.358353,0.1969915 -11.03717,0.303521 -4.01615,0.2584558 -7.988019,0.9132026 -11.959905,1.5432456 -3.71304,0.62003 -7.448907,1.194236 -11.079921,2.208005 0,0 -7.646043,5.927749 -7.646043,5.927749 z" />
    <path
       style="fill:#000000;stroke-width:0.264583"
       id="path3011"
       d="m 166.58434,20.920664 c 1.40143,0.486775 2.79687,0.991143 4.1583,1.581481 1.14958,0.528405 2.25161,1.148523 3.379,1.720871 0.83882,0.418736 1.69124,0.810116 2.52354,1.241709 0.6248,0.327001 1.23399,0.682344 1.85189,1.021918 0.88113,0.533922 1.72948,1.120032 2.55788,1.731905 0.89355,0.662117 1.70326,1.425495 2.53952,2.155946 0.61699,0.547082 1.22841,1.100432 1.80481,1.690447 0.36254,0.420399 0.66817,0.884838 0.99434,1.334016 0.39899,0.484934 0.65161,1.059246 0.86241,1.644735 0.23251,0.705839 0.464,1.412171 0.71077,2.113404 0.19881,0.594865 0.31443,1.211411 0.40983,1.829864 0.0876,0.740642 0.2326,1.469916 0.40303,2.195205 0.14291,0.631174 0.35746,1.24183 0.55835,1.855862 0.0277,0.08056 -0.001,0.229206 0.083,0.241662 0.24753,0.0366 0.51151,-0.02019 0.74104,-0.119827 1.38206,-0.600001 2.71264,-1.312238 4.06896,-1.968357 0,0 0.23313,-0.129032 0.23313,-0.129032 v 0 c 1.30063,-0.812279 2.63516,-1.57263 3.90188,-2.436842 0.2302,-0.157051 0.43048,-0.370885 0.56843,-0.613007 0.0409,-0.07183 -0.0579,-0.154882 -0.0868,-0.232321 -0.21291,-0.564141 -0.40448,-1.137708 -0.54596,-1.724265 -0.15845,-0.704604 -0.28619,-1.41428 -0.37842,-2.130732 -0.11746,-0.677095 -0.25198,-1.354479 -0.51316,-1.993551 -0.25576,-0.711845 -0.50449,-1.425797 -0.76431,-2.136124 -0.29118,-0.658233 -0.68722,-1.239949 -1.10961,-1.820656 -0.38802,-0.503822 -0.76238,-1.005605 -1.30424,-1.359149 -0.64193,-0.557816 -1.26775,-1.134907 -1.93193,-1.666717 -0.87489,-0.74011 -1.75637,-1.472626 -2.6736,-2.160213 -0.85855,-0.635304 -1.70974,-1.281527 -2.65104,-1.793096 -0.61341,-0.392694 -1.25311,-0.739565 -1.91057,-1.0533 -0.8633,-0.447375 -1.74422,-0.84112 -2.65131,-1.192789 -1.18454,-0.539787 -2.3221,-1.181138 -3.53051,-1.670931 -1.39273,-0.594416 -2.84225,-1.021774 -4.25661,-1.560282 0,0 -8.04205,5.402166 -8.04205,5.402166 z" />
    <path
       style="fill:#000000;stroke-width:0.264583"
       id="path3015"
       d="m 34.337953,11.677214 c -4.128133,1.778832 -8.515325,3.567745 -11.615936,6.875912 -0.975042,1.080006 -1.673444,2.358158 -2.282025,3.669382 -0.563864,1.281023 -1.069259,2.586787 -1.584574,3.887834 -0.442808,1.11786 -0.759232,2.281243 -1.027519,3.451784 -0.209269,1.027295 -0.369999,2.063379 -0.594006,3.087909 -0.270283,1.146136 -0.471223,2.305376 -0.678984,3.463706 -0.229244,1.436584 -0.373954,2.882577 -0.623415,4.3161 -0.303403,1.651571 -0.406503,3.328831 -0.620243,4.993346 -0.20601,1.760485 -0.314112,3.530473 -0.41921,5.299279 -0.05026,1.541113 -0.19018,3.070815 -0.383394,4.59962 -0.200242,1.628589 -0.319935,3.265551 -0.440032,4.90157 -0.0904,1.716744 -0.270964,3.426693 -0.357308,5.143492 -0.06039,1.731902 -0.209528,3.458665 -0.299087,5.189053 -0.07662,1.363099 -0.139286,2.726441 -0.176763,4.091165 -0.04985,1.472866 -0.07623,2.945283 -0.04045,4.41865 -0.0091,1.561798 0.10557,3.119832 0.142399,4.680209 2.91e-4,1.515145 0.0488,3.029717 0.08395,4.544333 0.04089,1.970071 0.110447,3.941339 0.233842,5.908172 0.133064,2.200817 0.310196,4.398478 0.473157,6.59716 0.117379,1.9675 0.132134,3.93904 0.190351,5.90873 0.08934,1.66448 0.22545,3.32723 0.37959,4.98702 0.137709,1.78631 0.266355,3.57309 0.409614,5.35899 0.15973,1.84748 0.260089,3.69925 0.38819,5.54902 0.137637,1.74691 0.216666,3.49721 0.337574,5.24517 0.07627,1.86308 0.193681,3.72254 0.365267,5.57924 0.158121,2.11777 0.370528,4.23068 0.533682,6.34798 0.232658,2.39414 0.581592,4.77373 0.821964,7.1678 0.207691,2.0081 0.36077,4.0211 0.521853,6.03327 0.17405,1.52193 0.20678,3.05458 0.332555,4.57996 0.09889,1.31783 0.265456,2.62979 0.462184,3.93625 0.230605,1.67058 0.758008,3.2728 1.197179,4.89444 0.390094,1.45916 0.725869,2.93153 1.034168,4.40983 0.208281,1.01973 0.485933,2.02035 0.722127,3.0345 0.248326,1.00103 0.452043,2.01183 0.67125,3.01933 0.20195,0.95907 0.596766,1.85259 1.106217,2.68447 0.464207,0.78852 1.005121,1.52539 1.572995,2.24111 0.524212,0.62261 1.031746,1.25761 1.525803,1.90427 0.400926,0.52746 0.835152,1.0258 1.314857,1.48255 0.558268,0.49149 1.181471,0.89756 1.849615,1.22134 1.021887,0.45226 2.133036,0.63728 3.23804,0.72785 1.680498,-0.89177 3.360996,-1.78354 5.041495,-2.67531 0,0 0.217411,-0.15405 0.217411,-0.15405 v 0 c 0.991631,-0.97379 1.983266,-1.94758 2.974898,-2.92137 -0.925465,-0.31039 -1.887196,-0.48225 -2.824734,-0.75627 -0.620562,-0.20583 -1.13071,-0.53219 -1.616636,-0.97187 -0.488651,-0.37773 -0.886016,-0.83655 -1.277012,-1.31278 -0.548155,-0.5945 -1.090247,-1.19367 -1.582565,-1.8365 -0.53381,-0.67087 -1.083577,-1.33635 -1.513562,-2.08064 -0.391359,-0.78735 -0.752052,-1.58427 -0.918425,-2.45478 -0.240604,-1.00144 -0.449413,-2.00975 -0.684384,-3.01249 -0.228769,-1.01693 -0.415412,-2.04048 -0.670544,-3.05076 -0.339445,-1.48321 -0.688594,-2.96445 -1.137629,-4.41925 -0.451316,-1.58502 -0.809548,-3.19469 -1.012201,-4.83191 -0.152992,-1.29801 -0.291994,-2.59753 -0.404092,-3.89982 -0.108517,-1.52116 -0.267081,-3.03745 -0.407364,-4.55589 -0.197828,-1.99187 -0.447503,-3.97717 -0.700891,-5.96266 -0.283568,-2.38774 -0.553263,-4.77684 -0.759707,-7.17268 -0.197783,-2.10916 -0.35676,-4.22183 -0.543242,-6.33197 -0.110029,-1.85765 -0.237582,-3.71424 -0.33626,-5.57251 -0.07822,-1.75031 -0.238149,-3.49393 -0.37515,-5.24041 -0.129034,-1.84473 -0.285145,-3.6869 -0.440261,-5.52956 -0.129071,-1.78732 -0.242314,-3.5756 -0.429967,-5.35819 -0.126825,-1.65325 -0.23039,-3.30795 -0.340769,-4.96233 -0.12064,-1.94969 -0.202384,-3.901409 -0.359011,-5.848742 -0.142748,-2.198283 -0.314966,-4.394555 -0.441586,-6.593832 -0.08077,-1.95815 -0.142064,-3.91699 -0.227276,-5.874933 -0.02368,-1.510167 -0.01866,-3.021811 -0.142043,-4.528394 -0.06205,-1.550731 -0.111383,-3.102932 -0.131992,-4.654679 0.02297,-1.467361 0.02137,-2.935656 0.09966,-4.401611 0.06529,-1.354453 0.08046,-2.710244 0.146224,-4.064662 0.0753,-1.711507 0.07233,-3.427587 0.237508,-5.134001 0.152209,-1.71364 0.240825,-3.431707 0.371815,-5.14704 0.118758,-1.632585 0.301132,-3.258381 0.503293,-4.882687 0.172073,-1.542164 0.315607,-3.085698 0.322606,-4.639106 0.09007,-1.747131 0.200144,-3.495135 0.428083,-5.23059 0.193255,-1.665738 0.385201,-3.33297 0.694751,-4.982041 0.229547,-1.44226 0.409598,-2.892671 0.68809,-4.326676 0.224055,-1.163116 0.463074,-2.323547 0.744765,-3.474265 0.197868,-1.021585 0.346593,-2.052783 0.603025,-3.062566 0.266978,-1.119342 0.580438,-2.225883 1.026133,-3.289439 0.499224,-1.273356 0.97435,-2.560043 1.579235,-3.788125 0.666319,-1.23648 1.408422,-2.436116 2.475404,-3.373245 2.59343,-2.162888 7.672309,-4.568999 -7.125064,3.909815 -0.345507,0.197974 0.699847,-0.382541 1.065556,-0.540104 0.157308,-0.06777 0.316745,-0.130496 0.475117,-0.195744 0,0 7.941824,-6.245129 7.941824,-6.245129 z" />
    <path
       style="fill:#000000;stroke-width:0.264583"
       id="path3017"
       d="m 29.347305,17.532192 c 1.000075,-0.65207 2.003269,-1.300267 3.034038,-1.903015 3.077758,-1.740659 0.644877,-0.366369 -7.578051,4.383632 -0.148232,0.08563 0.295319,-0.173239 0.444164,-0.257795 0.337556,-0.191758 0.683507,-0.365888 1.025247,-0.549781 3.897824,-1.781041 7.282141,-4.076125 10.767971,-6.401507 2.945715,-1.743467 6.706201,-3.9083588 -7.429249,4.292032 -0.8685,0.503842 0.827366,-0.409993 1.014352,-0.494353 0.627375,-0.313574 1.289497,-0.543813 1.940393,-0.802172 1.209974,-0.548029 2.501419,-0.850453 3.794874,-1.123638 0.933143,-0.186947 1.881513,-0.27031 2.829684,-0.333218 0.495184,-0.04561 0.989,0.0054 1.48458,-0.0051 3.858321,-0.146032 -8.195056,6.542375 8.446876,-6.1282063 -1.459619,0.2097659 -2.899489,0.5301994 -4.360132,0.7410789 -1.688222,0.2068986 -3.379248,0.3787775 -5.061157,0.6343486 -1.419042,0.1952246 -2.763443,0.6415228 -4.047103,1.2641448 -5.275265,2.352537 -8.519335,4.382025 -12.048159,8.071563 -1.275167,1.279862 -2.200286,2.818468 -2.993602,4.427403 -0.916744,1.903658 -1.718596,3.863413 -2.356746,5.877673 -0.524279,1.621327 -0.748636,3.307784 -0.9391,4.9936 -0.09139,1.239203 -0.280361,2.465255 -0.483362,3.689945 -0.222721,1.220031 -0.505776,2.421187 -0.682191,3.650181 -0.10424,1.027896 -0.320297,2.061216 -0.301675,3.097824 0.903011,3.807471 8.420926,-0.655955 8.91584,-4.229492 0.307457,-1.732049 0.701716,-3.449738 1.122883,-5.157779 0.497292,-1.894147 0.94498,-3.799173 1.652672,-5.628087 0.578085,-1.368176 1.389549,-2.618404 2.279372,-3.801453 0.98348,-1.215695 2.213983,-2.195123 3.358433,-3.252703 0.874355,-0.752484 1.572723,-1.674128 2.374813,-2.496962 0.759502,-0.711332 1.536665,-1.403348 2.290614,-2.120613 0.869958,-0.803585 1.687002,-1.675999 2.679242,-2.330229 3.272973,-1.822718 0.29401,-0.167437 -7.81014,4.548425 -0.153416,0.08928 0.30621,-0.179926 0.463701,-0.261801 0.404892,-0.210492 0.826368,-0.358235 1.257739,-0.502309 1.024535,-0.321646 2.092275,-0.467179 3.147803,-0.647342 1.060294,-0.183814 2.113857,-0.402582 3.1739,-0.587704 1.25385,-0.188279 2.517563,-0.289237 3.782097,-0.370015 1.167352,-0.04184 2.33372,-0.0868 3.499487,-0.160794 0.956953,-0.04982 1.915631,-0.05803 2.873661,-0.07007 1.216919,-0.03736 2.430849,0.06821 3.64653,0.104252 1.76884,0.02123 3.537672,0.01274 5.302898,-0.106866 2.314697,-0.271405 4.621652,-0.586135 6.946585,-0.760286 1.942073,-0.12324 3.884528,-0.128643 5.824913,0.01061 1.674982,0.153534 3.346387,0.345509 5.017704,0.534633 1.389092,0.236163 2.796093,0.211832 4.197194,0.139605 2.503299,-0.06894 1.469252,-0.448739 5.30539,-3.248675 0,0 0.216017,-0.156007 0.216017,-0.156007 v 0 c 5.779465,-4.4283125 5.57118,-3.366427 3.160003,-3.025641 -1.429414,0.187273 -2.863596,0.306241 -4.305816,0.183044 -1.718717,-0.127182 -3.43432,-0.286183 -5.147926,-0.469643 -2.029709,-0.143367 -4.068792,-0.230492 -6.096953,-0.004 -2.311516,0.194752 -4.620461,0.415061 -6.919306,0.729523 -1.728332,0.187883 -3.463338,0.256786 -5.201595,0.17828 -1.208275,-0.0295 -2.413132,-0.104282 -3.619992,-0.163298 -0.972283,-0.0039 -1.944552,-4.23e-4 -2.916208,0.03951 -1.207714,0.05108 -2.408118,0.201137 -3.616325,0.24796 -1.265063,0.04987 -2.533586,0.08917 -3.789585,0.259643 -1.069374,0.12091 -2.12336,0.317781 -3.174582,0.547554 -1.058412,0.194055 -2.123463,0.345747 -3.181368,0.542523 -4.268835,1.019107 -7.976079,3.763122 -11.5184,6.237998 -0.932685,0.782498 -1.82068,1.612424 -2.700459,2.45367 -0.788527,0.708055 -1.584124,1.412451 -2.290351,2.204924 -0.717634,0.808916 -1.438822,1.616994 -2.228173,2.357537 -1.110884,1.045303 -2.221405,2.089322 -3.08653,3.35797 -0.822799,1.221261 -1.472819,2.545466 -1.920499,3.951528 -0.53116,1.817722 -0.821053,3.689972 -1.255675,5.531861 -0.427313,1.781786 -0.810355,3.58426 -1.44518,5.306425 -1.162349,3.320137 -0.04006,-0.101135 8.363417,-4.156258 0.09906,-0.0478 0.05395,0.23072 0.140513,0.298583 0.201116,0.157659 0.06021,-0.680742 0.207569,-0.573506 0.117521,-0.987126 0.08744,-1.992715 0.300168,-2.970638 0.235724,-1.247638 0.567073,-2.473209 0.808842,-3.719571 0.187609,-1.2279 0.317646,-2.462321 0.394323,-3.702299 0.166501,-1.608804 0.441041,-3.208647 0.92045,-4.756422 0.651238,-1.963785 1.44032,-3.879864 2.412796,-5.708307 0.88776,-1.529693 1.893806,-2.972565 3.182991,-4.197447 0.578263,-0.566794 1.158364,-1.131879 1.783638,-1.647667 2.702108,-2.228973 8.065572,-4.3252419 -6.860151,3.756475 1.210207,-0.718195 2.47686,-1.307845 3.876627,-1.549454 1.66732,-0.309447 3.349665,-0.509009 5.038543,-0.659476 1.372817,-0.171548 2.736501,-0.393468 4.097718,-0.637333 13.05433,-9.3212561 11.923326,-6.6049875 8.121171,-6.0922041 -0.5457,0.075474 -1.091157,0.1514327 -1.643541,0.1537179 -1.015683,0.048149 -2.03444,0.1098063 -3.032937,0.3141342 -1.264936,0.2308775 -2.540736,0.4447074 -3.755986,0.8772983 -0.644914,0.2385912 -1.294624,0.4635597 -1.933167,0.7151537 -3.752662,1.745658 -7.365897,3.800774 -10.795902,6.120889 -3.18218,2.083217 -8.525816,5.258519 6.282698,-3.506049 -3.559011,2.153352 -7.334433,3.947213 -10.809429,6.244271 -0.989356,0.637348 -1.975647,1.285612 -2.90932,2.002457 0,0 9.042889,-3.646663 9.042889,-3.646663 z" />
    <path
       style="fill:#000000;stroke-width:0.264583"
       id="path3019"
       d="m 34.390012,19.586978 c 0.281289,-0.634742 2.214055,-2.731311 1.658924,-3.420236 -0.212796,-0.264085 -0.534257,-0.417928 -0.801388,-0.626891 -1.44617,0.885894 -9.826749,3.535827 -9.409423,7.929335 0.159785,0.180936 0.260252,0.441501 0.479355,0.542807 0.193402,0.08942 0.452664,0.07803 0.638704,-0.02585 2.813576,-1.571022 5.561131,-3.25903 8.296158,-4.963124 0.611666,-0.381107 1.123979,-1.019363 1.533514,-1.605269 -2.456854,-3.60552 -0.09285,-0.842178 -8.764989,3.678542 -2.512439,1.309714 4.86736,-2.903477 7.345111,-4.277683 0.06921,-0.03838 -0.05852,0.153245 -0.05054,0.231982 0.03593,0.354241 0.243213,0.431654 0.04983,0.341973 0.06637,-0.268615 0.04279,-0.52873 0.05702,-0.794496 0.01672,-0.312197 0.124208,-0.356231 -0.190254,-0.514874 0.157831,0.152447 0.29066,0.37335 0.558821,0.317621 0.359651,-0.07474 1.959665,-1.26551 2.298821,-1.494991 1.596335,-1.128076 3.141978,-2.324201 4.774515,-3.400552 2.789526,-1.6724552 3.16625,-1.8945404 -6.644693,3.846549 -0.140798,0.08239 0.288174,-0.153329 0.436145,-0.222007 0.374795,-0.173952 0.767127,-0.270675 1.164137,-0.378642 1.19406,-0.307599 2.407537,-0.513534 3.624503,-0.702732 1.116158,-0.104272 2.211854,-0.34284 3.318383,-0.506111 0.959972,-0.07762 1.907649,-0.249866 2.863229,-0.362837 0.533204,-0.06365 1.065638,-0.129372 1.602898,-0.141116 0.530482,-0.01149 1.056111,0.07171 1.58233,0.125852 0.671441,0.06432 1.344565,0.10683 2.017996,0.1434 0.749734,0.07438 1.495785,0.01587 2.244466,-0.0368 0.962445,-0.05576 1.926955,-0.08582 2.891038,-0.07583 1.228844,0.04071 2.453995,0.154389 3.678997,0.25536 1.476745,0.131684 2.960404,0.105856 4.440285,0.181832 1.596334,0.07864 3.18784,0.222929 4.773406,0.421726 1.114396,0.11717 2.205985,0.366222 3.301868,0.589267 1.038476,0.225459 2.086446,0.375694 3.147009,0.433666 1.270786,0.05082 2.542678,0.04497 3.814149,0.05127 1.751576,-0.04116 3.502025,0.0088 5.252895,0.04955 1.780219,0.053 3.560381,0.111304 5.34144,0.12361 1.240943,-0.0075 2.480072,-0.07532 3.719996,-0.117798 1.09682,-0.03907 2.187091,-0.156986 3.283956,-0.194592 1.365746,-0.07216 2.732726,-0.09374 4.099896,-0.122756 1.21946,-0.0425 2.43978,-0.03397 3.65973,-0.05163 1.61314,-0.06448 3.22499,0.01626 4.83644,0.081 3.92826,0.244996 3.12296,-0.107935 7.77655,-2.742381 0,0 0.21749,-0.153944 0.21749,-0.153944 v 0 c 1.02698,-0.978572 2.22726,-1.802789 3.08095,-2.9357143 0.14836,-0.1968908 -0.46473,-0.1744734 -0.70821,-0.2131507 -0.60438,-0.096007 -1.22903,0.00266 -1.83347,-0.093538 -1.60198,-0.0865 -3.20581,-0.1494705 -4.81,-0.1699231 -1.23637,-0.00169 -2.47135,0.041109 -3.7074,0.063292 -1.37512,0.037465 -2.74954,0.097726 -4.12473,0.1298808 -1.09152,0.034036 -2.18364,0.019386 -3.26966,0.1555067 -1.28754,0.095237 -2.57522,0.1877523 -3.86318,0.2760494 -1.796549,0.059604 -3.593689,0.022632 -5.390096,-0.032677 -1.731695,-0.065349 -3.464443,-0.08723 -5.196726,-0.1308359 -1.271799,0.00994 -2.543818,0.017224 -3.815593,0.00314 C 84.631008,9.0246045 83.591063,8.9848517 82.568604,8.7744026 81.432806,8.5683914 80.30784,8.297633 79.158959,8.1716064 77.528464,7.9869151 75.893059,7.8663386 74.255193,7.7674665 72.791518,7.6727917 71.328898,7.6180187 69.862736,7.5774827 68.63717,7.4844107 67.411464,7.3882564 66.189407,7.2559954 c -0.992474,-0.046718 -1.985402,-0.022699 -2.977626,0.02432 -0.742442,0.040361 -1.481032,0.1337554 -2.224231,0.1372447 -0.660503,-0.0041 -1.321075,-0.021622 -1.978371,-0.092193 -0.543182,-0.04678 -1.084273,-0.1057812 -1.62437,-0.1801937 -0.594267,-0.041567 -1.189884,-0.046928 -1.778561,0.062893 -1.017683,0.1655549 -2.039588,0.3036282 -3.054808,0.4844077 -1.122904,0.1928137 -2.257004,0.3221707 -3.37625,0.5419582 -1.267751,0.2238269 -2.525585,0.5001876 -3.789111,0.7464549 -4.09557,0.8412977 -7.484234,3.7495468 -10.99276,5.8482388 -1.564031,1.098773 -3.06116,2.291112 -4.653314,3.350709 -0.419108,0.284105 -2.073082,1.257694 -2.297425,1.671805 -0.172847,0.319055 0.05238,0.570749 0.183563,0.834174 0.120309,0.279716 0.474271,-0.147068 0.479335,0.441066 -0.01527,0.129204 -0.06649,0.259167 -0.0458,0.387614 0.03541,0.219785 0.112254,0.434033 0.210388,0.633855 0.04728,0.09627 0.122886,0.287912 0.217406,0.237217 2.638674,-1.415232 6.034815,-2.073365 7.763875,-4.517915 1.698678,-2.401592 -4.940745,3.262524 -7.66349,4.375992 -0.354838,0.145111 -0.310898,-0.700859 -0.466349,-1.05129 -0.364667,0.551852 -2.019477,1.587808 -1.193064,1.149833 17.468132,-9.257604 7.528292,-5.384501 6.378059,-3.277421 -0.07678,0.140659 -0.0606,0.314723 -0.0909,0.472085 -0.215281,-0.20671 0.6283,-1.075946 0.645713,-1.094954 2.262994,-2.470244 7.565072,-4.757653 -5.877227,2.829387 -0.06394,-0.294215 -0.10328,-0.594878 -0.191831,-0.882646 -0.0075,-0.02429 -0.0574,0.0021 -0.07296,0.02215 -0.160501,0.207123 -0.300458,0.429432 -0.445881,0.647406 -1.549902,2.323148 0.43203,-0.644498 -0.982601,1.617718 -0.153158,0.244924 -0.329548,0.47453 -0.494322,0.711795 0,0 8.593524,-3.800723 8.593524,-3.800723 z" />
    <path
       style="fill:#000000;stroke-width:0.264583"
       id="path3021"
       d="m 72.028343,15.868511 c 1.86391,-0.135835 3.744531,-0.03129 5.606902,0.102213 1.727747,0.153102 3.421046,0.543461 5.11884,0.883472 0.925931,0.235909 1.87088,0.313794 2.82234,0.337765 1.068379,0.02442 2.133851,-0.09098 3.198474,-0.165641 1.217226,-0.102756 2.437598,-0.139643 3.657867,-0.182816 1.814041,0.0018 3.624577,-0.102911 5.437208,-0.156476 1.737165,-0.03978 3.476066,-0.05091 5.213116,-5.29e-4 1.53772,0.04342 3.07085,0.176371 4.60774,0.236267 2.456,0.02434 4.90812,0.09779 7.35585,0.305399 1.91205,0.226303 3.8165,0.468673 5.74019,0.566658 1.82832,0.05798 3.65756,-6.09e-4 5.4863,-0.01195 2.02528,-0.03226 4.05072,-0.03849 6.07598,-0.07234 2.27309,-0.04232 4.54313,0.08995 6.81205,0.204461 2.23859,0.07458 4.476,0.151959 6.71111,0.300454 1.35203,0.09889 2.70159,0.209707 4.0573,0.236969 1.5309,0.03754 3.05542,0.190565 4.58146,0.306898 1.80435,0.165018 3.60805,0.333545 5.40916,0.531346 2.20317,0.215759 4.39793,0.504673 6.58827,0.823372 1.35997,0.305245 2.83726,0.257213 4.1553,0.743816 0.29501,0.400033 -0.39241,0.523428 0.62935,0.493188 0.38751,0.0216 0.77177,0.108473 1.14265,0.220449 0.66014,0.09279 1.3234,0.213626 1.98185,0.349974 1.27947,0.270248 2.52501,0.675737 3.74187,1.150436 1.00794,0.406367 2.00837,0.79487 2.909,1.408684 0.84158,0.609966 1.55691,1.365752 2.271,2.115067 0.57307,0.605571 1.17493,1.182863 1.76215,1.774479 0.53692,0.531836 1.00282,1.12676 1.45794,1.728224 0.41123,0.51821 0.75205,1.081823 1.06848,1.661001 0.36066,0.65505 0.67095,1.331047 0.91155,2.038694 0.29633,0.920702 0.53726,1.8552 0.72419,2.803898 0.32828,1.488196 0.31463,2.987863 0.20632,4.497043 -0.005,0.306346 -0.11778,0.63019 -0.0156,0.919036 0.83223,2.352267 2.34934,1.051732 4.91623,0.901015 0,0 0.23792,-0.119986 0.23792,-0.119986 v 0 c 2.48065,-2.308847 5.0109,-3.586025 5.39107,-6.972054 0.1123,-1.616311 0.0881,-3.238902 -0.21302,-4.836538 -0.1845,-1.018501 -0.38985,-2.036522 -0.71639,-3.020603 -0.2801,-0.754263 -0.62211,-1.479841 -0.99811,-2.191119 -0.33406,-0.646466 -0.6874,-1.27937 -1.16706,-1.832275 -0.49018,-0.636005 -0.97874,-1.276637 -1.52929,-1.862189 -0.58423,-0.596577 -1.21667,-1.142702 -1.80108,-1.7392 -0.7781,-0.788802 -1.53965,-1.600388 -2.42978,-2.266736 -0.92913,-0.699619 -1.84154,-1.393075 -2.9682,-1.74626 -1.24567,-0.45494 -2.50325,-0.873207 -3.76305,-1.286688 -0.55237,-0.179809 -1.11428,-0.36252 -1.65212,-0.561269 -0.43631,-0.110431 -0.87369,-0.216902 -1.30798,-0.335554 -0.50146,-0.133819 -0.90545,0.179693 -1.44582,0.161987 -1.52175,-0.07598 -3.02777,-0.33486 -4.53854,-0.518556 -2.1978,-0.295322 -4.39629,-0.584124 -6.59777,-0.851054 -1.79297,-0.211438 -3.58873,-0.398853 -5.38508,-0.578761 -1.51637,-0.161502 -3.03801,-0.267403 -4.55792,-0.389967 -1.38982,-0.09078 -2.78381,-0.06383 -4.17459,-0.141206 -2.24777,-0.08023 -4.49458,-0.177703 -6.74142,-0.280752 -2.30837,-0.110346 -4.61697,-0.194651 -6.92857,-0.188283 -2.00725,-0.02778 -4.01465,-0.02562 -6.02183,0.01033 -1.83179,0.05589 -3.66404,0.112441 -5.49698,0.0906 -1.98273,-0.0351 -3.95743,-0.194762 -5.9324,-0.368059 -2.40926,-0.184204 -4.81929,-0.367356 -7.2345,-0.454361 -1.59832,-0.04394 -3.19758,-0.05188 -4.79549,-0.114667 -1.81897,-0.02973 -3.63601,0.0015 -5.45283,0.100668 -1.82239,0.07458 -3.64561,0.140459 -5.46838,0.197409 -1.221544,0.0078 -2.442913,0.06214 -3.662703,0.125362 -1.054005,0.07194 -2.106221,0.168921 -3.161549,0.221621 -0.982461,0.03234 -1.96374,0.01669 -2.943169,-0.07499 -1.879333,-0.159335 -3.752914,-0.38284 -5.62814,-0.583443 -1.930474,-0.196271 -3.866494,-0.411031 -5.804035,-0.167145 0,0 -7.453643,5.523182 -7.453643,5.523182 z" />
    <path
       style="fill:#000000;stroke-width:0.264583"
       id="path3023"
       d="m 201.36903,101.55555 c -0.71947,-1.640733 -1.04924,-3.436288 -1.42942,-5.183017 -0.31595,-1.717434 -0.40698,-3.467261 -0.52989,-5.20669 -0.11882,-1.274239 -0.10947,-2.556423 -0.21781,-3.830659 -0.10724,-1.312717 -0.12914,-2.628939 -0.21382,-3.943069 -0.0938,-1.433449 -0.15631,-2.868819 -0.1994,-4.304636 -0.0618,-1.724356 -0.0973,-3.449503 -0.15281,-5.174094 -0.004,-2.053225 -0.0386,-4.107077 0.0468,-6.159015 0.0324,-1.795434 0.0289,-3.590978 0.0398,-5.386719 -0.0819,-1.711338 -0.13611,-3.424123 -0.22117,-5.135268 -0.13499,-1.747438 -0.18801,-3.498906 -0.22379,-5.250654 -0.0585,-1.936991 0.0117,-3.867909 0.21035,-5.794785 0.15622,-1.713156 0.23024,-3.43123 0.40861,-5.142434 0.16171,-1.430496 0.33062,-2.860222 0.4992,-4.289951 0.13748,-0.97087 0.21409,-1.947836 0.3109,-2.922924 0.0922,-0.928071 0.30909,-1.836565 0.48641,-2.750523 0.0548,-0.419195 0.14572,-0.863598 -0.0411,-1.262584 -11.30261,5.980986 -9.8207,1.90055 -9.58724,8.17853 0.0691,1.849879 0.20089,3.698301 0.37145,5.541597 0.17848,1.439495 0.31182,2.881821 0.38408,4.33038 0.0315,1.408081 0.13716,2.812148 0.23494,4.216681 0.10558,1.414076 0.17031,2.830504 0.24284,4.246483 0.10385,1.534006 0.14034,3.07114 0.23858,4.605647 0.1087,1.398182 0.15417,2.797712 0.14758,4.199681 -0.0603,1.685038 -0.26042,3.360404 -0.39068,5.040635 -0.14543,1.785689 -0.0652,3.573941 -0.0419,5.361461 0.0293,1.778563 0.0853,3.555341 0.0742,5.334341 0.007,1.659099 0.008,3.318171 0.007,4.9774 0.0489,1.514044 0.0425,3.029386 0.086,4.543398 0.0474,1.300846 0.0384,2.602659 0.0396,3.904102 0.0144,1.282002 0.002,2.563987 0.003,3.846015 0.0223,1.275707 -0.10126,2.547021 -0.20267,3.817041 -0.093,1.08507 -0.16796,2.17155 -0.25694,3.25692 -0.10394,1.20922 -0.21381,2.41764 -0.31195,3.62741 -0.10387,1.59195 -0.15575,3.18225 0.007,4.77058 0.81133,2.50039 -0.0252,1.11502 4.82458,0.5432 0,0 0.23617,-0.1234 0.23617,-0.1234 v 0 c 4.45061,-4.22335 3.82817,-2.04448 4.33943,-5.23293 0.0934,-1.59138 0.0963,-3.18831 0.25686,-4.77561 0.1154,-1.224 0.27667,-2.44342 0.375,-3.66925 0.0823,-1.080676 0.13976,-2.162907 0.22662,-3.243264 0.098,-1.293043 0.12916,-2.587789 0.16215,-3.883927 0.0156,-1.287121 -0.006,-2.574423 0.005,-3.861613 -0.009,-1.309049 -0.0342,-2.617864 -0.0602,-3.926662 -0.05,-1.498452 -0.17191,-2.994713 -0.13073,-4.495795 -0.0366,-1.652937 -0.0212,-3.305082 -0.0398,-4.957977 -0.0418,-1.777597 -0.0327,-3.555743 -0.10238,-5.3326 -0.0442,-1.756558 0.0175,-3.515902 0.0933,-5.270931 0.13492,-1.712206 0.41606,-3.415533 0.39803,-5.136497 -0.003,-1.430758 -7.9e-4,-2.864466 -0.15831,-4.288594 -0.13673,-1.525743 -0.20327,-3.055387 -0.21621,-4.587319 -0.0746,-1.417984 -0.17479,-2.834772 -0.27765,-4.250941 -0.10009,-1.403795 -0.1244,-2.810539 -0.22716,-4.214114 -0.11664,-1.45555 -0.2208,-2.912938 -0.43577,-4.358278 -0.23293,-1.802667 -0.38021,-3.613052 -0.38097,-5.432282 -0.0637,-6.175899 1.39685,-3.905837 -9.87152,1.599195 -0.0294,0.01437 0.004,0.06537 0.006,0.09805 -0.17996,0.409834 -0.24467,0.846979 -0.30448,1.287663 -0.13344,0.933927 -0.30859,1.862596 -0.39958,2.80211 -0.0853,0.966454 -0.19874,1.930275 -0.27067,2.89797 -0.10918,1.420001 -0.26131,2.835744 -0.41034,4.252026 -0.13834,1.70198 -0.20359,3.407805 -0.28752,5.113134 -0.0608,1.942881 -0.14786,3.886134 -0.0692,5.830306 0.0306,1.773512 0.0856,3.546353 0.18281,5.317561 0.10508,1.694865 0.21619,3.390201 0.20248,5.089522 0.0515,1.770859 0.0682,3.54108 0.058,5.312736 0.0534,2.041485 0.0124,4.08433 0.0739,6.125905 -0.003,1.749108 0.0396,3.497525 0.0624,5.246418 0.0613,1.444866 0.14887,2.888506 0.1948,4.334057 0.0686,1.314583 0.19969,2.624664 0.24691,3.940546 0.0703,1.263467 0.26296,2.517476 0.37274,3.778157 0.20317,1.748528 0.38872,3.505597 0.85928,5.207708 0.48063,1.77986 1.04336,3.52549 1.68806,5.25265 0,0 8.96049,-5.04821 8.96049,-5.04821 z" />
    <path
       style="fill:#000000;stroke-width:0.264583"
       id="path3025"
       d="m 42.193887,181.18321 c -2.116318,0.4842 -4.158835,2.19585 -5.850768,3.30174 0,0 -0.21068,0.16314 -0.21068,0.16314 v 0 c -0.616688,0.60053 -1.289677,1.14821 -1.850067,1.80159 -0.09761,0.11381 -0.195861,0.35413 -0.07542,0.44342 0.148669,0.11023 0.364855,-0.0624 0.547282,-0.0936 0,0 7.439655,-5.61632 7.439655,-5.61632 z" />
    <path
       style="fill:#000000;stroke-width:0.264583"
       id="path3029"
       d="m 28.90013,185.83093 c 1.093986,0.7417 2.255174,1.33138 3.503562,1.76013 0.941401,0.33745 1.931326,0.47611 2.920982,0.5773 0.806579,0.0722 1.614389,0.12388 2.419276,0.21362 0.807503,0.0988 1.623758,0.0958 2.435725,0.0762 1.413158,-0.0977 2.823101,-0.15589 4.239942,-0.13813 1.33223,0.0444 2.657369,0.19551 3.98802,0.26934 1.820574,0.0995 3.640304,0.22122 5.458619,0.35809 1.656424,0.15247 3.31462,0.29083 4.976632,0.36393 1.506871,0.0984 3.013197,0.0135 4.519216,-0.045 2.508755,-0.0723 5.001617,-0.32943 7.491288,-0.63018 2.025515,-0.29326 4.067722,-0.38718 6.108641,-0.49793 1.915182,-0.15557 3.834712,-0.24143 5.753674,-0.33315 2.1213,-0.14713 4.248132,-0.11602 6.372138,-0.0679 1.394463,0.0516 2.787661,0.13004 4.181708,0.19164 1.006099,0.0496 2.013532,0.0438 3.020279,0.0704 1.397119,0.0306 2.793807,-0.0703 4.188478,-0.14238 3.43322,-0.105 2.38324,-0.31183 6.69263,-3.34206 0,0 0.22083,-0.14911 0.22083,-0.14911 v 0 c 5.16619,-4.05993 5.44624,-3.38617 2.01793,-3.08716 -1.34903,0.10601 -2.70111,0.1819 -4.05498,0.16298 -1.01796,-0.0149 -2.03576,-0.0382 -3.05392,-0.0352 -1.45665,-0.0188 -2.91262,-0.081 -4.369686,-0.0713 -2.116825,-0.0237 -4.233801,-0.0817 -6.350764,-0.0326 -1.937623,0.0849 -3.870844,0.23141 -5.806014,0.35824 -2.079284,0.11858 -4.169693,0.17655 -6.231173,0.48951 -2.488486,0.34342 -4.98176,0.72318 -7.497554,0.77733 -1.490612,0.008 -2.979586,0.0351 -4.46982,0.0714 -1.725128,-0.009 -3.450598,-0.0345 -5.172334,-0.15426 -1.80145,-0.14207 -3.601178,-0.2994 -5.40489,-0.4109 -1.401979,-0.10732 -2.806888,-0.11294 -4.211698,-0.15911 -1.397971,-0.0564 -2.801819,-0.13301 -4.197022,0.0165 -0.785577,0.0508 -1.571339,0.0736 -2.358208,0.0313 -0.809852,-0.045 -1.61327,-0.15989 -2.423429,-0.20458 -0.991831,-0.0735 -1.993509,-0.0743 -2.969874,-0.28695 -1.210302,-0.30854 -2.400843,-0.72159 -3.434916,-1.44147 0,0 -8.503288,5.44164 -8.503288,5.44164 z" />
    <path
       style="fill:#000000;stroke-width:0.264583"
       id="path3031"
       d="m 63.881012,189.06471 c 1.894012,0.32016 3.801198,0.54606 5.7057,0.79151 1.351304,0.21101 2.709294,0.26886 4.074031,0.25402 1.055131,0.0109 2.09869,-0.0591 3.141376,-0.22265 1.13266,-0.17576 2.274787,-0.27664 3.412234,-0.41456 1.5338,-0.20259 3.078596,-0.24731 4.623207,-0.212 1.810388,0.0322 3.618156,0.11794 5.424091,0.24751 1.514549,0.18332 3.036702,0.20908 4.559964,0.22656 0.872714,0.0148 1.745413,0.019 2.618044,0.0386 0.768606,0.005 1.537128,0.0245 2.305362,0.0482 1.243399,0.0394 2.480409,0.17548 3.720509,0.26674 1.2309,0.0856 2.45823,0.14814 3.69031,0.0674 1.36011,-0.12735 2.71108,-0.33298 4.06926,-0.47887 1.5608,-0.11792 3.11838,-0.27405 4.68042,-0.37501 1.42399,-0.0933 2.85014,-0.13664 4.27684,-0.15523 1.34475,-0.025 2.6898,-0.0218 4.0346,-0.0405 1.39443,-0.0297 2.78889,-0.0576 4.18335,-0.086 1.25313,-0.0276 2.50658,-0.009 3.75964,-0.0389 1.59347,-0.037 3.17946,-0.1857 4.76092,-0.37626 1.42429,-0.17155 2.84543,-0.36839 4.26972,-0.53977 1.28397,-0.15535 2.57243,-0.26664 3.86047,-0.38128 1.06864,-0.0846 2.13791,-0.16131 3.20682,-0.24262 0.79535,-0.0535 1.59114,-0.10985 2.38806,-0.13327 1.00725,0.0326 2.01424,0.0671 3.02202,0.0817 1.82676,-0.0555 3.65427,-0.0477 5.48084,-0.10859 1.97947,-0.078 3.95374,-0.24407 5.92797,-0.40218 1.8597,-0.16418 3.7226,-0.27115 5.58914,-0.30299 1.39711,-0.0219 2.79443,-0.0277 4.1917,-0.0271 1.1068,0.0233 2.20825,-0.0627 3.30817,-0.1723 1.06904,-0.10303 2.13581,-0.23192 3.19537,-0.4078 1.01646,-0.20006 2.01947,-0.47095 3.01609,-0.75312 0.79892,-0.21873 1.54482,-0.57261 2.29,-0.92564 0.65366,-0.31346 1.31102,-0.62038 1.95473,-0.95397 0.53499,-0.25806 1.05344,-0.54675 1.57431,-0.83167 -0.24833,-6.91296 8.22075,-3.48785 11.21862,-6.63394 0.48914,-0.4404 0.91121,-0.82951 1.02661,-1.49379 -1.36562,-1.35769 -0.12339,-0.25579 -4.73257,1.55512 0,0 -0.24139,0.11283 -0.24139,0.11283 v 0 c -4.95539,2.57332 -3.39321,1.31943 -5.26483,2.89747 -0.42736,0.41461 -0.89707,0.79157 -1.37314,1.14875 -3.58292,1.94154 -7.93762,5.48178 8.24372,-4.75992 -0.51393,0.29829 -1.02826,0.59849 -1.55473,0.87338 -0.66446,0.33774 -1.31649,0.70047 -1.99065,1.01949 -0.71182,0.34872 -1.4205,0.70565 -2.15368,1.00816 -0.94742,0.35677 -1.93018,0.59217 -2.908,0.84972 -1.03958,0.23422 -2.09333,0.39551 -3.15289,0.509 -1.09086,0.1087 -2.18046,0.24983 -3.27755,0.27458 -1.42464,0.0313 -2.84976,0.0366 -4.27441,0.0678 -1.90366,0.0618 -3.80989,0.11153 -5.70574,0.30734 -1.95041,0.16976 -3.90425,0.28448 -5.85783,0.41111 -1.78184,0.0826 -3.56495,0.12937 -5.34872,0.0822 -0.98733,-0.006 -1.97484,-0.0275 -2.95959,-0.10457 -0.83993,-0.0681 -1.67099,-0.0202 -2.50821,0.0747 -1.06949,0.0853 -2.1404,0.15046 -3.21017,0.23201 -1.30502,0.11155 -2.60511,0.27405 -3.91036,0.38406 -1.46566,0.15138 -2.92071,0.37788 -4.37774,0.59597 -1.55381,0.21483 -3.11352,0.3954 -4.68235,0.45165 -1.25606,0.0527 -2.51251,0.0667 -3.76964,0.0686 -1.40089,0.0181 -2.80034,0.0806 -4.20106,0.10714 -1.34085,0.01 -2.68175,0.005 -4.02245,0.0204 -1.4546,0.0354 -2.90992,0.0689 -4.36272,0.15048 -1.58703,0.11276 -3.17277,0.24187 -4.75692,0.38994 -1.35064,0.12059 -2.69898,0.25679 -4.03895,0.46949 -1.23255,0.13946 -2.4701,0.21984 -3.71105,0.14729 -1.23017,-0.0524 -2.45276,-0.19531 -3.67919,-0.30025 -0.75767,-0.0615 -1.51554,-0.13269 -2.27635,-0.13803 -0.92718,0.0115 -1.85502,0.007 -2.78127,0.0551 -1.55561,0.0595 -3.11299,0.0602 -4.66711,-0.0434 -1.821868,-0.10937 -3.645141,-0.21552 -5.469001,-0.27741 -1.57249,-0.022 -3.145015,-0.0121 -4.712862,0.12571 -1.135702,0.0808 -2.268913,0.1895 -3.397358,0.34288 -1.115782,0.14501 -2.215142,0.41424 -3.339293,0.49436 -1.436714,0.11794 -2.876939,0.1466 -4.317667,0.0835 -1.971571,-0.0758 -3.950189,-0.21023 -5.89712,-0.53812 0,0 -7.919657,5.53941 -7.919657,5.53941 z" />
    <path
       style="fill:#000000;stroke-width:0.264583"
       id="path3035"
       d="m 190.25631,111.17203 c 0.24501,1.84413 0.38431,3.69925 0.44132,5.55804 0.0675,2.06148 0.0696,4.12451 0.0274,6.18647 -0.0399,2.00121 -0.33967,3.982 -0.46804,5.97713 -0.1206,1.98453 -0.22504,3.96826 -0.21345,5.9567 0.076,2.1348 0.16304,4.26827 0.18261,6.40456 -0.0131,2.15019 -0.0522,4.30015 -0.0736,6.4503 -0.008,1.97871 -0.0413,3.95719 -0.0404,5.93592 0.0221,2.05706 0.004,4.11436 -0.10644,6.16868 -0.1464,1.94626 -0.29907,3.89189 -0.48423,5.83489 -0.1163,1.39812 -0.25287,2.79255 -0.47324,4.17839 -0.26403,1.45385 -0.41846,2.92408 -0.63959,4.38426 -0.3221,1.93274 -0.94065,3.79548 -1.82779,5.53918 -0.52834,0.98666 -1.20574,1.81322 -2.20474,2.32768 -3.69726,1.64866 -0.34523,0.17088 8.92858,-5.21063 0.14097,-0.0818 -0.28817,0.15245 -0.43348,0.22627 -0.43304,0.21999 -0.87265,0.42287 -1.31677,0.61919 -0.83677,0.35312 -1.71939,0.58031 -2.5945,0.81626 -3.85395,1.31753 -4.43938,1.9148 -10.26147,5.86831 -0.21793,0.14798 0.64301,1.07787 0.73109,1.14627 0.11642,0.0904 0.26881,0.12098 0.40322,0.18147 1.34409,0.35893 2.69161,0.2756 4.0312,-0.0335 4.54854,-1.66885 8.60228,-4.47111 12.66666,-7.09641 3.17984,-1.92741 7.39922,-4.30355 -7.95288,4.58747 -0.12237,0.0709 0.24404,-0.143 0.36771,-0.21159 0.31731,-0.17602 0.38929,-0.20638 0.71213,-0.36477 3.99523,-1.79394 8.3536,-3.43468 11.30045,-6.71998 0.65067,-0.76081 1.28356,-1.52952 1.85143,-2.35417 0.59517,-0.86679 0.98039,-1.84003 1.3248,-2.82591 0.46508,-1.3871 0.72965,-2.8317 1.003,-4.26601 0.24813,-1.49091 0.42439,-2.99297 0.6296,-4.49035 0.19999,-1.23078 0.1153,-2.47291 -0.0169,-3.70442 -0.13532,-1.21863 -0.21255,-2.4419 -0.28887,-3.66522 -0.0501,-1.02253 -0.16243,-2.0395 -0.24967,-3.05893 -0.09,-1.04242 -0.0851,-2.08986 -0.0794,-3.13524 0.0776,-1.31513 0.0411,-2.63226 -0.0144,-3.94736 -0.0767,-1.36588 -0.12308,-2.7325 -0.16215,-4.09987 -0.0282,-1.39824 -0.0707,-2.79612 -0.0947,-4.19446 0.018,-1.68655 -0.17451,-3.36501 -0.37635,-5.0366 -0.15539,-1.55627 -0.39348,-3.10187 -0.55153,-4.65792 -0.10334,-1.30242 -0.16469,-2.61163 -0.14309,-3.91826 0.0947,-1.21431 0.0873,-2.42749 0.0459,-3.6435 -0.0803,-1.38302 -0.0859,-2.76854 -0.15604,-4.15187 -0.0683,-1.60518 -0.20423,-3.19787 -0.48602,-4.77979 -0.31288,-1.7197 -0.58379,-3.44695 -0.74403,-5.18776 -0.0689,-1.9036 -0.23445,-3.79605 -0.69373,-5.646475 -0.35353,-1.574792 -0.78463,-3.130952 -1.52447,-4.571343 -2.8994,-2.802131 -0.81868,-1.095526 -9.03611,5.12904 -0.25799,0.195424 -0.0702,0.643518 -0.11016,0.964688 -0.18102,1.453 -0.40554,2.90037 -0.62006,4.34865 -0.47063,2.94692 -0.81742,5.90091 -0.86445,8.88542 0.0813,1.12661 0.0184,2.31559 0.29066,3.42316 0.10035,0.40818 0.004,1.12016 0.41886,1.18941 1.27885,0.21359 2.57376,-0.31643 3.86064,-0.47465 0,0 0.23705,-0.12168 0.23705,-0.12168 v 0 c 1.25657,-1.16167 2.71171,-2.13997 3.7697,-3.48499 0.70145,-0.89175 -0.21321,-3.7031 -0.11645,-4.84174 -0.0462,-2.89884 0.20878,-5.79131 0.72251,-8.64574 0.2613,-1.474316 0.48377,-2.975154 0.90059,-4.416628 0.0916,-0.316601 0.62689,-1.070319 0.32731,-0.932969 -8.47385,3.884983 -7.50954,7.609187 -8.27234,3.969684 0.7719,0.701463 0.83665,3.326433 1.01293,4.310853 0.0254,1.94502 0.0639,3.89105 0.26872,5.82718 0.15767,1.77288 0.40009,3.53023 0.7081,5.2832 0.20599,1.56476 0.37409,3.1329 0.357,4.71437 0.0523,1.38201 0.10557,2.76401 0.10469,4.14731 0.004,1.20982 -0.0567,2.41729 -0.0679,3.62678 0.0101,1.34141 0.10473,2.67862 0.229,4.01419 0.18669,1.54241 0.43074,3.07743 0.60604,4.62143 0.1466,1.64913 0.3195,3.29802 0.30788,4.95625 0.001,1.41137 0.008,2.82266 0.059,4.23331 0.0316,1.36552 0.12877,2.72753 0.18873,4.09195 0.0246,1.30819 -0.009,2.61348 -0.0392,3.92127 -0.0231,1.08734 0.0101,2.17132 0.0857,3.25666 0.092,1.00131 0.25707,1.99481 0.31961,2.99911 0.0942,1.22824 0.17599,2.45755 0.2953,3.6837 0.0779,1.159 0.11231,2.32029 -0.0331,3.47656 -0.16069,1.47988 -0.38684,2.95055 -0.64108,4.41717 -0.26697,1.39935 -0.59615,2.79155 -1.13985,4.11284 -0.39355,0.90888 -0.84609,1.79468 -1.45687,2.57963 -0.59099,0.76312 -1.21168,1.51529 -1.9276,2.16471 -0.2324,0.17958 -0.98144,0.64444 -0.72682,0.49805 15.84606,-9.10983 11.29195,-6.21759 7.91986,-4.62202 -4.15883,1.69233 -7.91509,4.24234 -11.6949,6.65455 -3.08107,1.9782 -7.37079,4.25635 7.68916,-4.37696 1.45057,-0.83155 -3.11027,1.9552 -1.7843,0.98735 -1.0639,0.39404 -2.21424,0.72575 -3.33966,0.38188 -0.67726,-0.11589 0.37859,0.53321 0.11454,0.70513 -19.9167,12.96759 -12.46164,6.93861 -9.20886,5.34429 0.84994,-0.36472 1.75703,-0.55733 2.64577,-0.80378 4.46797,-1.5278 8.52498,-4.33953 12.39975,-6.87527 0.80507,-0.79302 1.38512,-1.74946 1.80378,-2.7992 0.72529,-1.87783 1.28677,-3.82026 1.67758,-5.7953 0.24138,-1.48104 0.47044,-2.96426 0.7127,-4.44492 0.16241,-1.4034 0.30276,-2.81119 0.38281,-4.22168 0.07,-1.92212 0.19033,-3.84028 0.29861,-5.76048 0.10145,-2.08964 0.21172,-4.18012 0.16759,-6.27333 -0.0313,-1.96013 -0.0441,-3.92046 -0.0371,-5.88084 -0.003,-2.13175 -0.0126,-4.26338 -0.0766,-6.3943 -0.0332,-2.13725 -0.0797,-4.27343 -0.1537,-6.40955 -0.006,-1.95386 0.0345,-3.9093 0.19601,-5.85733 0.14998,-1.98179 0.1816,-3.96955 0.29149,-5.95377 0.0218,-2.05382 -0.17327,-4.09768 -0.25013,-6.14917 -0.1247,-1.84553 -0.37849,-3.70587 -0.23066,-5.55374 0,0 -9.51694,4.79514 -9.51694,4.79514 z" />
    <path
       style="fill:#000000;stroke-width:0.264583"
       id="path3037"
       d="m 96.885568,187.49969 c 2.438477,0.4564 4.829562,1.1256 7.228912,1.74916 2.61377,0.82735 5.33392,1.05253 8.05264,1.22663 2.19319,0.10033 4.38672,0.23609 6.58273,0.17549 1.64363,-0.0861 3.28494,-0.21915 4.9229,-0.37962 2.25526,-0.30353 4.52608,-0.43291 6.79668,-0.55211 2.93078,-0.19113 5.86808,-0.196 8.80357,-0.21568 2.69819,-0.0442 5.396,-0.0426 8.0943,-0.0143 1.94077,0.0425 3.87935,0.13891 5.82074,0.0967 1.31898,-0.0779 2.63977,-0.0452 3.95986,-0.0427 1.36107,0.006 2.72145,0.0182 4.08136,-0.0449 1.366,-0.0866 2.7322,-0.15459 4.1008,-0.17648 1.30244,-0.0275 2.60406,-0.0852 3.90588,-0.13349 1.21812,-0.0312 2.43543,-0.0873 3.65226,-0.15016 1.10999,-0.0524 2.2136,-0.17498 3.30197,-0.39861 0.95467,-0.2238 1.87943,-0.55831 2.8046,-0.87942 4.53533,-1.94027 9.68387,-3.71797 12.80762,-7.60655 0.68539,-1.20771 1.10901,-2.51612 1.51965,-3.83248 0.19923,-1.29782 0.86998,-2.42906 1.28934,-3.65216 0.33806,-1.15254 0.80132,-2.27223 1.24572,-3.38946 0.20965,-0.76651 0.4787,-1.48831 0.80117,-2.21707 0.006,-0.0562 0.0379,-0.11609 0.017,-0.16854 -1.61916,-4.06379 -7.35083,2.48373 -9.85856,4.89343 -1.29141,1.14437 -2.28001,2.57394 -3.36424,3.9051 -1.09754,1.32725 -2.28318,2.56613 -3.63999,3.62745 -1.46273,1.16096 -3.03371,2.15049 -4.65236,3.07498 14.2793,-8.24988 7.14429,-3.91374 3.6592,-2.39336 -1.26648,0.36752 -2.47508,0.99433 -3.74763,1.33032 -2.28282,1.85093 -4.64734,3.6054 -6.84845,5.55277 -0.18199,0.16101 0.48145,-0.0711 0.71753,-0.12861 0.26692,-0.065 0.52703,-0.15546 0.78893,-0.23841 0.7369,-0.2334 1.46857,-0.4735 2.21075,-0.6903 1.81315,-0.45763 3.4844,-1.33537 5.15454,-2.15442 1.57646,-0.83879 3.0934,-1.77885 4.64859,-2.65677 3.11964,-1.22728 5.51566,-2.99566 8.63407,-4.98703 0.10684,-0.0682 -0.21587,-0.18798 -0.34109,-0.16822 -0.86235,0.13605 -1.69585,0.41556 -2.54377,0.62334 0,0 -0.24571,0.10309 -0.24571,0.10309 v 0 c -1.25938,0.65829 -2.52262,1.30923 -3.77812,1.97487 -5.76025,3.05393 9.96789,-5.5337 5.093,-3.02264 -1.26472,0.61504 -2.43914,1.39959 -3.73681,1.95527 -1.7759,0.88667 -3.58446,1.6995 -5.40508,2.48974 -0.85312,0.3556 -1.7053,0.70602 -2.57604,1.01676 -0.41888,0.14949 -0.89448,0.188 -1.25827,0.44387 -2.60588,1.83287 -5.15237,3.74876 -7.72855,5.62314 0.33204,-0.23605 0.62263,-0.21357 1.01965,-0.32011 0.79711,-0.2139 1.56903,-0.52179 2.35419,-0.77306 4.58404,-1.7263 8.54095,-4.85903 12.87565,-7.02312 1.6363,-0.99255 3.22248,-2.07378 4.71916,-3.2676 1.33099,-1.16618 2.54964,-2.44892 3.64594,-3.83972 1.01248,-1.26083 2.02792,-2.51678 3.14718,-3.68573 4.11378,-4.00044 -6.25122,7.13646 -7.57437,2.87619 -0.32157,0.86633 -0.87565,1.60041 -1.24217,2.44266 -0.4534,1.19234 -0.86369,2.41098 -1.54334,3.50014 -0.60381,1.24412 -1.0374,2.56433 -1.53362,3.85383 -0.45345,1.30201 -0.96218,2.62574 -2.06376,3.51954 -2.91633,2.32441 -7.89539,4.64981 7.77855,-4.30467 0.97642,-0.55782 -2.64775,1.65381 -1.78018,0.93637 -0.87907,0.34709 -1.79167,0.59164 -2.67758,0.92109 -1.04428,0.32896 -2.11189,0.53203 -3.20686,0.59843 -1.2179,0.0779 -2.43909,0.0921 -3.65654,0.18216 -1.28234,0.0461 -2.56531,0.0555 -3.8476,0.10189 -1.39431,0.0562 -2.7905,0.0769 -4.18167,0.19327 -1.35614,0.0988 -2.71314,0.16636 -4.07355,0.12841 -1.35554,-0.0142 -2.71097,-0.028 -4.06474,0.0626 -1.99346,0.0996 -3.98875,0.12201 -5.98452,0.0887 -2.72501,-0.0478 -5.44936,-0.0389 -8.17393,0.0391 -2.93372,0.0459 -5.86782,0.0444 -8.79994,0.16893 -2.249,0.0841 -4.49858,0.22016 -6.73955,0.42712 -1.63774,0.19343 -3.28063,0.32089 -4.9243,0.45287 -2.26035,0.17729 -4.52849,0.22944 -6.79436,0.12058 -2.735,-0.13584 -5.46371,-0.38183 -8.14909,-0.94219 -2.36785,-0.49911 -4.73424,-1.03856 -7.01954,-1.8454 0,0 -8.480758,5.81904 -8.480758,5.81904 z" />
    <path
       style="fill:#000000;stroke-width:0.264583"
       id="path3039"
       d="m 102.68262,185.75496 c 1.75703,0.1014 3.5193,-0.004 5.2709,-0.14826 2.11584,-0.22965 4.22997,-0.45839 6.33441,-0.77742 1.60403,-0.27575 3.22294,-0.40323 4.84814,-0.44603 1.96624,-0.005 3.93189,-0.0448 5.89714,-0.1056 3.17224,-0.22358 6.35298,-0.25739 9.53174,-0.26464 2.52886,0.009 5.05767,0.0173 7.58627,-0.0254 2.33483,-0.0394 4.66499,-0.17656 6.9865,-0.42478 2.13596,-0.29071 4.26764,-0.60941 6.40842,-0.86346 1.91232,-0.18242 3.83616,-0.13769 5.75431,-0.11824 1.3427,0.073 2.67665,-0.028 4.01049,-0.16441 1.40482,-0.22443 2.69156,-0.86146 3.95101,-1.4924 4.55111,-2.4361 9.11352,-4.88933 13.30653,-7.90586 1.35523,-0.9151 2.52265,-2.05107 3.6401,-3.23546 1.12851,-1.34605 2.20502,-2.74164 3.24051,-4.16123 1.01239,-1.59394 1.87873,-3.28119 2.80517,-4.92857 0.33365,-0.55004 0.67549,-1.13748 1.1764,-1.55872 0.10884,-0.0915 0.48338,-0.29978 0.36079,-0.2277 -8.44147,4.96342 -10.26715,7.62094 -8.28758,4.7918 0.59844,-0.23938 0.17695,0.90184 0.13464,1.06359 -0.71888,2.00382 -1.63033,3.94428 -2.58117,5.84884 -1.32473,2.61388 -3.28366,4.79885 -5.27327,6.91852 -1.30003,1.36175 -2.73093,2.58364 -4.26241,3.67658 -3.05278,2.1786 -9.99073,5.95912 5.32154,-2.94949 -3.69586,2.04929 -7.29475,3.94894 -10.93598,6.31361 -0.13845,0.0899 0.1513,0.9597 0.79779,1.30792 0.19611,0.10563 0.44535,-0.0111 0.66802,-0.0166 0.26532,-0.0922 0.53715,-0.16744 0.79598,-0.27654 0.58428,-0.24629 1.53419,-0.75525 2.06848,-1.06442 4.58601,-2.65373 8.37933,-4.39499 12.16834,-7.48466 1.02572,-0.91737 1.98412,-1.91401 2.89288,-2.9471 0.12937,-0.14707 0.89807,-1.00275 0.97771,-1.34523 0.041,-0.17648 -0.0473,-0.35927 -0.0709,-0.53891 -0.32209,-0.21262 -0.61513,-0.798 -0.96628,-0.63787 -5.03381,2.29555 -9.55441,5.5322 -14.24034,8.43033 -1.10095,0.63722 -2.17521,1.31612 -3.23074,2.02517 -0.42923,0.28833 -0.95403,0.59194 -0.904,0.71639 0.15389,0.38278 0.46841,0.67926 0.70262,1.01889 3.5879,-1.88778 7.18076,-3.51961 10.23358,-6.11642 0.27616,-0.2349 0.524,-0.50338 0.81187,-0.72376 1.46816,-1.12401 0.92428,-0.26706 1.49244,-1.47955 -0.27678,-0.28547 -0.44899,-0.74387 -0.83035,-0.85641 -0.33095,-0.0976 -2.60808,1.0425 -3.00981,1.25523 -0.83373,0.44151 -0.88793,0.2185 -0.63658,0.63304 0.99678,-0.80581 2.12861,-1.41443 3.21376,-2.08625 0.2312,-0.14314 0.93232,-0.55229 0.68027,-0.45025 -9.45099,3.82633 -7.51985,1.2252 -9.73831,4.35639 -0.29107,1.72964 -0.16757,0.38418 3.90525,-1.08567 0,0 0.24348,-0.10826 0.24348,-0.10826 v 0 c 4.60882,-2.19058 3.05259,-1.09777 5.07036,-2.61465 3.07499,-2.50849 1.38124,-1.02231 -8.40078,3.03421 -0.12834,0.0532 -0.23046,0.18303 -0.27243,0.31548 -0.0289,0.0912 0.0784,0.17854 0.0856,0.27393 0.01,0.1291 -0.009,0.26012 -0.0353,0.38682 -0.0372,0.17682 -0.1036,0.34621 -0.1554,0.51932 -0.0414,0.29538 -0.0605,0.5948 -0.12434,0.88616 -0.0514,0.23444 -0.1962,0.44671 -0.2203,0.68552 -0.0209,0.20674 0.52856,0.87256 0.60302,0.51547 0.0634,-0.30402 -0.0534,-0.61882 -0.0801,-0.92822 0.0848,-0.10249 0.12757,-0.26716 0.25433,-0.30746 0.0699,-0.0222 0.15824,0.14306 0.10485,0.19328 -0.14894,0.14005 -2.35018,1.62711 -2.5036,1.72982 -0.29479,0.19736 -1.20242,0.75156 -0.88985,0.58378 2.47033,-1.32602 4.91087,-2.7068 7.36631,-4.0602 0.15671,0.35667 0.20484,0.78472 0.47015,1.07 0.0894,0.0961 0.22859,-0.12925 0.33956,-0.19933 0.20394,-0.12877 0.39781,-0.27344 0.60491,-0.39705 1.32989,-0.79374 2.72676,-1.47404 4.01642,-2.33605 1.32553,-0.81948 2.64316,-1.65233 3.97063,-2.46855 0.3481,-0.21404 1.4067,-0.83217 1.05025,-0.63234 -8.32537,4.66714 -7.50054,7.58932 -8.20975,3.61922 -0.0173,-0.0518 -0.007,-0.18687 -0.0519,-0.15531 -0.16796,0.11903 -0.26053,0.31894 -0.39677,0.47325 -0.22828,0.25856 -0.46164,0.51263 -0.69658,0.76515 -0.74312,0.79873 -1.06543,1.14358 -1.90941,1.88895 -0.368,0.325 -0.75428,0.62871 -1.13142,0.94307 -3.0145,2.2406 -8.58161,5.18645 5.48311,-2.85421 0.0808,-0.0462 -0.83183,0.50981 -1.85903,1.05635 -0.19683,0.10473 -0.39753,0.20203 -0.59629,0.30305 -0.51067,0.38477 -0.39123,0.13339 -0.10725,0.94759 0.0378,0.10827 0.23189,0.25627 0.13441,0.31666 -15.02719,9.30885 -10.84714,5.88824 -7.29685,4.31631 6.42733,-3.72351 11.7593,-6.06947 16.60408,-11.35831 2.046,-2.2327 4.14435,-4.47775 5.36315,-7.29376 0.91221,-1.97495 1.85984,-3.9544 2.40242,-6.07 0.16859,-1.31531 -0.0332,-1.83373 -1.14036,-2.53167 -4.28283,-1.86606 -8.66073,3.65124 -10.77115,7.11598 -0.94091,1.70966 -1.91807,3.39229 -3.13656,4.92431 -1.11066,1.45417 -2.26665,2.87423 -3.58348,4.14947 -1.15033,1.11905 -2.37697,2.15081 -3.70556,3.05453 -0.57533,0.39734 -0.80658,0.56505 -1.39826,0.94132 -0.23179,0.14741 -0.94022,0.56842 -0.70185,0.43189 15.03645,-8.61247 10.3748,-5.96627 7.15506,-4.12738 -1.20024,0.65139 -2.41408,1.30572 -3.72564,1.70618 -1.33275,0.37521 -2.6967,0.51054 -4.08153,0.4791 -1.95813,0.0113 -3.91841,-0.0445 -5.87406,0.0805 -2.17306,0.15258 -4.30839,0.574 -6.46461,0.87034 -2.32805,0.31765 -4.66797,0.52696 -7.0183,0.57727 -2.57001,0.0639 -5.1408,0.0761 -7.71098,0.13227 -3.14014,0.0439 -6.27991,0.092 -9.41949,0.16831 -1.92215,0.0153 -3.84438,0.0347 -5.76657,0.0152 -1.6801,0.01 -3.36882,0.0611 -5.02321,0.38161 -2.14867,0.3932 -4.29948,0.79328 -6.4787,0.97717 -1.7508,0.1853 -3.5108,0.38143 -5.27399,0.31278 0,0 -8.1167,5.85217 -8.1167,5.85217 z"
       clip-path="url(#clipPath3113)" />
    <path
       style="fill:#000000;stroke-width:0.264583"
       id="path3170"
       d="m 59.372933,134.76012 c -6.955343,3.73635 -9.831332,4.12827 -12.522978,10.11371 -0.801549,2.16812 -1.159592,4.44199 -0.962607,6.74129 0.392198,1.80863 1.174996,3.49715 1.939727,5.17224 0.409146,0.91182 0.869045,1.80528 1.419804,2.64003 0.644753,0.9431 1.531972,1.63888 2.487422,2.24152 1.241872,0.73365 2.572877,1.28918 3.906274,1.82969 1.347518,0.5439 2.758075,0.89401 4.181229,1.16999 1.333836,0.24837 2.682687,0.16318 4.017402,-0.0134 1.270791,-0.16799 2.464792,-0.63617 3.654001,-1.08987 4.428083,-1.82194 8.702411,-4.1726 12.549272,-7.01205 0.851255,-0.671 1.44244,-1.57084 1.984193,-2.49375 0.490095,-0.82607 0.928441,-1.68238 1.295296,-2.57003 0.313648,-0.8001 0.577493,-1.61474 0.754092,-2.45562 0.204176,-1.00118 0.331539,-2.01208 0.408773,-3.0302 0.147767,-1.11427 0.0071,-2.21574 -0.158194,-3.31702 -0.179456,-1.01083 -0.312521,-2.02996 -0.532974,-3.0329 -0.249036,-0.96223 -0.508291,-1.91887 -0.95536,-2.8097 -0.474004,-0.76184 -0.974373,-1.51613 -1.587156,-2.1739 -0.645173,-0.69725 -1.372926,-1.29232 -2.179706,-1.79084 -1.173568,-0.72777 -2.471677,-1.16185 -3.798181,-1.51107 -1.275713,-0.31196 -2.551872,-0.61906 -3.844719,-0.85132 -0.837306,-0.16112 -1.682581,-0.21925 -2.532698,-0.24729 -0.864687,-0.047 -1.723633,0.0339 -2.57788,0.15974 -1.006914,0.14943 -1.954779,0.51598 -2.866019,0.95633 -3.396036,3.01428 -9.064017,4.12164 -12.377582,7.68621 -0.625501,0.67469 -1.097973,1.46599 -1.553464,2.25995 -0.811927,1.67386 -0.571402,1.11721 1.87714,0.93158 0.850238,-0.0645 1.702175,-0.10414 2.553263,-0.15621 0,0 0.238911,-0.118 0.238911,-0.118 v 0 c 0.947439,-0.81954 1.86391,-1.67632 2.842318,-2.45863 2.233002,-1.78545 2.308789,-1.2901 3.329512,-2.98687 0.479271,-0.72044 0.999347,-1.41258 1.67073,-1.96848 3.385552,-2.74793 10.006173,-5.48464 -7.797491,4.2511 0.809122,-0.51622 1.655739,-0.96819 2.590025,-1.21552 0.785601,-0.19492 1.590908,-0.34056 2.40266,-0.3421 0.826569,5.3e-4 1.656159,0.01 2.47891,0.0935 1.313024,0.15567 2.609729,0.4237 3.905846,0.68106 1.274781,0.27906 2.567008,0.55361 3.735149,1.15923 0.768808,0.3989 1.546333,0.78485 2.14426,1.43049 0.573759,0.56113 1.191109,1.08255 1.568037,1.80901 0.434158,0.77172 0.864595,1.55324 1.050997,2.42808 0.237386,0.95775 0.453392,1.9205 0.604514,2.8962 0.153287,1.01105 0.211984,2.02949 0.09793,3.04937 -0.113239,0.97364 -0.233926,1.95196 -0.501973,2.89745 -0.223834,0.7705 -0.478499,1.53556 -0.80827,2.26773 -0.404818,0.82944 -0.835885,1.64628 -1.340281,2.42048 -0.571447,0.82736 -1.25236,1.55393 -2.122993,2.07499 -3.276621,2.02322 -0.227679,0.13457 8.23886,-4.72557 0.184925,-0.10615 -0.362781,0.22439 -0.54838,0.32936 -0.396407,0.22419 -0.780815,0.41592 -1.196319,0.60189 -0.19757,0.0884 -0.398894,0.16822 -0.59834,0.25232 -1.152149,0.46645 -2.303785,0.96082 -3.51246,1.26172 -1.260559,0.26065 -2.545717,0.43963 -3.834614,0.30076 -1.386456,-0.14808 -2.739943,-0.45409 -4.033869,-0.9848 -1.29436,-0.47728 -2.581664,-0.99658 -3.794329,-1.65732 -0.829955,-0.51851 -1.587854,-1.1144 -2.151787,-1.92776 -0.55259,-0.77727 -1.019821,-1.6027 -1.453298,-2.45221 -0.820452,-1.49595 -1.687745,-3.00008 -1.908641,-4.72397 -0.15817,-2.09842 0.109757,-4.19109 0.962541,-6.1321 0.535469,-1.05414 1.082892,-2.03 1.897076,-2.90234 2.41872,-2.59149 10.098016,-5.42434 -6.995237,3.66348 0,0 8.261633,-6.61964 8.261633,-6.61964 z" />
    <path
       style="fill:#000000;stroke-width:0.264583"
       id="path3172"
       d="m 42.670486,92.506357 c -0.989049,1.350925 -1.462841,2.981137 -1.819074,4.594519 -0.43352,1.960178 -0.116993,3.570144 0.800902,5.319314 0.70226,0.95054 1.367052,2.00234 2.290738,2.76171 0.523278,0.4302 0.913117,0.63071 1.494174,0.97495 1.747456,0.87134 3.603585,1.51604 5.454404,2.1303 2.862172,0.84893 5.763469,1.55412 8.648398,2.31886 3.164038,0.89877 6.295215,1.88527 9.350206,3.10592 3.353398,1.4482 6.620727,3.07135 9.671063,5.08438 2.004496,1.32202 3.723103,2.99101 5.425868,4.66714 1.246042,1.24846 2.444753,2.54395 3.699947,3.78306 1.226926,1.15849 2.404832,2.36536 3.422443,3.71303 1.039398,1.43658 1.414431,3.16291 1.731439,4.8726 0.31577,1.88917 0.332097,3.80669 0.42522,5.71445 0.09346,1.57021 0.13326,3.1422 0.244594,4.71129 0.0794,1.51878 0.305882,3.02152 0.599353,4.51198 0.370895,1.50505 0.619934,3.02926 0.800586,4.56729 0.07279,1.22955 0.206405,2.45751 0.673193,3.6047 0.402114,0.81061 0.967848,1.5268 1.535464,2.2267 0.523563,0.64673 1.125226,1.22335 1.705714,1.81778 0.863234,0.89982 1.786222,1.72097 2.797822,2.44919 1.8339,1.34179 3.96364,2.17158 6.17825,2.61339 2.00883,0.2262 3.98339,-0.16611 5.8521,-0.88452 4.8017,-2.16751 9.51366,-4.58268 13.05024,-8.45188 1.12208,-1.29331 2.10333,-2.6959 3.01678,-4.14128 0.74226,-1.24086 1.57542,-2.43971 2.17917,-3.75922 0.67922,-1.48443 1.08587,-3.07738 1.50422,-4.64786 0.79916,-2.47017 0.65634,-5.06189 0.61613,-7.61786 -0.30775,-2.37471 -0.37888,-4.75332 -0.43205,-7.14367 -0.43741,-2.58505 -0.56884,-5.1948 -0.80887,-7.80056 -0.45569,-3.16866 -1.68024,-6.18324 -3.0666,-9.05025 -1.2054,-2.23879 -2.40321,-4.4888 -3.84943,-6.58312 -1.86952,-2.24611 -3.6946,-4.5287 -5.55153,-6.78539 -1.54795,-2.031816 -3.43729,-3.493398 -5.59137,-4.821474 -2.1104,-1.270252 -4.18572,-2.597394 -6.28223,-3.890286 -1.95461,-1.197226 -3.93199,-2.355516 -6.00344,-3.338525 -2.757052,-1.245984 -5.619505,-2.224405 -8.512924,-3.096559 -2.616169,-0.761849 -5.246352,-1.477542 -7.890777,-2.134717 -2.615489,-0.578628 -5.228691,-1.167164 -7.849349,-1.722061 -1.834351,-0.44377 -3.690303,-0.60842 -5.571278,-0.537531 -2.846623,0.331047 -5.6558,0.911567 -8.493056,1.315964 -1.492666,0.199604 -2.991933,0.341246 -4.456176,0.70295 -1.132483,0.316296 -2.205414,0.805434 -3.272346,1.292175 -4.743373,2.360353 -9.699064,4.578503 -13.729007,8.043992 -0.770085,0.636476 -1.380503,1.415595 -1.931299,2.241105 -0.287859,0.476361 -0.576456,0.951535 -0.884775,1.414981 -0.252547,0.386541 -0.16579,0.18704 0.0235,0.212736 0.189738,0.02574 0.366498,0.111061 0.549749,0.166592 1.537033,-0.732919 3.074069,-1.465842 4.611103,-2.198761 0,0 0.235312,-0.125016 0.235312,-0.125016 v 0 c 1.51598,-0.854726 3.031964,-1.709452 4.547944,-2.564178 0.499324,0.08111 0.725437,0.139036 0.93894,-0.293253 0.282266,-0.470228 0.58937,-0.924417 0.955606,-1.334614 0.618546,-0.720849 1.280533,-1.402696 2.062001,-1.950762 3.395139,-2.325942 8.682326,-5.07491 -8.582638,4.853892 -1.683994,0.968438 3.370371,-2.037556 1.760923,-0.948346 1.017165,-0.497144 2.052013,-0.955895 3.101888,-1.379958 1.473248,-0.545526 3.024214,-0.755486 4.570188,-1.002144 2.760921,-0.475671 5.520441,-0.978543 8.30082,-1.325684 1.821228,-0.132133 3.636105,-0.0195 5.438563,0.282255 2.654332,0.42342 5.288902,0.967451 7.901329,1.599618 2.668127,0.656928 5.337286,1.310714 7.997806,1.997569 2.837596,0.819354 5.625391,1.805927 8.330819,2.99465 2.041959,0.980821 3.919789,2.232279 5.930062,3.27315 2.182062,1.18939 4.278202,2.52056 6.426362,3.76908 2.13171,1.27329 3.84627,2.54701 5.40512,4.51449 1.95694,2.1234 3.95023,4.23872 5.59215,6.62167 1.45131,2.02236 2.71503,4.17125 3.91956,6.34815 1.43112,2.73342 2.59991,5.56809 2.91469,8.67048 0.31898,2.58219 0.49796,5.17428 0.71388,7.7664 0.14706,2.37929 0.23444,4.76198 0.39092,7.14075 0.0731,2.41373 -0.0505,4.817 -0.47009,7.19958 -0.30894,1.23417 -0.38315,1.7066 -0.86788,2.9057 -0.75761,1.87413 -1.88983,3.54669 -3.0471,5.19087 -1.00713,1.4029 -2.02805,2.80578 -3.25247,4.0307 -0.47848,0.47137 -0.9563,0.94514 -1.48398,1.36266 -0.19591,0.15501 -0.82016,0.56832 -0.60245,0.44581 8.19943,-4.61377 11.91633,-7.13253 8.3126,-4.71215 -1.72935,0.91769 -3.61713,1.45964 -5.58691,1.4824 -0.36619,-0.0307 -0.73653,-0.0291 -1.09857,-0.0921 -1.63978,-0.28504 -3.16826,-1.20274 -4.48177,-2.17981 -0.8482,-0.80963 -1.69183,-1.62577 -2.49988,-2.47559 -0.55158,-0.5834 -1.10337,-1.16656 -1.65223,-1.75244 -0.50516,-0.58999 -0.98518,-1.21994 -1.35494,-1.90341 -0.39884,-1.04096 -0.59921,-2.13069 -0.67602,-3.24278 -0.14612,-1.58202 -0.44029,-3.13762 -0.80656,-4.68322 -0.28795,-1.44759 -0.47799,-2.90393 -0.54895,-4.37969 -0.11903,-1.54786 -0.22935,-3.09633 -0.3403,-4.64479 -0.14157,-1.94119 -0.23457,-3.89456 -0.56782,-5.81409 -0.39545,-1.86772 -0.94451,-3.70355 -2.0952,-5.26139 -1.070648,-1.37438 -2.301855,-2.59663 -3.538967,-3.82064 -1.264582,-1.25487 -2.620299,-2.41389 -3.881602,-3.67277 -1.774351,-1.75934 -3.69983,-3.3653 -5.818859,-4.69795 -3.222993,-1.93811 -6.640029,-3.49959 -10.068558,-5.03728 -3.064861,-1.30378 -6.221618,-2.39069 -9.451665,-3.21115 -2.874645,-0.71402 -5.781437,-1.32023 -8.59377,-2.2624 -1.803143,-0.62326 -3.619862,-1.22195 -5.380056,-1.95854 -1.459187,-0.748468 -2.782305,-1.729387 -3.69535,-3.116582 -0.850932,-1.514755 -1.18328,-2.771886 -0.799304,-4.512789 0.371441,-1.477319 0.792919,-3.053966 2.024261,-4.055231 0,0 -8.88505,3.633319 -8.88505,3.633319 z" />
    <path
       style="fill:#000000;stroke-width:0.264583"
       id="path3174"
       d="m 56.83437,39.899666 c -6.281928,1.819921 -9.763559,4.905285 -13.408189,9.359019 -1.051478,1.419434 -1.984962,2.968072 -2.460818,4.6854 -0.303313,1.094635 -0.293481,1.58223 -0.388617,2.699983 0.01873,2.955814 0.611515,4.403418 2.662401,6.496595 2.58172,2.236454 5.98347,2.930292 9.249447,3.539683 3.959267,0.751311 7.877035,-0.159353 11.729857,-1.037664 3.567938,-0.887163 7.177429,-1.572016 10.822546,-2.043901 3.394501,-0.403603 6.814693,-0.353621 10.222039,-0.196006 2.656245,0.13602 5.31294,0.308065 7.955074,0.618527 3.481644,0.552133 6.80625,1.812513 10.15842,2.864377 3.71759,1.292577 7.45173,2.609207 10.99771,4.332459 2.19745,1.067904 2.80614,1.496658 4.88037,2.745603 4.27433,2.750915 8.22761,5.947037 12.03444,9.304245 3.0056,2.604436 5.61311,5.603226 8.18381,8.623818 2.21085,2.655321 4.25372,5.443432 6.05496,8.391526 1.77258,2.98742 2.6953,6.33578 3.50288,9.68392 0.89127,3.65906 1.14347,7.42115 1.33138,11.1689 0.11278,3.50497 0.16291,7.01178 0.18648,10.51838 0.0475,3.39749 0.0901,6.7956 0.17087,10.19259 0.17526,3.43705 0.37469,6.87956 0.80818,10.29515 0.53599,2.93856 1.38167,5.81108 2.90132,8.39187 1.24463,1.9618 3.04433,3.40087 4.92885,4.70689 1.34825,0.98163 2.87454,1.56241 4.49614,1.89086 1.17822,0.16318 2.36886,-0.006 3.40887,-0.61412 11.06476,-6.47513 8.12857,-3.45005 11.75712,-7.37956 1.75224,-2.41035 2.85116,-5.19845 3.87374,-7.97483 1.06557,-3.02515 1.578,-6.18937 1.95532,-9.36171 0.24225,-3.5607 0.38687,-7.12902 0.39304,-10.69801 -0.0955,-3.42447 -0.29633,-6.83861 -0.78836,-10.22955 -0.60279,-3.41104 -1.49397,-6.7645 -2.48415,-10.0812 -0.96769,-3.09179 -2.44864,-5.98728 -3.84443,-8.90095 -1.12759,-2.407027 -2.49284,-4.677893 -3.98564,-6.872096 -1.62405,-2.422705 -3.1272,-4.920051 -4.75471,-7.341605 -2.19382,-3.18833 -4.39464,-6.371003 -6.5148,-9.609151 -1.80465,-2.764634 -3.68587,-5.47515 -5.63311,-8.14066 -1.82125,-2.613768 -3.96553,-4.949116 -6.24921,-7.158847 -3.02384,-2.731116 -6.38708,-5.059593 -9.72637,-7.38414 -3.20636,-2.227699 -6.61138,-4.141885 -10.13124,-5.822476 -4.66571,-2.223632 -9.5931,-3.791035 -14.51694,-5.321967 -5.91399,-1.843616 -11.94263,-3.286656 -17.944322,-4.812839 -3.600895,-0.86985 -7.171928,-1.860389 -10.79277,-2.645778 -2.230916,-0.452411 -4.506441,-0.623927 -6.763319,-0.903531 -2.142378,-0.295897 -4.285562,-0.586684 -6.426755,-0.890998 -1.879833,-0.345461 -3.779549,-0.462158 -5.686753,-0.491426 -2.256383,-0.09206 -4.452959,0.277429 -6.609768,0.903668 -5.302877,1.887599 -10.252138,4.807448 -14.736394,8.20406 -1.035019,0.804376 -1.99553,1.706706 -2.898254,2.656097 -1.957258,2.544908 3.063131,1.750615 3.813598,1.733206 0,0 0.239617,-0.116552 0.239617,-0.116552 v 0 c 2.392511,-2.028494 4.802907,-4.03693 7.07049,-6.206569 1.008721,-0.912257 2.026518,-1.815166 3.166798,-2.563686 3.422565,-2.278732 8.57646,-4.985975 -8.722445,4.9353 -0.240763,0.138083 0.477208,-0.283967 0.722156,-0.414483 0.793158,-0.42263 0.920782,-0.45116 1.767377,-0.803156 2.029511,-0.718712 4.103907,-1.260713 6.279695,-1.158934 1.867056,0.04341 3.734729,0.133377 5.587701,0.379077 2.154709,0.305223 4.300165,0.678915 6.467623,0.890662 2.24213,0.271531 4.480319,0.571002 6.721748,0.847902 3.828692,0.560422 7.628236,1.309618 11.407142,2.138561 6.026404,1.346729 11.987505,2.936502 17.891155,4.749419 4.79608,1.543886 9.57695,3.190742 14.12514,5.37624 3.43256,1.725332 6.81504,3.541165 9.9854,5.72271 3.34796,2.188152 6.6798,4.439714 9.56624,7.228986 2.2039,2.192517 4.23905,4.533294 6.06482,7.052921 1.9835,2.619761 3.95258,5.253093 5.73238,8.017724 2.20109,3.175071 4.48975,6.290977 6.54476,9.56515 1.54206,2.485165 2.89448,5.085183 4.58253,7.477531 1.46724,2.141 2.86627,4.32999 3.99666,6.67194 1.43557,2.81767 2.94877,5.61599 3.92247,8.63719 1.01628,3.25579 1.79472,6.5746 2.38371,9.93485 0.49466,3.32612 0.71709,6.68616 0.77674,10.04784 0.031,3.53299 -0.0638,7.07113 -0.48932,10.58221 -0.39156,3.09453 -0.97867,6.16543 -2.05567,9.10361 -1.03317,2.71337 -2.19736,5.46909 -4.26901,7.56664 -3.62817,3.01969 -0.76354,0.55325 8.51264,-4.63627 0.26934,-0.15067 -0.49729,0.36704 -0.76118,0.52706 -0.64332,0.3901 -1.32057,0.64507 -2.07891,0.65142 -1.53448,-0.15163 -2.96463,-0.58192 -4.27558,-1.42021 -1.81675,-1.11667 -3.45738,-2.4482 -4.65788,-4.23986 -1.48125,-2.41957 -2.39352,-5.0895 -2.78684,-7.90443 -0.48786,-3.36815 -0.68194,-6.76031 -0.79836,-10.16015 -0.11963,-3.38974 -0.10547,-6.77956 -0.17328,-10.17025 -0.0712,-3.50151 -0.162,-7.00264 -0.31149,-10.50183 -0.18894,-3.82111 -0.56498,-7.63893 -1.43114,-11.37326 -0.89071,-3.4416 -1.80816,-6.939081 -3.69402,-9.992457 -1.88165,-2.970099 -3.94731,-5.81212 -6.24312,-8.478655 -2.61498,-3.082226 -5.41749,-6.014259 -8.4969,-8.638638 -3.94022,-3.324508 -7.96389,-6.573207 -12.31335,-9.353684 -2.3401,-1.397318 -2.54965,-1.586095 -5.02089,-2.801065 -3.54062,-1.740733 -7.27548,-3.006156 -10.92743,-4.4836 -3.19501,-1.342255 -6.42542,-2.651077 -9.81167,-3.433921 -2.801055,-0.299839 -5.617571,-0.350353 -8.432581,-0.394129 -3.533191,-0.0396 -7.079449,-0.151426 -10.597415,0.260512 -3.759538,0.467651 -7.484544,1.165108 -11.145422,2.148845 -3.755646,0.900496 -7.553819,1.82027 -11.445348,1.337255 -3.15522,-0.42186 -6.375749,-1.041141 -9.003067,-2.958545 -1.899343,-1.588521 -2.632644,-2.929964 -2.5733,-5.457243 0.05363,-0.406725 0.07777,-0.818438 0.160882,-1.220176 0.438984,-2.121821 1.622018,-3.978815 2.958222,-5.644957 0.789966,-0.950679 1.581195,-1.909527 2.530959,-2.709648 0.28666,-0.241496 1.231873,-0.849691 0.902496,-0.670787 -13.124344,7.128533 -10.403676,5.741773 -7.488682,4.26607 0,0 8.202806,-6.304291 8.202806,-6.304291 z" />
  </g>
</svg>
