<?xml version="1.0" standalone="no"?>
<!DOCTYPE svg PUBLIC "-//W3C//DTD SVG 20010904//EN"
 "http://www.w3.org/TR/2001/REC-SVG-20010904/DTD/svg10.dtd">
<svg version="1.0" xmlns="http://www.w3.org/2000/svg"
 width="2558.000000pt" height="1356.000000pt" viewBox="0 0 2558.000000 1356.000000"
 preserveAspectRatio="xMidYMid meet">

<g transform="translate(0.000000,1356.000000) scale(0.100000,-0.100000)"
fill="#000000" stroke="none">
<path d="M645 8869 c-4 -6 -5 -12 -2 -15 2 -3 7 2 10 11 7 17 1 20 -8 4z"/>
<path d="M681 8857 c0 -15 -8 -41 -16 -57 -9 -17 -13 -30 -11 -30 13 0 37 64
33 88 l-4 27 -2 -28z"/>
<path d="M526 8854 c-3 -9 -6 -21 -5 -27 0 -7 5 -1 10 13 10 25 11 25 26 5 14
-17 15 -18 9 -2 -3 10 -6 21 -6 23 0 12 -29 2 -34 -12z"/>
<path d="M615 8800 c-13 -28 -21 -37 -27 -28 -6 10 -8 8 -8 -4 0 -10 4 -18 10
-18 10 0 54 79 47 86 -2 2 -12 -14 -22 -36z"/>
<path d="M571 8804 c0 -11 3 -14 6 -6 3 7 2 16 -1 19 -3 4 -6 -2 -5 -13z"/>
<path d="M531 8784 c0 -11 3 -14 6 -6 3 7 2 16 -1 19 -3 4 -6 -2 -5 -13z"/>
<path d="M536 8743 c-6 -14 -5 -15 5 -6 7 7 10 15 7 18 -3 3 -9 -2 -12 -12z"/>
<path d="M644 8724 l1 -39 -53 -3 c-47 -3 -53 -1 -62 20 -8 22 -9 22 -7 -4 1
-27 3 -28 57 -28 31 0 61 5 68 12 14 14 15 47 3 67 -5 8 -8 -1 -7 -25z"/>
<path d="M737 8656 c-55 -33 -59 -43 -7 -15 56 29 54 28 49 33 -2 3 -21 -6
-42 -18z"/>
<path d="M430 8654 c0 -8 5 -12 10 -9 6 3 10 10 10 16 0 5 -4 9 -10 9 -5 0
-10 -7 -10 -16z"/>
<path d="M499 8623 l22 -18 -45 -38 -45 -37 -4 52 -3 53 -2 -62 c-2 -59 -1
-63 23 -69 13 -3 30 -4 37 -1 7 3 1 6 -14 6 -39 1 -35 14 16 56 38 31 48 35
65 25 35 -18 23 -4 -19 24 -45 30 -63 35 -31 9z"/>
<path d="M640 8600 c-14 -11 -34 -20 -45 -21 -16 -1 -17 -2 -3 -6 9 -2 28 3
43 13 25 17 26 16 65 -22 22 -21 38 -45 35 -51 -2 -7 -1 -13 4 -13 13 0 35 30
27 37 -3 3 -6 0 -6 -7 0 -8 -20 6 -45 30 -24 24 -42 47 -39 52 9 14 -10 8 -36
-12z"/>
<path d="M772 8575 c0 -16 2 -22 5 -12 2 9 2 23 0 30 -3 6 -5 -1 -5 -18z"/>
<path d="M588 8493 c6 -2 18 -2 25 0 6 3 1 5 -13 5 -14 0 -19 -2 -12 -5z"/>
</g>
</svg>
